<svg width="282" height="454" viewBox="0 0 282 454" fill="none" xmlns="http://www.w3.org/2000/svg">
<rect width="281" height="454" transform="translate(0.5)" fill="white"/>
<mask id="path-1-inside-1_205_991" fill="white">
<path fill-rule="evenodd" clip-rule="evenodd" d="M75.0309 167.92C73.2205 167.92 71.9056 167.603 70.6884 167.982L69.8355 168.388C69.1228 168.809 68.4777 169.53 68.1715 170.32C67.6531 171.656 68.0182 173.4 68.1136 174.747L69.1494 181.263C69.6118 183.306 70.0036 185.349 70.6489 187.314L71.0489 188.623C71.2778 189.461 71.5897 190.201 72.1513 190.846C73.2288 192.085 75.3311 192.398 76.8944 191.718L79.0524 190.82C79.2937 190.741 79.612 190.658 79.8935 190.582C82.1661 189.97 84.9727 190.591 86.6033 191.766L87.8792 192.828C88.4727 193.506 89.1045 194.262 89.5332 195.129C91.0876 198.273 93.9144 201.498 93.1659 205.293C92.851 206.889 92.4094 208.164 91.3711 209.431C91.2047 209.634 91.1046 209.784 90.9218 209.97C90.228 210.678 89.3922 211.087 88.7158 211.72C86.9206 213.399 86.827 215.999 88.5824 217.745C89.5002 218.657 91.5282 220.686 92.4705 221.408C92.6819 221.57 92.744 221.639 92.941 221.836C93.804 222.7 97.1187 225.228 98.277 226.029C99.7563 227.053 102.131 229.049 104.067 229.049C104.737 229.049 105.433 228.813 105.962 228.517L107.305 227.343C108.487 225.701 108.357 224.606 110.4 222.886L111.835 221.895C114.048 220.572 117.127 220.649 119.485 221.722C119.857 221.891 120.25 221.983 120.609 222.126L123.319 223.191C124.76 223.83 126.086 224.224 127.261 225.362C128.203 226.274 128.954 227.337 129.417 228.6C129.963 230.092 130.085 231.848 129.753 233.429C129.5 234.63 129.238 235.229 129.71 236.487C130.844 239.515 133.258 238.993 135.658 239.349C137.007 239.549 141.653 239.499 143.175 239.48C143.639 239.475 143.671 239.407 144.07 239.386L147.77 239.131C148.923 239.011 150.206 239.035 151.235 238.55C152.696 237.861 153.599 236.425 153.599 234.802C153.599 232.849 152.416 231.475 153.45 228.36C153.91 226.976 154.644 225.865 155.63 224.877C156.533 223.973 157.597 223.376 158.81 222.933L162.309 221.757C165.489 220.694 167.683 219.773 171.009 221.437C171.816 221.841 172.394 222.329 173.066 222.886C173.519 223.262 173.866 223.709 174.186 224.194C174.73 225.02 175.076 225.942 175.739 226.687C176.03 227.014 176.353 227.267 176.759 227.464C178.524 228.32 179.914 227.924 181.412 226.927L182.796 225.973C182.817 225.957 182.877 225.911 182.897 225.895C184.007 225.013 185.172 224.236 186.251 223.316L188.32 221.609C188.538 221.416 188.607 221.315 188.838 221.138L189.925 220.158C189.989 220.104 189.993 220.103 190.071 220.034L192.433 217.721C193.79 216.29 194.861 215.519 194.861 213.317C194.861 210.427 192.146 209.881 190.777 207.963L190.229 207.162C188.941 204.79 188.612 202.032 189.739 199.475C190.108 198.639 190.604 197.814 191.105 197.065C192.208 195.418 193.219 193.086 194.622 191.683L195.297 191.099C195.552 190.891 195.79 190.728 196.082 190.536C197.131 189.852 198.645 189.225 199.895 189.225C201.178 189.225 201.826 189.223 203.029 189.688L204.498 190.376C204.701 190.487 204.927 190.578 205.121 190.652C206.006 190.985 207.115 190.953 207.989 190.666C208.401 190.531 208.755 190.307 209.093 190.063C209.376 189.858 209.722 189.477 209.926 189.188C210.599 188.229 210.96 186.638 211.292 185.52C211.817 183.754 212.305 182.051 212.713 180.198C212.823 179.698 212.933 179.224 213.008 178.786L213.922 172.957C213.949 172.389 214.099 172.082 214.099 171.426C214.099 170.536 214.136 169.869 213.712 169.026C213.169 167.944 212.305 167.23 211.062 166.911C209.763 166.578 207.967 166.957 206.596 166.703L204.961 166.36C203.323 165.918 202.438 165.272 201.14 164.248C200.338 163.615 199.61 162.375 199.214 161.41C199.037 160.982 199.031 160.549 198.457 160.549H184.433C183.905 160.549 184.211 161.04 184.247 161.453L184.515 164.153C184.679 165.839 184.613 167.649 184.613 169.359C184.613 170.544 184.422 171.773 184.276 172.887C183.622 177.877 182.189 182.613 179.954 187.083C179.799 187.392 179.67 187.688 179.503 187.98L177.512 191.293C177.168 191.809 176.811 192.411 176.412 192.89L173.489 196.53C173.351 196.669 173.308 196.723 173.189 196.859L173.018 197.047C172.957 197.11 172.898 197.166 172.837 197.226C172.382 197.675 171.977 198.127 171.511 198.597L167.238 202.235L164.08 204.381C162.838 205.145 161.616 205.903 160.299 206.533C160.083 206.636 159.988 206.655 159.789 206.742L158.865 207.167C158.614 207.274 158.618 207.284 158.437 207.368C158.253 207.452 158.145 207.489 157.991 207.551L156.074 208.331C155.686 208.462 155.434 208.54 155.061 208.666C154.381 208.895 153.778 209.082 153.08 209.292L149.906 210.074C148.769 210.298 147.582 210.55 146.411 210.623C146.013 210.648 145.66 210.753 145.317 210.788C144.446 210.877 143.588 210.846 142.787 210.956C141.534 211.127 138.116 210.932 136.902 210.777C134.543 210.475 132.466 210.1 130.178 209.591C128.166 209.143 125.675 208.222 123.773 207.366C122.882 206.965 121.916 206.595 121.092 206.09L118.936 204.921C118.625 204.733 118.439 204.566 118.119 204.389C117.505 204.05 117.024 203.723 116.486 203.325C115.983 202.953 115.44 202.635 114.965 202.24L109.502 197.365L104.696 191.293C104.516 191.023 104.337 190.756 104.156 190.485L102.974 188.431C101.484 185.641 100.588 183.496 99.5716 180.506C98.7331 178.039 98.2573 175.487 97.9294 172.889C97.5859 170.166 97.4943 167.171 97.6812 164.411L97.9542 161.718C97.9944 161.361 98.2534 160.549 97.7742 160.549H83.2113C82.8377 160.549 82.7419 160.632 82.6784 160.915C82.6546 161.021 82.6591 161.168 82.6306 161.317C82.3119 162.97 81.4511 164.226 80.3622 165.431C80.3498 165.445 80.3329 165.465 80.3205 165.479L80.1915 165.62C80.1786 165.633 80.1597 165.652 80.1464 165.665C78.9016 166.87 76.8216 167.92 75.0309 167.92Z"/>
</mask>
<path fill-rule="evenodd" clip-rule="evenodd" d="M75.0309 167.92C73.2205 167.92 71.9056 167.603 70.6884 167.982L69.8355 168.388C69.1228 168.809 68.4777 169.53 68.1715 170.32C67.6531 171.656 68.0182 173.4 68.1136 174.747L69.1494 181.263C69.6118 183.306 70.0036 185.349 70.6489 187.314L71.0489 188.623C71.2778 189.461 71.5897 190.201 72.1513 190.846C73.2288 192.085 75.3311 192.398 76.8944 191.718L79.0524 190.82C79.2937 190.741 79.612 190.658 79.8935 190.582C82.1661 189.97 84.9727 190.591 86.6033 191.766L87.8792 192.828C88.4727 193.506 89.1045 194.262 89.5332 195.129C91.0876 198.273 93.9144 201.498 93.1659 205.293C92.851 206.889 92.4094 208.164 91.3711 209.431C91.2047 209.634 91.1046 209.784 90.9218 209.97C90.228 210.678 89.3922 211.087 88.7158 211.72C86.9206 213.399 86.827 215.999 88.5824 217.745C89.5002 218.657 91.5282 220.686 92.4705 221.408C92.6819 221.57 92.744 221.639 92.941 221.836C93.804 222.7 97.1187 225.228 98.277 226.029C99.7563 227.053 102.131 229.049 104.067 229.049C104.737 229.049 105.433 228.813 105.962 228.517L107.305 227.343C108.487 225.701 108.357 224.606 110.4 222.886L111.835 221.895C114.048 220.572 117.127 220.649 119.485 221.722C119.857 221.891 120.25 221.983 120.609 222.126L123.319 223.191C124.76 223.83 126.086 224.224 127.261 225.362C128.203 226.274 128.954 227.337 129.417 228.6C129.963 230.092 130.085 231.848 129.753 233.429C129.5 234.63 129.238 235.229 129.71 236.487C130.844 239.515 133.258 238.993 135.658 239.349C137.007 239.549 141.653 239.499 143.175 239.48C143.639 239.475 143.671 239.407 144.07 239.386L147.77 239.131C148.923 239.011 150.206 239.035 151.235 238.55C152.696 237.861 153.599 236.425 153.599 234.802C153.599 232.849 152.416 231.475 153.45 228.36C153.91 226.976 154.644 225.865 155.63 224.877C156.533 223.973 157.597 223.376 158.81 222.933L162.309 221.757C165.489 220.694 167.683 219.773 171.009 221.437C171.816 221.841 172.394 222.329 173.066 222.886C173.519 223.262 173.866 223.709 174.186 224.194C174.73 225.02 175.076 225.942 175.739 226.687C176.03 227.014 176.353 227.267 176.759 227.464C178.524 228.32 179.914 227.924 181.412 226.927L182.796 225.973C182.817 225.957 182.877 225.911 182.897 225.895C184.007 225.013 185.172 224.236 186.251 223.316L188.32 221.609C188.538 221.416 188.607 221.315 188.838 221.138L189.925 220.158C189.989 220.104 189.993 220.103 190.071 220.034L192.433 217.721C193.79 216.29 194.861 215.519 194.861 213.317C194.861 210.427 192.146 209.881 190.777 207.963L190.229 207.162C188.941 204.79 188.612 202.032 189.739 199.475C190.108 198.639 190.604 197.814 191.105 197.065C192.208 195.418 193.219 193.086 194.622 191.683L195.297 191.099C195.552 190.891 195.79 190.728 196.082 190.536C197.131 189.852 198.645 189.225 199.895 189.225C201.178 189.225 201.826 189.223 203.029 189.688L204.498 190.376C204.701 190.487 204.927 190.578 205.121 190.652C206.006 190.985 207.115 190.953 207.989 190.666C208.401 190.531 208.755 190.307 209.093 190.063C209.376 189.858 209.722 189.477 209.926 189.188C210.599 188.229 210.96 186.638 211.292 185.52C211.817 183.754 212.305 182.051 212.713 180.198C212.823 179.698 212.933 179.224 213.008 178.786L213.922 172.957C213.949 172.389 214.099 172.082 214.099 171.426C214.099 170.536 214.136 169.869 213.712 169.026C213.169 167.944 212.305 167.23 211.062 166.911C209.763 166.578 207.967 166.957 206.596 166.703L204.961 166.36C203.323 165.918 202.438 165.272 201.14 164.248C200.338 163.615 199.61 162.375 199.214 161.41C199.037 160.982 199.031 160.549 198.457 160.549H184.433C183.905 160.549 184.211 161.04 184.247 161.453L184.515 164.153C184.679 165.839 184.613 167.649 184.613 169.359C184.613 170.544 184.422 171.773 184.276 172.887C183.622 177.877 182.189 182.613 179.954 187.083C179.799 187.392 179.67 187.688 179.503 187.98L177.512 191.293C177.168 191.809 176.811 192.411 176.412 192.89L173.489 196.53C173.351 196.669 173.308 196.723 173.189 196.859L173.018 197.047C172.957 197.11 172.898 197.166 172.837 197.226C172.382 197.675 171.977 198.127 171.511 198.597L167.238 202.235L164.08 204.381C162.838 205.145 161.616 205.903 160.299 206.533C160.083 206.636 159.988 206.655 159.789 206.742L158.865 207.167C158.614 207.274 158.618 207.284 158.437 207.368C158.253 207.452 158.145 207.489 157.991 207.551L156.074 208.331C155.686 208.462 155.434 208.54 155.061 208.666C154.381 208.895 153.778 209.082 153.08 209.292L149.906 210.074C148.769 210.298 147.582 210.55 146.411 210.623C146.013 210.648 145.66 210.753 145.317 210.788C144.446 210.877 143.588 210.846 142.787 210.956C141.534 211.127 138.116 210.932 136.902 210.777C134.543 210.475 132.466 210.1 130.178 209.591C128.166 209.143 125.675 208.222 123.773 207.366C122.882 206.965 121.916 206.595 121.092 206.09L118.936 204.921C118.625 204.733 118.439 204.566 118.119 204.389C117.505 204.05 117.024 203.723 116.486 203.325C115.983 202.953 115.44 202.635 114.965 202.24L109.502 197.365L104.696 191.293C104.516 191.023 104.337 190.756 104.156 190.485L102.974 188.431C101.484 185.641 100.588 183.496 99.5716 180.506C98.7331 178.039 98.2573 175.487 97.9294 172.889C97.5859 170.166 97.4943 167.171 97.6812 164.411L97.9542 161.718C97.9944 161.361 98.2534 160.549 97.7742 160.549H83.2113C82.8377 160.549 82.7419 160.632 82.6784 160.915C82.6546 161.021 82.6591 161.168 82.6306 161.317C82.3119 162.97 81.4511 164.226 80.3622 165.431C80.3498 165.445 80.3329 165.465 80.3205 165.479L80.1915 165.62C80.1786 165.633 80.1597 165.652 80.1464 165.665C78.9016 166.87 76.8216 167.92 75.0309 167.92Z" stroke="#80040B" stroke-width="8" mask="url(#path-1-inside-1_205_991)"/>
<path fill-rule="evenodd" clip-rule="evenodd" d="M110.27 168.19C110.27 166.671 110.288 165.769 110.436 164.311C110.763 161.085 111.393 158.198 112.657 155.205C112.771 154.936 112.82 154.859 112.941 154.59C113.062 154.322 113.131 154.183 113.253 153.914C114.281 151.646 115.71 149.513 117.267 147.59L118.622 146.068C119.803 144.726 121.236 143.631 122.613 142.507C124.371 141.071 126.494 139.961 128.548 139.003C130.356 138.16 132.269 137.586 134.23 137.134C137.285 136.431 141.316 136.114 144.645 136.601C145.562 136.735 146.55 136.803 147.44 137.042C149.506 137.599 151.57 138.173 153.52 139.054L155.381 139.979C155.587 140.084 155.824 140.197 156.032 140.316L157.214 141.023C158.747 141.978 160.187 143.071 161.532 144.256L164.317 147.134C164.469 147.308 164.559 147.445 164.707 147.644C164.904 147.909 164.973 147.94 165.169 148.17L166.76 150.354C168.082 152.339 169.03 154.421 169.91 156.643L170.82 159.51C171.698 163.396 171.962 166.686 171.566 170.694C171.428 172.093 171.098 173.405 170.806 174.699C170.567 175.754 170.118 177.285 169.674 178.242C168.601 180.562 167.632 183.003 165.984 184.979L163.447 188.106C163.124 188.493 162.84 188.778 162.477 189.114C162.282 189.293 162.202 189.339 161.995 189.53L160.471 190.883C157.438 193.241 155.103 194.617 151.408 196.024C150.205 196.482 148.991 196.811 147.721 197.101C141.155 198.6 134.61 197.804 128.492 195.185C128.028 194.986 127.698 194.781 127.222 194.568L125.409 193.593C125.178 193.455 125.035 193.338 124.815 193.198C123.306 192.236 121.755 191.239 120.494 189.968L118.652 188.125C118.319 187.747 118.078 187.559 117.744 187.145C116.622 185.75 115.404 184.367 114.569 182.769L113.896 181.554C113.477 180.665 112.995 179.911 112.675 178.999C112.168 177.548 111.639 176.439 111.239 174.772L110.27 168.19L110.27 168.19ZM102.089 166.392C102.089 168.88 102.256 170.915 102.602 173.34L103.109 175.89C103.156 176.079 103.164 176.219 103.208 176.42C104.027 180.081 106.176 185.121 108.279 188.16C108.611 188.64 108.891 189.165 109.26 189.606L111.479 192.421C112.061 193.115 112.685 193.913 113.378 194.477L113.563 194.652C113.576 194.665 113.593 194.686 113.606 194.699C113.618 194.713 113.635 194.733 113.648 194.747C113.66 194.761 113.677 194.781 113.69 194.795L115.507 196.484C115.771 196.74 115.899 196.837 116.182 197.067C117.107 197.82 117.935 198.475 118.953 199.15C120.426 200.125 121.872 201.05 123.454 201.841C123.747 201.987 123.941 202.086 124.233 202.231L126.733 203.326C127.343 203.552 127.922 203.773 128.518 203.968C130.685 204.677 132.998 205.352 135.336 205.601C135.721 205.641 135.954 205.747 136.43 205.766C137.253 205.797 137.754 205.954 138.678 205.945C139.754 205.935 141.032 206.098 142.183 206.036L145.509 205.766C145.912 205.743 146.145 205.679 146.534 205.622C147.017 205.552 147.193 205.553 147.63 205.46L149.657 205.06C150.846 204.853 152.262 204.454 153.382 204.02L155.167 203.379C158.208 202.185 161.072 200.619 163.706 198.702C165.223 197.598 166.681 196.424 168.018 195.104L168.716 194.454C168.729 194.441 168.747 194.42 168.759 194.407L168.842 194.31C169.396 193.657 170.067 193.056 170.603 192.385L172.195 190.382C173.779 188.266 175.138 185.982 176.284 183.593C176.43 183.289 176.49 183.085 176.642 182.782C176.796 182.477 176.867 182.299 176.998 181.97C177.244 181.351 177.426 180.848 177.666 180.21L178.282 178.399C178.387 178.025 178.424 177.856 178.527 177.475L178.885 176.036C178.916 175.887 178.981 175.686 179.017 175.538C179.116 175.123 179.163 174.912 179.223 174.486C179.534 172.263 179.939 170.325 179.939 167.92L179.754 163.16C179.729 162.805 179.619 162.434 179.587 162.069C179.411 160.083 178.925 158.099 178.366 156.188L178.102 155.284C177.012 151.547 174.789 147.335 172.453 144.213L166.747 137.963C166.136 137.381 165.427 136.889 164.767 136.346C164.294 135.958 163.869 135.666 163.385 135.301C161.608 133.957 159.368 132.732 157.337 131.82C156.749 131.555 156.324 131.362 155.705 131.115C152.098 129.67 147.95 128.578 144.073 128.364C142.523 128.278 142.056 128.187 140.295 128.187C137.005 128.187 133.227 128.895 130.057 129.815C129.744 129.905 129.505 129.995 129.168 130.094C127.698 130.528 126.222 131.2 124.82 131.77L122.89 132.716C121.501 133.567 120.094 134.294 118.772 135.25C116.472 136.915 114.292 138.703 112.359 140.793C112.134 141.036 112.07 141.172 111.82 141.424C111.682 141.563 111.639 141.611 111.52 141.752C111.508 141.766 111.491 141.787 111.479 141.801C110.416 143.065 109.679 144.205 108.677 145.472C108.122 146.175 107.316 147.643 106.88 148.44L106.088 149.985C105.939 150.284 105.812 150.524 105.67 150.825C103.497 155.437 102.089 161.313 102.089 166.392H102.089Z" fill="#F44708"/>
<path fill-rule="evenodd" clip-rule="evenodd" d="M139.396 162.077C138.292 162.077 136.818 162.491 136.052 162.958C134.728 163.764 133.726 164.688 133.041 166.15C130.805 170.924 134.657 176.5 139.759 176.111C141.31 175.992 142.118 175.685 143.259 175.02C143.374 174.953 143.417 174.922 143.525 174.836L144.741 173.714C147.098 170.92 146.145 168.834 146.478 168.08L148.904 165.023C149.203 164.657 149.457 164.339 149.746 163.977C150.025 163.626 150.263 163.32 150.551 162.984L150.633 162.886C150.645 162.872 150.662 162.851 150.674 162.837L156.317 155.805C156.885 155.109 157.42 154.493 157.965 153.767C158.768 152.698 159.353 152.466 159.353 151.2C159.353 150.678 159.098 150.27 158.816 150.029C158.687 149.919 158.517 149.785 158.338 149.697C157.542 149.306 156.905 149.552 156.295 150.029L143.339 160.447C142.933 160.746 142.648 161.014 142.252 161.337C142.117 161.447 141.22 162.186 141.145 162.214C140.958 162.284 139.819 162.077 139.396 162.077L139.396 162.077Z" fill="#F44708"/>
<path fill-rule="evenodd" clip-rule="evenodd" d="M107.034 133.49C107.034 134.957 107.207 135.894 107.676 137.074L108.305 138.333C108.454 138.611 108.487 138.693 108.675 138.951C108.842 139.18 108.891 139.343 109.191 139.423L109.78 138.753C109.792 138.739 109.809 138.718 109.821 138.704L115.471 133.298C117.775 131.579 119.892 130.153 122.513 128.923C122.989 128.699 123.002 128.769 123.035 128.366C122.748 128.29 122.844 128.278 122.684 128.088C122.569 127.951 122.513 127.893 122.387 127.756L122.173 127.521C122.16 127.508 122.141 127.489 122.127 127.477C120.461 125.877 118.41 124.95 116.024 124.95C115.421 124.95 114.516 125.01 114.043 125.127L112.811 125.513C111.924 125.824 111.14 126.287 110.398 126.876C109.26 127.779 108.618 128.652 107.919 129.971C107.463 130.832 107.034 132.54 107.034 133.49L107.034 133.49Z" fill="#F44708"/>
<path fill-rule="evenodd" clip-rule="evenodd" d="M160.611 128.726C160.994 128.815 162.28 129.486 162.684 129.709L165.555 131.423C167.76 133.003 168.404 133.401 170.448 135.25L170.742 135.495C171.023 135.735 171.248 135.991 171.511 136.254C172.033 136.777 172.58 137.233 173.017 137.805L174.106 139.054C174.31 139.314 174.182 139.326 174.545 139.423C174.949 139.127 175.424 138.128 175.644 137.736C176.907 135.486 176.812 132.853 175.919 130.498C175.565 129.563 175.552 129.685 175.046 128.854C172.647 124.911 166.71 123.592 162.537 126.606C161.975 127.011 160.665 128.073 160.611 128.726L160.611 128.726Z" fill="#F44708"/>
<path fill-rule="evenodd" clip-rule="evenodd" d="M134.901 119.556V123.512C134.901 123.911 134.969 123.878 134.951 124.231C134.9 125.179 134.852 124.85 136.442 124.694C138.698 124.472 142.092 124.179 144.278 124.563C144.777 124.651 145.265 124.626 145.743 124.716C147.661 125.075 146.968 125.105 147.034 122.97C147.048 122.517 147.125 122.472 147.13 121.987C147.142 121.079 147.22 118.29 146.801 117.545C146.513 117.035 145.815 116.5 145.059 116.5H136.969C136.199 116.5 135.676 116.942 135.347 117.396C134.97 117.916 134.901 118.662 134.901 119.556Z" fill="#F44708"/>
<path d="M93.1822 298.5V283.955H102.983V286.49H96.2575V289.956H102.479V292.491H96.2575V295.964H103.012V298.5H93.1822ZM111.238 287.591V289.864H104.505V287.591H111.238ZM106.046 298.5V286.803C106.046 286.012 106.2 285.356 106.508 284.835C106.82 284.314 107.246 283.924 107.786 283.663C108.326 283.403 108.939 283.273 109.626 283.273C110.09 283.273 110.513 283.308 110.897 283.379C111.285 283.45 111.574 283.514 111.763 283.571L111.224 285.844C111.105 285.806 110.959 285.77 110.783 285.737C110.613 285.704 110.438 285.688 110.258 285.688C109.813 285.688 109.503 285.792 109.327 286C109.152 286.204 109.065 286.49 109.065 286.859V298.5H106.046ZM118.953 287.591V289.864H112.22V287.591H118.953ZM113.761 298.5V286.803C113.761 286.012 113.915 285.356 114.223 284.835C114.535 284.314 114.961 283.924 115.501 283.663C116.041 283.403 116.654 283.273 117.341 283.273C117.805 283.273 118.228 283.308 118.612 283.379C119 283.45 119.289 283.514 119.478 283.571L118.939 285.844C118.82 285.806 118.673 285.77 118.498 285.737C118.328 285.704 118.153 285.688 117.973 285.688C117.528 285.688 117.217 285.792 117.042 286C116.867 286.204 116.779 286.49 116.779 286.859V298.5H113.761ZM120.801 298.5V287.591H123.827V298.5H120.801ZM122.321 286.185C121.871 286.185 121.485 286.036 121.163 285.737C120.846 285.434 120.688 285.072 120.688 284.651C120.688 284.234 120.846 283.876 121.163 283.578C121.485 283.275 121.871 283.124 122.321 283.124C122.771 283.124 123.154 283.275 123.472 283.578C123.794 283.876 123.955 284.234 123.955 284.651C123.955 285.072 123.794 285.434 123.472 285.737C123.154 286.036 122.771 286.185 122.321 286.185ZM131.179 298.713C130.062 298.713 129.101 298.476 128.296 298.003C127.496 297.525 126.88 296.862 126.449 296.014C126.023 295.167 125.81 294.191 125.81 293.088C125.81 291.971 126.025 290.991 126.456 290.148C126.892 289.3 127.51 288.64 128.31 288.166C129.11 287.688 130.062 287.449 131.165 287.449C132.117 287.449 132.95 287.622 133.665 287.967C134.38 288.313 134.946 288.798 135.363 289.423C135.779 290.048 136.009 290.782 136.051 291.625H133.196C133.116 291.08 132.903 290.643 132.557 290.311C132.216 289.975 131.769 289.807 131.215 289.807C130.746 289.807 130.337 289.935 129.986 290.19C129.641 290.441 129.371 290.808 129.176 291.291C128.982 291.774 128.885 292.359 128.885 293.045C128.885 293.741 128.98 294.333 129.169 294.821C129.364 295.309 129.636 295.68 129.986 295.936C130.337 296.192 130.746 296.32 131.215 296.32C131.56 296.32 131.871 296.249 132.145 296.107C132.425 295.964 132.654 295.759 132.834 295.489C133.019 295.214 133.14 294.885 133.196 294.501H136.051C136.004 295.335 135.777 296.069 135.37 296.703C134.967 297.333 134.411 297.825 133.701 298.18C132.99 298.536 132.15 298.713 131.179 298.713ZM137.989 298.5V287.591H141.014V298.5H137.989ZM139.509 286.185C139.059 286.185 138.673 286.036 138.351 285.737C138.034 285.434 137.875 285.072 137.875 284.651C137.875 284.234 138.034 283.876 138.351 283.578C138.673 283.275 139.059 283.124 139.509 283.124C139.958 283.124 140.342 283.275 140.659 283.578C140.981 283.876 141.142 284.234 141.142 284.651C141.142 285.072 140.981 285.434 140.659 285.737C140.342 286.036 139.958 286.185 139.509 286.185ZM148.409 298.713C147.287 298.713 146.321 298.486 145.512 298.031C144.707 297.572 144.087 296.923 143.651 296.085C143.215 295.242 142.998 294.246 142.998 293.095C142.998 291.973 143.215 290.988 143.651 290.141C144.087 289.293 144.7 288.633 145.49 288.159C146.286 287.686 147.219 287.449 148.289 287.449C149.008 287.449 149.678 287.565 150.299 287.797C150.924 288.024 151.468 288.367 151.932 288.827C152.401 289.286 152.766 289.864 153.026 290.56C153.286 291.251 153.417 292.061 153.417 292.989V293.82H144.205V291.945H150.569C150.569 291.509 150.474 291.123 150.284 290.787C150.095 290.451 149.832 290.188 149.496 289.999C149.165 289.804 148.779 289.707 148.338 289.707C147.879 289.707 147.472 289.814 147.117 290.027C146.766 290.235 146.492 290.517 146.293 290.872C146.094 291.223 145.992 291.613 145.988 292.044V293.827C145.988 294.366 146.087 294.833 146.286 295.226C146.489 295.619 146.776 295.922 147.145 296.135C147.515 296.348 147.953 296.455 148.459 296.455C148.795 296.455 149.103 296.407 149.382 296.312C149.662 296.218 149.901 296.076 150.1 295.886C150.299 295.697 150.45 295.465 150.554 295.19L153.353 295.375C153.211 296.047 152.919 296.634 152.479 297.136C152.043 297.634 151.48 298.022 150.789 298.301C150.102 298.576 149.309 298.713 148.409 298.713ZM158.417 292.193V298.5H155.391V287.591H158.275V289.516H158.402C158.644 288.881 159.049 288.379 159.617 288.01C160.185 287.636 160.874 287.449 161.684 287.449C162.441 287.449 163.102 287.615 163.665 287.946C164.229 288.277 164.667 288.751 164.979 289.366C165.292 289.977 165.448 290.706 165.448 291.554V298.5H162.422V292.094C162.427 291.426 162.257 290.905 161.911 290.531C161.565 290.152 161.089 289.963 160.483 289.963C160.076 289.963 159.716 290.051 159.404 290.226C159.096 290.401 158.855 290.657 158.679 290.993C158.509 291.324 158.421 291.724 158.417 292.193ZM172.761 298.713C171.644 298.713 170.683 298.476 169.878 298.003C169.078 297.525 168.462 296.862 168.031 296.014C167.605 295.167 167.392 294.191 167.392 293.088C167.392 291.971 167.607 290.991 168.038 290.148C168.474 289.3 169.092 288.64 169.892 288.166C170.692 287.688 171.644 287.449 172.747 287.449C173.699 287.449 174.532 287.622 175.247 287.967C175.962 288.313 176.528 288.798 176.945 289.423C177.361 290.048 177.591 290.782 177.634 291.625H174.778C174.698 291.08 174.485 290.643 174.139 290.311C173.798 289.975 173.351 289.807 172.797 289.807C172.328 289.807 171.919 289.935 171.568 290.19C171.223 290.441 170.953 290.808 170.759 291.291C170.564 291.774 170.467 292.359 170.467 293.045C170.467 293.741 170.562 294.333 170.751 294.821C170.946 295.309 171.218 295.68 171.568 295.936C171.919 296.192 172.328 296.32 172.797 296.32C173.143 296.32 173.453 296.249 173.727 296.107C174.007 295.964 174.236 295.759 174.416 295.489C174.601 295.214 174.722 294.885 174.778 294.501H177.634C177.586 295.335 177.359 296.069 176.952 296.703C176.549 297.333 175.993 297.825 175.283 298.18C174.572 298.536 173.732 298.713 172.761 298.713ZM181.439 302.591C181.055 302.591 180.695 302.56 180.359 302.499C180.028 302.442 179.753 302.368 179.535 302.278L180.217 300.02C180.572 300.129 180.892 300.188 181.176 300.197C181.465 300.207 181.713 300.141 181.922 299.999C182.135 299.857 182.307 299.615 182.44 299.274L182.618 298.812L178.704 287.591H181.886L184.145 295.602H184.258L186.538 287.591H189.741L185.501 299.679C185.297 300.266 185.02 300.777 184.67 301.213C184.324 301.653 183.886 301.992 183.356 302.229C182.826 302.47 182.187 302.591 181.439 302.591Z" fill="#80040B"/>
<path d="M39.1567 322.5V314.5H42.0083C42.6281 314.5 43.1424 314.607 43.5513 314.82C43.9627 315.034 44.27 315.329 44.4731 315.707C44.6763 316.082 44.7778 316.516 44.7778 317.008C44.7778 317.497 44.675 317.928 44.4692 318.301C44.2661 318.671 43.9588 318.958 43.5474 319.164C43.1385 319.37 42.6242 319.473 42.0044 319.473H39.8442V318.434H41.895C42.2856 318.434 42.6034 318.378 42.8481 318.266C43.0955 318.154 43.2765 317.991 43.3911 317.777C43.5057 317.564 43.563 317.307 43.563 317.008C43.563 316.706 43.5044 316.444 43.3872 316.223C43.2726 316.001 43.0916 315.832 42.8442 315.715C42.5994 315.595 42.2778 315.535 41.8794 315.535H40.3638V322.5H39.1567ZM43.106 318.891L45.0825 322.5H43.7075L41.77 318.891H43.106ZM48.6636 322.621C48.0724 322.621 47.5633 322.495 47.1362 322.242C46.7118 321.987 46.3836 321.629 46.1519 321.168C45.9227 320.704 45.8081 320.161 45.8081 319.539C45.8081 318.924 45.9227 318.383 46.1519 317.914C46.3836 317.445 46.7065 317.079 47.1206 316.816C47.5373 316.553 48.0243 316.422 48.5815 316.422C48.9201 316.422 49.2482 316.478 49.5659 316.59C49.8836 316.702 50.1688 316.878 50.4214 317.117C50.674 317.357 50.8732 317.668 51.019 318.051C51.1649 318.431 51.2378 318.893 51.2378 319.437V319.852H46.4683V318.977H50.0933C50.0933 318.669 50.0308 318.397 49.9058 318.16C49.7808 317.921 49.605 317.732 49.3784 317.594C49.1545 317.456 48.8914 317.387 48.5894 317.387C48.2612 317.387 47.9748 317.467 47.73 317.629C47.4878 317.788 47.3003 317.996 47.1675 318.254C47.0373 318.509 46.9722 318.786 46.9722 319.086V319.77C46.9722 320.171 47.0425 320.512 47.1831 320.793C47.3263 321.074 47.5256 321.289 47.7808 321.437C48.036 321.583 48.3341 321.656 48.6753 321.656C48.8966 321.656 49.0985 321.625 49.2808 321.562C49.4631 321.497 49.6206 321.401 49.7534 321.273C49.8862 321.146 49.9878 320.988 50.0581 320.801L51.1636 321C51.075 321.326 50.9162 321.611 50.687 321.855C50.4604 322.098 50.1753 322.286 49.8315 322.422C49.4904 322.555 49.1011 322.621 48.6636 322.621ZM55.061 322.621C54.4803 322.621 53.9803 322.49 53.561 322.227C53.1444 321.961 52.8241 321.595 52.6001 321.129C52.3761 320.663 52.2642 320.129 52.2642 319.527C52.2642 318.918 52.3787 318.38 52.6079 317.914C52.8371 317.445 53.16 317.079 53.5767 316.816C53.9933 316.553 54.4842 316.422 55.0493 316.422C55.505 316.422 55.9113 316.507 56.2681 316.676C56.6248 316.842 56.9126 317.077 57.1313 317.379C57.3527 317.681 57.4842 318.034 57.5259 318.437H56.3892C56.3267 318.156 56.1834 317.914 55.9595 317.711C55.7381 317.508 55.4412 317.406 55.0688 317.406C54.7433 317.406 54.4582 317.492 54.2134 317.664C53.9712 317.833 53.7824 318.076 53.647 318.391C53.5116 318.703 53.4438 319.073 53.4438 319.5C53.4438 319.937 53.5103 320.315 53.6431 320.633C53.7759 320.951 53.9634 321.197 54.2056 321.371C54.4504 321.546 54.7381 321.633 55.0688 321.633C55.2902 321.633 55.4907 321.592 55.6704 321.512C55.8527 321.428 56.005 321.31 56.1274 321.156C56.2524 321.003 56.3397 320.818 56.3892 320.602H57.5259C57.4842 320.99 57.3579 321.336 57.147 321.641C56.936 321.945 56.6535 322.185 56.2993 322.359C55.9478 322.534 55.535 322.621 55.061 322.621ZM59.9429 314.5V322.5H58.7749V314.5H59.9429ZM63.2603 322.633C62.88 322.633 62.5363 322.563 62.229 322.422C61.9217 322.279 61.6782 322.072 61.4985 321.801C61.3215 321.53 61.2329 321.198 61.2329 320.805C61.2329 320.466 61.298 320.187 61.4282 319.969C61.5584 319.75 61.7342 319.577 61.9556 319.449C62.1769 319.322 62.4243 319.225 62.6978 319.16C62.9712 319.095 63.2498 319.046 63.5337 319.012C63.8931 318.97 64.1847 318.936 64.4087 318.91C64.6326 318.882 64.7954 318.836 64.897 318.773C64.9985 318.711 65.0493 318.609 65.0493 318.469V318.441C65.0493 318.1 64.953 317.836 64.7603 317.648C64.5701 317.461 64.2863 317.367 63.9087 317.367C63.5155 317.367 63.2056 317.454 62.979 317.629C62.755 317.801 62.6001 317.992 62.5142 318.203L61.4165 317.953C61.5467 317.589 61.7368 317.294 61.9868 317.07C62.2394 316.844 62.5298 316.68 62.8579 316.578C63.186 316.474 63.5311 316.422 63.8931 316.422C64.1326 316.422 64.3866 316.451 64.6548 316.508C64.9256 316.562 65.1782 316.664 65.4126 316.812C65.6496 316.961 65.8436 317.173 65.9946 317.449C66.1457 317.723 66.2212 318.078 66.2212 318.516V322.5H65.0806V321.68H65.0337C64.9582 321.831 64.8449 321.979 64.6938 322.125C64.5428 322.271 64.3488 322.392 64.1118 322.488C63.8748 322.585 63.591 322.633 63.2603 322.633ZM63.5142 321.695C63.8371 321.695 64.1131 321.632 64.3423 321.504C64.5741 321.376 64.7498 321.21 64.8696 321.004C64.992 320.796 65.0532 320.573 65.0532 320.336V319.562C65.0116 319.604 64.9308 319.643 64.811 319.68C64.6938 319.714 64.5597 319.743 64.4087 319.77C64.2576 319.793 64.1105 319.815 63.9673 319.836C63.8241 319.854 63.7043 319.87 63.6079 319.883C63.3813 319.911 63.1743 319.96 62.9868 320.027C62.8019 320.095 62.6535 320.193 62.5415 320.32C62.4321 320.445 62.3774 320.612 62.3774 320.82C62.3774 321.109 62.4842 321.328 62.6978 321.477C62.9113 321.622 63.1834 321.695 63.5142 321.695ZM67.7769 322.5V316.5H68.9448V322.5H67.7769ZM68.3667 315.574C68.1636 315.574 67.9891 315.507 67.8433 315.371C67.7 315.233 67.6284 315.069 67.6284 314.879C67.6284 314.686 67.7 314.522 67.8433 314.387C67.9891 314.249 68.1636 314.18 68.3667 314.18C68.5698 314.18 68.743 314.249 68.8862 314.387C69.0321 314.522 69.105 314.686 69.105 314.879C69.105 315.069 69.0321 315.233 68.8862 315.371C68.743 315.507 68.5698 315.574 68.3667 315.574ZM70.5161 322.5V316.5H71.6372V317.477H71.7114C71.8364 317.146 72.0409 316.888 72.3247 316.703C72.6086 316.516 72.9484 316.422 73.3442 316.422C73.7453 316.422 74.0812 316.516 74.3521 316.703C74.6255 316.891 74.8273 317.148 74.9575 317.477H75.02C75.1632 317.156 75.3911 316.901 75.7036 316.711C76.0161 316.518 76.3885 316.422 76.8208 316.422C77.3651 316.422 77.8091 316.592 78.1528 316.934C78.4992 317.275 78.6724 317.789 78.6724 318.477V322.5H77.5044V318.586C77.5044 318.18 77.3937 317.885 77.1724 317.703C76.951 317.521 76.6867 317.43 76.3794 317.43C75.9992 317.43 75.7036 317.547 75.4927 317.781C75.2817 318.013 75.1763 318.311 75.1763 318.676V322.5H74.0122V318.512C74.0122 318.186 73.9106 317.924 73.7075 317.727C73.5044 317.529 73.2401 317.43 72.9146 317.43C72.6932 317.43 72.4888 317.488 72.3013 317.605C72.1164 317.72 71.9666 317.88 71.8521 318.086C71.7401 318.292 71.6841 318.53 71.6841 318.801V322.5H70.5161ZM83.8872 324.75C83.7127 324.75 83.5539 324.736 83.4106 324.707C83.2674 324.681 83.1606 324.652 83.0903 324.621L83.3716 323.664C83.5851 323.721 83.7752 323.746 83.9419 323.738C84.1086 323.73 84.2557 323.668 84.3833 323.551C84.5135 323.434 84.6281 323.242 84.7271 322.977L84.8716 322.578L82.6763 316.5H83.9263L85.4458 321.156H85.5083L87.0278 316.5H88.2817L85.8091 323.301C85.6945 323.613 85.5487 323.878 85.3716 324.094C85.1945 324.313 84.9836 324.477 84.7388 324.586C84.494 324.695 84.2101 324.75 83.8872 324.75ZM91.7026 322.621C91.1401 322.621 90.6493 322.492 90.23 322.234C89.8107 321.977 89.4852 321.616 89.2534 321.152C89.0216 320.689 88.9058 320.147 88.9058 319.527C88.9058 318.905 89.0216 318.361 89.2534 317.895C89.4852 317.428 89.8107 317.066 90.23 316.809C90.6493 316.551 91.1401 316.422 91.7026 316.422C92.2651 316.422 92.756 316.551 93.1753 316.809C93.5946 317.066 93.9201 317.428 94.1519 317.895C94.3836 318.361 94.4995 318.905 94.4995 319.527C94.4995 320.147 94.3836 320.689 94.1519 321.152C93.9201 321.616 93.5946 321.977 93.1753 322.234C92.756 322.492 92.2651 322.621 91.7026 322.621ZM91.7065 321.641C92.0711 321.641 92.3732 321.544 92.6128 321.352C92.8524 321.159 93.0295 320.902 93.144 320.582C93.2612 320.262 93.3198 319.909 93.3198 319.523C93.3198 319.141 93.2612 318.789 93.144 318.469C93.0295 318.146 92.8524 317.887 92.6128 317.691C92.3732 317.496 92.0711 317.398 91.7065 317.398C91.3394 317.398 91.0347 317.496 90.7925 317.691C90.5529 317.887 90.3745 318.146 90.2573 318.469C90.1427 318.789 90.0854 319.141 90.0854 319.523C90.0854 319.909 90.1427 320.262 90.2573 320.582C90.3745 320.902 90.5529 321.159 90.7925 321.352C91.0347 321.544 91.3394 321.641 91.7065 321.641ZM99.604 320.012V316.5H100.776V322.5H99.6274V321.461H99.5649C99.4269 321.781 99.2056 322.048 98.9009 322.262C98.5988 322.473 98.2225 322.578 97.772 322.578C97.3866 322.578 97.0454 322.493 96.7485 322.324C96.4543 322.152 96.2225 321.898 96.0532 321.562C95.8866 321.227 95.8032 320.811 95.8032 320.316V316.5H96.9712V320.176C96.9712 320.585 97.0845 320.91 97.311 321.152C97.5376 321.395 97.8319 321.516 98.1938 321.516C98.4126 321.516 98.63 321.461 98.8462 321.352C99.0649 321.242 99.2459 321.077 99.3892 320.855C99.535 320.634 99.6066 320.353 99.604 320.012ZM102.345 322.5V316.5H103.474V317.453H103.537C103.646 317.13 103.839 316.876 104.115 316.691C104.393 316.504 104.708 316.41 105.06 316.41C105.133 316.41 105.219 316.413 105.318 316.418C105.419 316.423 105.499 316.43 105.556 316.437V317.555C105.509 317.542 105.426 317.527 105.306 317.512C105.186 317.493 105.067 317.484 104.947 317.484C104.671 317.484 104.425 317.543 104.208 317.66C103.995 317.775 103.826 317.935 103.701 318.141C103.576 318.344 103.513 318.576 103.513 318.836V322.5H102.345ZM112.279 316.5V317.437H109.001V316.5H112.279ZM109.88 315.062H111.048V320.738C111.048 320.965 111.082 321.135 111.15 321.25C111.218 321.362 111.305 321.439 111.412 321.48C111.521 321.52 111.639 321.539 111.767 321.539C111.861 321.539 111.943 321.533 112.013 321.52C112.083 321.507 112.138 321.496 112.177 321.488L112.388 322.453C112.32 322.479 112.224 322.505 112.099 322.531C111.974 322.56 111.818 322.576 111.63 322.578C111.323 322.583 111.037 322.529 110.771 322.414C110.505 322.299 110.291 322.122 110.126 321.883C109.962 321.643 109.88 321.342 109.88 320.98V315.062ZM113.571 322.5V316.5H114.739V322.5H113.571ZM114.161 315.574C113.958 315.574 113.783 315.507 113.637 315.371C113.494 315.233 113.422 315.069 113.422 314.879C113.422 314.686 113.494 314.522 113.637 314.387C113.783 314.249 113.958 314.18 114.161 314.18C114.364 314.18 114.537 314.249 114.68 314.387C114.826 314.522 114.899 314.686 114.899 314.879C114.899 315.069 114.826 315.233 114.68 315.371C114.537 315.507 114.364 315.574 114.161 315.574ZM116.31 322.5V316.5H117.431V317.477H117.505C117.63 317.146 117.835 316.888 118.119 316.703C118.403 316.516 118.742 316.422 119.138 316.422C119.539 316.422 119.875 316.516 120.146 316.703C120.419 316.891 120.621 317.148 120.751 317.477H120.814C120.957 317.156 121.185 316.901 121.498 316.711C121.81 316.518 122.182 316.422 122.615 316.422C123.159 316.422 123.603 316.592 123.947 316.934C124.293 317.275 124.466 317.789 124.466 318.477V322.5H123.298V318.586C123.298 318.18 123.188 317.885 122.966 317.703C122.745 317.521 122.481 317.43 122.173 317.43C121.793 317.43 121.498 317.547 121.287 317.781C121.076 318.013 120.97 318.311 120.97 318.676V322.5H119.806V318.512C119.806 318.186 119.705 317.924 119.501 317.727C119.298 317.529 119.034 317.43 118.708 317.43C118.487 317.43 118.283 317.488 118.095 317.605C117.91 317.72 117.761 317.88 117.646 318.086C117.534 318.292 117.478 318.53 117.478 318.801V322.5H116.31ZM128.618 322.621C128.027 322.621 127.517 322.495 127.09 322.242C126.666 321.987 126.338 321.629 126.106 321.168C125.877 320.704 125.762 320.161 125.762 319.539C125.762 318.924 125.877 318.383 126.106 317.914C126.338 317.445 126.661 317.079 127.075 316.816C127.491 316.553 127.978 316.422 128.536 316.422C128.874 316.422 129.202 316.478 129.52 316.59C129.838 316.702 130.123 316.878 130.375 317.117C130.628 317.357 130.827 317.668 130.973 318.051C131.119 318.431 131.192 318.893 131.192 319.437V319.852H126.422V318.977H130.047C130.047 318.669 129.985 318.397 129.86 318.16C129.735 317.921 129.559 317.732 129.333 317.594C129.109 317.456 128.846 317.387 128.543 317.387C128.215 317.387 127.929 317.467 127.684 317.629C127.442 317.788 127.254 317.996 127.122 318.254C126.991 318.509 126.926 318.786 126.926 319.086V319.77C126.926 320.171 126.997 320.512 127.137 320.793C127.28 321.074 127.48 321.289 127.735 321.437C127.99 321.583 128.288 321.656 128.629 321.656C128.851 321.656 129.053 321.625 129.235 321.562C129.417 321.497 129.575 321.401 129.708 321.273C129.84 321.146 129.942 320.988 130.012 320.801L131.118 321C131.029 321.326 130.87 321.611 130.641 321.855C130.415 322.098 130.129 322.286 129.786 322.422C129.444 322.555 129.055 322.621 128.618 322.621ZM133.257 322.574C133.044 322.574 132.86 322.499 132.707 322.348C132.553 322.194 132.476 322.009 132.476 321.793C132.476 321.579 132.553 321.397 132.707 321.246C132.86 321.092 133.044 321.016 133.257 321.016C133.471 321.016 133.654 321.092 133.808 321.246C133.962 321.397 134.039 321.579 134.039 321.793C134.039 321.936 134.002 322.068 133.929 322.187C133.859 322.305 133.765 322.398 133.648 322.469C133.531 322.539 133.401 322.574 133.257 322.574ZM138.479 322.5V314.5H141.331C141.953 314.5 142.469 314.613 142.877 314.84C143.286 315.066 143.592 315.376 143.795 315.77C143.999 316.16 144.1 316.6 144.1 317.09C144.1 317.582 143.997 318.025 143.792 318.418C143.588 318.809 143.281 319.118 142.87 319.348C142.461 319.574 141.946 319.688 141.327 319.688H139.366V318.664H141.217C141.611 318.664 141.93 318.596 142.174 318.461C142.419 318.323 142.599 318.135 142.713 317.898C142.828 317.661 142.885 317.392 142.885 317.09C142.885 316.788 142.828 316.52 142.713 316.285C142.599 316.051 142.418 315.867 142.17 315.734C141.926 315.602 141.603 315.535 141.202 315.535H139.686V322.5H138.479ZM147.114 322.633C146.734 322.633 146.39 322.563 146.083 322.422C145.775 322.279 145.532 322.072 145.352 321.801C145.175 321.53 145.086 321.198 145.086 320.805C145.086 320.466 145.152 320.187 145.282 319.969C145.412 319.75 145.588 319.577 145.809 319.449C146.03 319.322 146.278 319.225 146.551 319.16C146.825 319.095 147.103 319.046 147.387 319.012C147.747 318.97 148.038 318.936 148.262 318.91C148.486 318.882 148.649 318.836 148.75 318.773C148.852 318.711 148.903 318.609 148.903 318.469V318.441C148.903 318.1 148.806 317.836 148.614 317.648C148.424 317.461 148.14 317.367 147.762 317.367C147.369 317.367 147.059 317.454 146.833 317.629C146.609 317.801 146.454 317.992 146.368 318.203L145.27 317.953C145.4 317.589 145.59 317.294 145.84 317.07C146.093 316.844 146.383 316.68 146.711 316.578C147.04 316.474 147.385 316.422 147.747 316.422C147.986 316.422 148.24 316.451 148.508 316.508C148.779 316.562 149.032 316.664 149.266 316.812C149.503 316.961 149.697 317.173 149.848 317.449C149.999 317.723 150.075 318.078 150.075 318.516V322.5H148.934V321.68H148.887C148.812 321.831 148.698 321.979 148.547 322.125C148.396 322.271 148.202 322.392 147.965 322.488C147.728 322.585 147.444 322.633 147.114 322.633ZM147.368 321.695C147.691 321.695 147.967 321.632 148.196 321.504C148.428 321.376 148.603 321.21 148.723 321.004C148.846 320.796 148.907 320.573 148.907 320.336V319.562C148.865 319.604 148.784 319.643 148.665 319.68C148.547 319.714 148.413 319.743 148.262 319.77C148.111 319.793 147.964 319.815 147.821 319.836C147.678 319.854 147.558 319.87 147.461 319.883C147.235 319.911 147.028 319.96 146.84 320.027C146.655 320.095 146.507 320.193 146.395 320.32C146.286 320.445 146.231 320.612 146.231 320.82C146.231 321.109 146.338 321.328 146.551 321.477C146.765 321.622 147.037 321.695 147.368 321.695ZM152.154 324.75C151.979 324.75 151.82 324.736 151.677 324.707C151.534 324.681 151.427 324.652 151.357 324.621L151.638 323.664C151.852 323.721 152.042 323.746 152.208 323.738C152.375 323.73 152.522 323.668 152.65 323.551C152.78 323.434 152.895 323.242 152.994 322.977L153.138 322.578L150.943 316.5H152.193L153.712 321.156H153.775L155.294 316.5H156.548L154.076 323.301C153.961 323.613 153.815 323.878 153.638 324.094C153.461 324.313 153.25 324.477 153.005 324.586C152.761 324.695 152.477 324.75 152.154 324.75ZM160.651 322.5V314.5H161.819V317.473H161.889C161.957 317.348 162.055 317.203 162.182 317.039C162.31 316.875 162.487 316.732 162.713 316.609C162.94 316.484 163.239 316.422 163.612 316.422C164.096 316.422 164.528 316.544 164.909 316.789C165.289 317.034 165.587 317.387 165.803 317.848C166.022 318.309 166.131 318.863 166.131 319.512C166.131 320.16 166.023 320.716 165.807 321.18C165.591 321.641 165.294 321.996 164.917 322.246C164.539 322.493 164.108 322.617 163.624 322.617C163.259 322.617 162.961 322.556 162.729 322.434C162.5 322.311 162.32 322.168 162.19 322.004C162.06 321.84 161.959 321.694 161.889 321.566H161.792V322.5H160.651ZM161.795 319.5C161.795 319.922 161.857 320.292 161.979 320.609C162.101 320.927 162.278 321.176 162.51 321.355C162.742 321.533 163.026 321.621 163.362 321.621C163.711 321.621 164.002 321.529 164.237 321.344C164.471 321.156 164.648 320.902 164.768 320.582C164.89 320.262 164.952 319.901 164.952 319.5C164.952 319.104 164.892 318.749 164.772 318.434C164.655 318.118 164.478 317.87 164.241 317.688C164.006 317.505 163.713 317.414 163.362 317.414C163.023 317.414 162.737 317.501 162.502 317.676C162.271 317.85 162.095 318.094 161.975 318.406C161.855 318.719 161.795 319.083 161.795 319.5ZM167.443 322.5V316.5H168.611V322.5H167.443ZM168.033 315.574C167.83 315.574 167.655 315.507 167.509 315.371C167.366 315.233 167.294 315.069 167.294 314.879C167.294 314.686 167.366 314.522 167.509 314.387C167.655 314.249 167.83 314.18 168.033 314.18C168.236 314.18 168.409 314.249 168.552 314.387C168.698 314.522 168.771 314.686 168.771 314.879C168.771 315.069 168.698 315.233 168.552 315.371C168.409 315.507 168.236 315.574 168.033 315.574ZM171.35 314.5V322.5H170.182V314.5H171.35ZM174.089 314.5V322.5H172.921V314.5H174.089ZM180.157 317.965L179.098 318.152C179.054 318.017 178.984 317.888 178.887 317.766C178.793 317.643 178.666 317.543 178.504 317.465C178.343 317.387 178.141 317.348 177.899 317.348C177.568 317.348 177.292 317.422 177.071 317.57C176.849 317.716 176.739 317.905 176.739 318.137C176.739 318.337 176.813 318.499 176.961 318.621C177.11 318.743 177.349 318.844 177.68 318.922L178.633 319.141C179.185 319.268 179.597 319.465 179.868 319.73C180.139 319.996 180.274 320.341 180.274 320.766C180.274 321.125 180.17 321.445 179.961 321.727C179.756 322.005 179.468 322.224 179.098 322.383C178.731 322.542 178.305 322.621 177.821 322.621C177.149 322.621 176.601 322.478 176.176 322.191C175.752 321.902 175.491 321.492 175.395 320.961L176.524 320.789C176.594 321.083 176.739 321.306 176.958 321.457C177.176 321.605 177.461 321.68 177.813 321.68C178.196 321.68 178.502 321.6 178.731 321.441C178.96 321.28 179.075 321.083 179.075 320.852C179.075 320.664 179.004 320.507 178.864 320.379C178.726 320.251 178.514 320.155 178.227 320.09L177.211 319.867C176.652 319.74 176.237 319.536 175.969 319.258C175.704 318.979 175.571 318.626 175.571 318.199C175.571 317.845 175.67 317.535 175.868 317.27C176.066 317.004 176.339 316.797 176.688 316.648C177.037 316.497 177.437 316.422 177.887 316.422C178.536 316.422 179.046 316.562 179.418 316.844C179.791 317.122 180.037 317.496 180.157 317.965ZM188.52 324.75V321.566H188.45C188.379 321.694 188.278 321.84 188.145 322.004C188.015 322.168 187.835 322.311 187.606 322.434C187.377 322.556 187.08 322.617 186.715 322.617C186.231 322.617 185.799 322.493 185.418 322.246C185.041 321.996 184.744 321.641 184.528 321.18C184.314 320.716 184.208 320.16 184.208 319.512C184.208 318.863 184.316 318.309 184.532 317.848C184.75 317.387 185.05 317.034 185.43 316.789C185.81 316.544 186.241 316.422 186.723 316.422C187.096 316.422 187.395 316.484 187.622 316.609C187.851 316.732 188.028 316.875 188.153 317.039C188.28 317.203 188.379 317.348 188.45 317.473H188.547V316.5H189.688V324.75H188.52ZM186.973 321.621C187.309 321.621 187.593 321.533 187.825 321.355C188.059 321.176 188.236 320.927 188.356 320.609C188.478 320.292 188.54 319.922 188.54 319.5C188.54 319.083 188.48 318.719 188.36 318.406C188.24 318.094 188.064 317.85 187.833 317.676C187.601 317.501 187.314 317.414 186.973 317.414C186.622 317.414 186.329 317.505 186.094 317.688C185.86 317.87 185.683 318.118 185.563 318.434C185.446 318.749 185.387 319.104 185.387 319.5C185.387 319.901 185.447 320.262 185.567 320.582C185.687 320.902 185.864 321.156 186.098 321.344C186.335 321.529 186.627 321.621 186.973 321.621ZM195.059 320.012V316.5H196.231V322.5H195.083V321.461H195.02C194.882 321.781 194.661 322.048 194.356 322.262C194.054 322.473 193.678 322.578 193.227 322.578C192.842 322.578 192.5 322.493 192.204 322.324C191.909 322.152 191.678 321.898 191.508 321.562C191.342 321.227 191.258 320.811 191.258 320.316V316.5H192.426V320.176C192.426 320.585 192.54 320.91 192.766 321.152C192.993 321.395 193.287 321.516 193.649 321.516C193.868 321.516 194.085 321.461 194.301 321.352C194.52 321.242 194.701 321.077 194.844 320.855C194.99 320.634 195.062 320.353 195.059 320.012ZM197.8 322.5V316.5H198.968V322.5H197.8ZM198.39 315.574C198.187 315.574 198.013 315.507 197.867 315.371C197.723 315.233 197.652 315.069 197.652 314.879C197.652 314.686 197.723 314.522 197.867 314.387C198.013 314.249 198.187 314.18 198.39 314.18C198.593 314.18 198.766 314.249 198.91 314.387C199.056 314.522 199.128 314.686 199.128 314.879C199.128 315.069 199.056 315.233 198.91 315.371C198.766 315.507 198.593 315.574 198.39 315.574ZM203.067 322.621C202.486 322.621 201.986 322.49 201.567 322.227C201.15 321.961 200.83 321.595 200.606 321.129C200.382 320.663 200.27 320.129 200.27 319.527C200.27 318.918 200.385 318.38 200.614 317.914C200.843 317.445 201.166 317.079 201.583 316.816C201.999 316.553 202.49 316.422 203.055 316.422C203.511 316.422 203.917 316.507 204.274 316.676C204.631 316.842 204.918 317.077 205.137 317.379C205.359 317.681 205.49 318.034 205.532 318.437H204.395C204.333 318.156 204.189 317.914 203.965 317.711C203.744 317.508 203.447 317.406 203.075 317.406C202.749 317.406 202.464 317.492 202.219 317.664C201.977 317.833 201.788 318.076 201.653 318.391C201.517 318.703 201.45 319.073 201.45 319.5C201.45 319.937 201.516 320.315 201.649 320.633C201.782 320.951 201.969 321.197 202.211 321.371C202.456 321.546 202.744 321.633 203.075 321.633C203.296 321.633 203.497 321.592 203.676 321.512C203.859 321.428 204.011 321.31 204.133 321.156C204.258 321.003 204.346 320.818 204.395 320.602H205.532C205.49 320.99 205.364 321.336 205.153 321.641C204.942 321.945 204.659 322.185 204.305 322.359C203.954 322.534 203.541 322.621 203.067 322.621ZM207.855 320.465L207.847 319.039H208.05L210.441 316.5H211.839L209.113 319.391H208.929L207.855 320.465ZM206.781 322.5V314.5H207.949V322.5H206.781ZM210.57 322.5L208.421 319.648L209.226 318.832L212.003 322.5H210.57ZM214.072 314.5V322.5H212.904V314.5H214.072ZM216.381 324.75C216.207 324.75 216.048 324.736 215.905 324.707C215.762 324.681 215.655 324.652 215.584 324.621L215.866 323.664C216.079 323.721 216.269 323.746 216.436 323.738C216.603 323.73 216.75 323.668 216.877 323.551C217.008 323.434 217.122 323.242 217.221 322.977L217.366 322.578L215.17 316.5H216.42L217.94 321.156H218.002L219.522 316.5H220.776L218.303 323.301C218.189 323.613 218.043 323.878 217.866 324.094C217.689 324.313 217.478 324.477 217.233 324.586C216.988 324.695 216.704 324.75 216.381 324.75ZM226.531 322.633C226.151 322.633 225.807 322.563 225.5 322.422C225.192 322.279 224.949 322.072 224.769 321.801C224.592 321.53 224.503 321.198 224.503 320.805C224.503 320.466 224.569 320.187 224.699 319.969C224.829 319.75 225.005 319.577 225.226 319.449C225.447 319.322 225.695 319.225 225.968 319.16C226.242 319.095 226.52 319.046 226.804 319.012C227.164 318.97 227.455 318.936 227.679 318.91C227.903 318.882 228.066 318.836 228.167 318.773C228.269 318.711 228.32 318.609 228.32 318.469V318.441C228.32 318.1 228.223 317.836 228.031 317.648C227.841 317.461 227.557 317.367 227.179 317.367C226.786 317.367 226.476 317.454 226.25 317.629C226.026 317.801 225.871 317.992 225.785 318.203L224.687 317.953C224.817 317.589 225.007 317.294 225.257 317.07C225.51 316.844 225.8 316.68 226.128 316.578C226.457 316.474 226.802 316.422 227.164 316.422C227.403 316.422 227.657 316.451 227.925 316.508C228.196 316.562 228.449 316.664 228.683 316.812C228.92 316.961 229.114 317.173 229.265 317.449C229.416 317.723 229.492 318.078 229.492 318.516V322.5H228.351V321.68H228.304C228.229 321.831 228.115 321.979 227.964 322.125C227.813 322.271 227.619 322.392 227.382 322.488C227.145 322.585 226.861 322.633 226.531 322.633ZM226.785 321.695C227.108 321.695 227.384 321.632 227.613 321.504C227.845 321.376 228.02 321.21 228.14 321.004C228.263 320.796 228.324 320.573 228.324 320.336V319.562C228.282 319.604 228.201 319.643 228.082 319.68C227.964 319.714 227.83 319.743 227.679 319.77C227.528 319.793 227.381 319.815 227.238 319.836C227.095 319.854 226.975 319.87 226.878 319.883C226.652 319.911 226.445 319.96 226.257 320.027C226.072 320.095 225.924 320.193 225.812 320.32C225.703 320.445 225.648 320.612 225.648 320.82C225.648 321.109 225.755 321.328 225.968 321.477C226.182 321.622 226.454 321.695 226.785 321.695ZM232.215 318.937V322.5H231.047V316.5H232.168V317.477H232.243C232.381 317.159 232.597 316.904 232.891 316.711C233.188 316.518 233.562 316.422 234.012 316.422C234.421 316.422 234.779 316.508 235.086 316.68C235.394 316.849 235.632 317.102 235.801 317.437C235.971 317.773 236.055 318.189 236.055 318.684V322.5H234.887V318.824C234.887 318.389 234.774 318.049 234.547 317.805C234.321 317.557 234.01 317.434 233.614 317.434C233.343 317.434 233.102 317.492 232.891 317.609C232.683 317.727 232.517 317.898 232.395 318.125C232.275 318.349 232.215 318.62 232.215 318.937ZM239.868 322.617C239.383 322.617 238.951 322.493 238.571 322.246C238.193 321.996 237.896 321.641 237.68 321.18C237.467 320.716 237.36 320.16 237.36 319.512C237.36 318.863 237.468 318.309 237.684 317.848C237.903 317.387 238.202 317.034 238.583 316.789C238.963 316.544 239.394 316.422 239.875 316.422C240.248 316.422 240.547 316.484 240.774 316.609C241.003 316.732 241.18 316.875 241.305 317.039C241.433 317.203 241.532 317.348 241.602 317.473H241.672V314.5H242.84V322.5H241.7V321.566H241.602C241.532 321.694 241.43 321.84 241.297 322.004C241.167 322.168 240.987 322.311 240.758 322.434C240.529 322.556 240.232 322.617 239.868 322.617ZM240.125 321.621C240.461 321.621 240.745 321.533 240.977 321.355C241.211 321.176 241.389 320.927 241.508 320.609C241.631 320.292 241.692 319.922 241.692 319.5C241.692 319.083 241.632 318.719 241.512 318.406C241.392 318.094 241.217 317.85 240.985 317.676C240.753 317.501 240.467 317.414 240.125 317.414C239.774 317.414 239.481 317.505 239.247 317.688C239.012 317.87 238.835 318.118 238.715 318.434C238.598 318.749 238.54 319.104 238.54 319.5C238.54 319.901 238.599 320.262 238.719 320.582C238.839 320.902 239.016 321.156 239.25 321.344C239.487 321.529 239.779 321.621 240.125 321.621ZM76.0132 335.621C75.422 335.621 74.9129 335.495 74.4858 335.242C74.0614 334.987 73.7332 334.629 73.5015 334.168C73.2723 333.704 73.1577 333.161 73.1577 332.539C73.1577 331.924 73.2723 331.383 73.5015 330.914C73.7332 330.445 74.0562 330.079 74.4702 329.816C74.8869 329.553 75.3739 329.422 75.9312 329.422C76.2697 329.422 76.5978 329.478 76.9155 329.59C77.2332 329.702 77.5184 329.878 77.771 330.117C78.0236 330.357 78.2228 330.668 78.3687 331.051C78.5145 331.431 78.5874 331.893 78.5874 332.437V332.852H73.8179V331.977H77.4429C77.4429 331.669 77.3804 331.397 77.2554 331.16C77.1304 330.921 76.9546 330.732 76.728 330.594C76.5041 330.456 76.241 330.387 75.939 330.387C75.6108 330.387 75.3244 330.467 75.0796 330.629C74.8374 330.788 74.6499 330.996 74.5171 331.254C74.3869 331.509 74.3218 331.786 74.3218 332.086V332.77C74.3218 333.171 74.3921 333.512 74.5327 333.793C74.6759 334.074 74.8752 334.289 75.1304 334.437C75.3856 334.583 75.6838 334.656 76.0249 334.656C76.2463 334.656 76.4481 334.625 76.6304 334.562C76.8127 334.497 76.9702 334.401 77.103 334.273C77.2358 334.146 77.3374 333.988 77.4077 333.801L78.5132 334C78.4246 334.326 78.2658 334.611 78.0366 334.855C77.8101 335.098 77.5249 335.286 77.1812 335.422C76.84 335.555 76.4507 335.621 76.0132 335.621ZM82.7388 329.5V330.437H79.3481V329.5H82.7388ZM80.2778 335.5V328.805C80.2778 328.43 80.3599 328.118 80.5239 327.871C80.688 327.621 80.9054 327.435 81.1763 327.312C81.4471 327.187 81.7414 327.125 82.0591 327.125C82.2935 327.125 82.494 327.145 82.6606 327.184C82.8273 327.22 82.951 327.254 83.0317 327.285L82.7583 328.23C82.7036 328.215 82.6333 328.197 82.5474 328.176C82.4614 328.152 82.3573 328.141 82.2349 328.141C81.951 328.141 81.7479 328.211 81.6255 328.352C81.5057 328.492 81.4458 328.695 81.4458 328.961V335.5H80.2778ZM86.7993 329.5V330.437H83.4087V329.5H86.7993ZM84.3384 335.5V328.805C84.3384 328.43 84.4204 328.118 84.5845 327.871C84.7485 327.621 84.966 327.435 85.2368 327.312C85.5076 327.187 85.8019 327.125 86.1196 327.125C86.354 327.125 86.5545 327.145 86.7212 327.184C86.8879 327.22 87.0116 327.254 87.0923 327.285L86.8188 328.23C86.7642 328.215 86.6938 328.197 86.6079 328.176C86.522 328.152 86.4178 328.141 86.2954 328.141C86.0116 328.141 85.8084 328.211 85.686 328.352C85.5662 328.492 85.5063 328.695 85.5063 328.961V335.5H84.3384ZM88.0044 335.5V329.5H89.1724V335.5H88.0044ZM88.5942 328.574C88.3911 328.574 88.2166 328.507 88.0708 328.371C87.9276 328.233 87.856 328.069 87.856 327.879C87.856 327.686 87.9276 327.522 88.0708 327.387C88.2166 327.249 88.3911 327.18 88.5942 327.18C88.7974 327.18 88.9705 327.249 89.1138 327.387C89.2596 327.522 89.3325 327.686 89.3325 327.879C89.3325 328.069 89.2596 328.233 89.1138 328.371C88.9705 328.507 88.7974 328.574 88.5942 328.574ZM93.271 335.621C92.6903 335.621 92.1903 335.49 91.771 335.227C91.3543 334.961 91.034 334.595 90.8101 334.129C90.5861 333.663 90.4741 333.129 90.4741 332.527C90.4741 331.918 90.5887 331.38 90.8179 330.914C91.047 330.445 91.37 330.079 91.7866 329.816C92.2033 329.553 92.6942 329.422 93.2593 329.422C93.715 329.422 94.1213 329.507 94.478 329.676C94.8348 329.842 95.1226 330.077 95.3413 330.379C95.5627 330.681 95.6942 331.034 95.7358 331.437H94.5991C94.5366 331.156 94.3934 330.914 94.1694 330.711C93.9481 330.508 93.6512 330.406 93.2788 330.406C92.9533 330.406 92.6681 330.492 92.4233 330.664C92.1812 330.833 91.9924 331.076 91.8569 331.391C91.7215 331.703 91.6538 332.073 91.6538 332.5C91.6538 332.937 91.7202 333.315 91.853 333.633C91.9858 333.951 92.1733 334.197 92.4155 334.371C92.6603 334.546 92.9481 334.633 93.2788 334.633C93.5002 334.633 93.7007 334.592 93.8804 334.512C94.0627 334.428 94.215 334.31 94.3374 334.156C94.4624 334.003 94.5496 333.818 94.5991 333.602H95.7358C95.6942 333.99 95.5679 334.336 95.3569 334.641C95.146 334.945 94.8634 335.185 94.5093 335.359C94.1577 335.534 93.745 335.621 93.271 335.621ZM96.9849 335.5V329.5H98.1528V335.5H96.9849ZM97.5747 328.574C97.3716 328.574 97.1971 328.507 97.0513 328.371C96.908 328.233 96.8364 328.069 96.8364 327.879C96.8364 327.686 96.908 327.522 97.0513 327.387C97.1971 327.249 97.3716 327.18 97.5747 327.18C97.7778 327.18 97.951 327.249 98.0942 327.387C98.2401 327.522 98.313 327.686 98.313 327.879C98.313 328.069 98.2401 328.233 98.0942 328.371C97.951 328.507 97.7778 328.574 97.5747 328.574ZM102.31 335.621C101.719 335.621 101.21 335.495 100.783 335.242C100.358 334.987 100.03 334.629 99.7983 334.168C99.5692 333.704 99.4546 333.161 99.4546 332.539C99.4546 331.924 99.5692 331.383 99.7983 330.914C100.03 330.445 100.353 330.079 100.767 329.816C101.184 329.553 101.671 329.422 102.228 329.422C102.567 329.422 102.895 329.478 103.212 329.59C103.53 329.702 103.815 329.878 104.068 330.117C104.32 330.357 104.52 330.668 104.666 331.051C104.811 331.431 104.884 331.893 104.884 332.437V332.852H100.115V331.977H103.74C103.74 331.669 103.677 331.397 103.552 331.16C103.427 330.921 103.251 330.732 103.025 330.594C102.801 330.456 102.538 330.387 102.236 330.387C101.908 330.387 101.621 330.467 101.376 330.629C101.134 330.788 100.947 330.996 100.814 331.254C100.684 331.509 100.619 331.786 100.619 332.086V332.77C100.619 333.171 100.689 333.512 100.83 333.793C100.973 334.074 101.172 334.289 101.427 334.437C101.682 334.583 101.981 334.656 102.322 334.656C102.543 334.656 102.745 334.625 102.927 334.562C103.11 334.497 103.267 334.401 103.4 334.273C103.533 334.146 103.634 333.988 103.705 333.801L104.81 334C104.722 334.326 104.563 334.611 104.333 334.855C104.107 335.098 103.822 335.286 103.478 335.422C103.137 335.555 102.748 335.621 102.31 335.621ZM107.348 331.937V335.5H106.18V329.5H107.301V330.477H107.375C107.514 330.159 107.73 329.904 108.024 329.711C108.321 329.518 108.694 329.422 109.145 329.422C109.554 329.422 109.912 329.508 110.219 329.68C110.527 329.849 110.765 330.102 110.934 330.437C111.103 330.773 111.188 331.189 111.188 331.684V335.5H110.02V331.824C110.02 331.389 109.907 331.049 109.68 330.805C109.454 330.557 109.142 330.434 108.747 330.434C108.476 330.434 108.235 330.492 108.024 330.609C107.816 330.727 107.65 330.898 107.528 331.125C107.408 331.349 107.348 331.62 107.348 331.937ZM115.555 329.5V330.437H112.278V329.5H115.555ZM113.157 328.062H114.325V333.738C114.325 333.965 114.359 334.135 114.426 334.25C114.494 334.362 114.581 334.439 114.688 334.48C114.797 334.52 114.916 334.539 115.043 334.539C115.137 334.539 115.219 334.533 115.29 334.52C115.36 334.507 115.415 334.496 115.454 334.488L115.665 335.453C115.597 335.479 115.5 335.505 115.375 335.531C115.25 335.56 115.094 335.576 114.907 335.578C114.599 335.583 114.313 335.529 114.047 335.414C113.782 335.299 113.567 335.122 113.403 334.883C113.239 334.643 113.157 334.342 113.157 333.98V328.062ZM118.144 327.5V335.5H116.976V327.5H118.144ZM120.454 337.75C120.279 337.75 120.12 337.736 119.977 337.707C119.834 337.681 119.727 337.652 119.657 337.621L119.938 336.664C120.152 336.721 120.342 336.746 120.508 336.738C120.675 336.73 120.822 336.668 120.95 336.551C121.08 336.434 121.194 336.242 121.293 335.977L121.438 335.578L119.243 329.5H120.493L122.012 334.156H122.075L123.594 329.5H124.848L122.375 336.301C122.261 336.613 122.115 336.878 121.938 337.094C121.761 337.313 121.55 337.477 121.305 337.586C121.06 337.695 120.777 337.75 120.454 337.75ZM130.158 335.5L128.392 329.5H129.599L130.775 333.906H130.833L132.013 329.5H133.22L134.392 333.887H134.451L135.619 329.5H136.826L135.064 335.5H133.873L132.654 331.168H132.564L131.345 335.5H130.158ZM137.934 335.5V329.5H139.102V335.5H137.934ZM138.524 328.574C138.321 328.574 138.146 328.507 138 328.371C137.857 328.233 137.786 328.069 137.786 327.879C137.786 327.686 137.857 327.522 138 327.387C138.146 327.249 138.321 327.18 138.524 327.18C138.727 327.18 138.9 327.249 139.043 327.387C139.189 327.522 139.262 327.686 139.262 327.879C139.262 328.069 139.189 328.233 139.043 328.371C138.9 328.507 138.727 328.574 138.524 328.574ZM143.474 329.5V330.437H140.197V329.5H143.474ZM141.076 328.062H142.244V333.738C142.244 333.965 142.278 334.135 142.345 334.25C142.413 334.362 142.5 334.439 142.607 334.48C142.716 334.52 142.835 334.539 142.962 334.539C143.056 334.539 143.138 334.533 143.208 334.52C143.279 334.507 143.333 334.496 143.373 334.488L143.583 335.453C143.516 335.479 143.419 335.505 143.294 335.531C143.169 335.56 143.013 335.576 142.826 335.578C142.518 335.583 142.232 335.529 141.966 335.414C141.701 335.299 141.486 335.122 141.322 334.883C141.158 334.643 141.076 334.342 141.076 333.98V328.062ZM146.063 331.937V335.5H144.895V327.5H146.047V330.477H146.122C146.262 330.154 146.477 329.897 146.766 329.707C147.055 329.517 147.433 329.422 147.899 329.422C148.31 329.422 148.67 329.507 148.977 329.676C149.287 329.845 149.527 330.098 149.696 330.434C149.868 330.767 149.954 331.184 149.954 331.684V335.5H148.786V331.824C148.786 331.384 148.672 331.043 148.446 330.801C148.219 330.556 147.904 330.434 147.5 330.434C147.224 330.434 146.977 330.492 146.758 330.609C146.542 330.727 146.372 330.898 146.247 331.125C146.124 331.349 146.063 331.62 146.063 331.937ZM154.517 335.5V327.5H155.724V331.32H155.822L159.177 327.5H160.697L157.47 331.102L160.708 335.5H159.255L156.669 331.926L155.724 333.012V335.5H154.517ZM163.815 335.621C163.252 335.621 162.762 335.492 162.342 335.234C161.923 334.977 161.597 334.616 161.366 334.152C161.134 333.689 161.018 333.147 161.018 332.527C161.018 331.905 161.134 331.361 161.366 330.895C161.597 330.428 161.923 330.066 162.342 329.809C162.762 329.551 163.252 329.422 163.815 329.422C164.377 329.422 164.868 329.551 165.288 329.809C165.707 330.066 166.032 330.428 166.264 330.895C166.496 331.361 166.612 331.905 166.612 332.527C166.612 333.147 166.496 333.689 166.264 334.152C166.032 334.616 165.707 334.977 165.288 335.234C164.868 335.492 164.377 335.621 163.815 335.621ZM163.819 334.641C164.183 334.641 164.486 334.544 164.725 334.352C164.965 334.159 165.142 333.902 165.256 333.582C165.374 333.262 165.432 332.909 165.432 332.523C165.432 332.141 165.374 331.789 165.256 331.469C165.142 331.146 164.965 330.887 164.725 330.691C164.486 330.496 164.183 330.398 163.819 330.398C163.452 330.398 163.147 330.496 162.905 330.691C162.665 330.887 162.487 331.146 162.37 331.469C162.255 331.789 162.198 332.141 162.198 332.523C162.198 332.909 162.255 333.262 162.37 333.582C162.487 333.902 162.665 334.159 162.905 334.352C163.147 334.544 163.452 334.641 163.819 334.641ZM167.916 335.5V329.5H169.083V335.5H167.916ZM168.505 328.574C168.302 328.574 168.128 328.507 167.982 328.371C167.839 328.233 167.767 328.069 167.767 327.879C167.767 327.686 167.839 327.522 167.982 327.387C168.128 327.249 168.302 327.18 168.505 327.18C168.708 327.18 168.882 327.249 169.025 327.387C169.171 327.522 169.244 327.686 169.244 327.879C169.244 328.069 169.171 328.233 169.025 328.371C168.882 328.507 168.708 328.574 168.505 328.574ZM171.823 331.937V335.5H170.655V329.5H171.776V330.477H171.85C171.988 330.159 172.204 329.904 172.499 329.711C172.795 329.518 173.169 329.422 173.62 329.422C174.028 329.422 174.387 329.508 174.694 329.68C175.001 329.849 175.239 330.102 175.409 330.437C175.578 330.773 175.663 331.189 175.663 331.684V335.5H174.495V331.824C174.495 331.389 174.381 331.049 174.155 330.805C173.928 330.557 173.617 330.434 173.221 330.434C172.95 330.434 172.709 330.492 172.499 330.609C172.29 330.727 172.125 330.898 172.002 331.125C171.883 331.349 171.823 331.62 171.823 331.937ZM181.686 329.602C181.644 329.232 181.472 328.945 181.17 328.742C180.868 328.536 180.488 328.434 180.03 328.434C179.702 328.434 179.418 328.486 179.178 328.59C178.939 328.691 178.752 328.832 178.62 329.012C178.489 329.189 178.424 329.391 178.424 329.617C178.424 329.807 178.469 329.971 178.557 330.109C178.648 330.247 178.767 330.363 178.913 330.457C179.061 330.548 179.22 330.625 179.389 330.688C179.558 330.747 179.721 330.797 179.877 330.836L180.659 331.039C180.914 331.102 181.176 331.186 181.444 331.293C181.712 331.4 181.961 331.54 182.19 331.715C182.419 331.889 182.604 332.105 182.745 332.363C182.888 332.621 182.959 332.93 182.959 333.289C182.959 333.742 182.842 334.145 182.608 334.496C182.376 334.848 182.039 335.125 181.596 335.328C181.156 335.531 180.624 335.633 179.999 335.633C179.4 335.633 178.881 335.538 178.444 335.348C178.006 335.158 177.664 334.888 177.417 334.539C177.169 334.187 177.032 333.771 177.006 333.289H178.217C178.241 333.578 178.334 333.819 178.499 334.012C178.665 334.202 178.877 334.344 179.135 334.437C179.396 334.529 179.681 334.574 179.991 334.574C180.332 334.574 180.635 334.521 180.901 334.414C181.169 334.305 181.38 334.154 181.534 333.961C181.687 333.766 181.764 333.538 181.764 333.277C181.764 333.04 181.696 332.846 181.561 332.695C181.428 332.544 181.247 332.419 181.018 332.32C180.792 332.221 180.535 332.134 180.249 332.059L179.303 331.801C178.663 331.626 178.155 331.37 177.78 331.031C177.407 330.693 177.221 330.245 177.221 329.687C177.221 329.227 177.346 328.824 177.596 328.48C177.846 328.137 178.185 327.87 178.612 327.68C179.039 327.487 179.521 327.391 180.057 327.391C180.599 327.391 181.077 327.486 181.491 327.676C181.907 327.866 182.236 328.128 182.475 328.461C182.715 328.792 182.84 329.172 182.85 329.602H181.686ZM187.109 329.5V330.437H183.832V329.5H187.109ZM184.71 328.062H185.878V333.738C185.878 333.965 185.912 334.135 185.98 334.25C186.048 334.362 186.135 334.439 186.242 334.48C186.351 334.52 186.47 334.539 186.597 334.539C186.691 334.539 186.773 334.533 186.843 334.52C186.914 334.507 186.968 334.496 187.007 334.488L187.218 335.453C187.151 335.479 187.054 335.505 186.929 335.531C186.804 335.56 186.648 335.576 186.46 335.578C186.153 335.583 185.867 335.529 185.601 335.414C185.335 335.299 185.121 335.122 184.957 334.883C184.792 334.643 184.71 334.342 184.71 333.98V328.062ZM190.147 335.633C189.767 335.633 189.423 335.563 189.116 335.422C188.808 335.279 188.565 335.072 188.385 334.801C188.208 334.53 188.12 334.198 188.12 333.805C188.12 333.466 188.185 333.187 188.315 332.969C188.445 332.75 188.621 332.577 188.842 332.449C189.064 332.322 189.311 332.225 189.584 332.16C189.858 332.095 190.137 332.046 190.42 332.012C190.78 331.97 191.071 331.936 191.295 331.91C191.519 331.882 191.682 331.836 191.784 331.773C191.885 331.711 191.936 331.609 191.936 331.469V331.441C191.936 331.1 191.84 330.836 191.647 330.648C191.457 330.461 191.173 330.367 190.795 330.367C190.402 330.367 190.092 330.454 189.866 330.629C189.642 330.801 189.487 330.992 189.401 331.203L188.303 330.953C188.433 330.589 188.624 330.294 188.874 330.07C189.126 329.844 189.417 329.68 189.745 329.578C190.073 329.474 190.418 329.422 190.78 329.422C191.019 329.422 191.273 329.451 191.542 329.508C191.812 329.562 192.065 329.664 192.299 329.812C192.536 329.961 192.73 330.173 192.881 330.449C193.032 330.723 193.108 331.078 193.108 331.516V335.5H191.967V334.68H191.92C191.845 334.831 191.732 334.979 191.581 335.125C191.43 335.271 191.236 335.392 190.999 335.488C190.762 335.585 190.478 335.633 190.147 335.633ZM190.401 334.695C190.724 334.695 191 334.632 191.229 334.504C191.461 334.376 191.637 334.21 191.756 334.004C191.879 333.796 191.94 333.573 191.94 333.336V332.562C191.898 332.604 191.818 332.643 191.698 332.68C191.581 332.714 191.446 332.743 191.295 332.77C191.144 332.793 190.997 332.815 190.854 332.836C190.711 332.854 190.591 332.87 190.495 332.883C190.268 332.911 190.061 332.96 189.874 333.027C189.689 333.095 189.54 333.193 189.428 333.32C189.319 333.445 189.264 333.612 189.264 333.82C189.264 334.109 189.371 334.328 189.584 334.477C189.798 334.622 190.07 334.695 190.401 334.695ZM197.191 335.621C196.61 335.621 196.11 335.49 195.691 335.227C195.274 334.961 194.954 334.595 194.73 334.129C194.506 333.663 194.394 333.129 194.394 332.527C194.394 331.918 194.509 331.38 194.738 330.914C194.967 330.445 195.29 330.079 195.707 329.816C196.123 329.553 196.614 329.422 197.179 329.422C197.635 329.422 198.041 329.507 198.398 329.676C198.755 329.842 199.042 330.077 199.261 330.379C199.483 330.681 199.614 331.034 199.656 331.437H198.519C198.457 331.156 198.313 330.914 198.089 330.711C197.868 330.508 197.571 330.406 197.199 330.406C196.873 330.406 196.588 330.492 196.343 330.664C196.101 330.833 195.912 331.076 195.777 331.391C195.641 331.703 195.574 332.073 195.574 332.5C195.574 332.937 195.64 333.315 195.773 333.633C195.906 333.951 196.093 334.197 196.335 334.371C196.58 334.546 196.868 334.633 197.199 334.633C197.42 334.633 197.621 334.592 197.8 334.512C197.983 334.428 198.135 334.31 198.257 334.156C198.382 334.003 198.47 333.818 198.519 333.602H199.656C199.614 333.99 199.488 334.336 199.277 334.641C199.066 334.945 198.783 335.185 198.429 335.359C198.078 335.534 197.665 335.621 197.191 335.621ZM201.979 333.465L201.971 332.039H202.174L204.565 329.5H205.963L203.237 332.391H203.053L201.979 333.465ZM200.905 335.5V327.5H202.073V335.5H200.905ZM204.694 335.5L202.545 332.648L203.35 331.832L206.127 335.5H204.694ZM207.797 335.574C207.584 335.574 207.4 335.499 207.247 335.348C207.093 335.194 207.016 335.009 207.016 334.793C207.016 334.579 207.093 334.397 207.247 334.246C207.4 334.092 207.584 334.016 207.797 334.016C208.011 334.016 208.194 334.092 208.348 334.246C208.502 334.397 208.579 334.579 208.579 334.793C208.579 334.936 208.542 335.068 208.469 335.187C208.399 335.305 208.305 335.398 208.188 335.469C208.071 335.539 207.941 335.574 207.797 335.574Z" fill="black"/>
</svg>
