<svg width="282" height="454" viewBox="0 0 282 454" fill="none" xmlns="http://www.w3.org/2000/svg">
<rect x="0.5" width="281" height="454" rx="10" fill="white"/>
<path d="M176.383 228.782C176.383 231.111 160.541 233 140.999 233C121.458 233 105.616 231.111 105.616 228.782C105.616 226.452 121.458 224.565 140.999 224.565C160.541 224.565 176.383 226.453 176.383 228.782Z" fill="#E8D7BA"/>
<path d="M143.014 217.998L153.049 212.536C175.588 200.267 189.643 176.481 189.643 150.604V124.48C189.643 122.447 188.049 120.759 186.038 120.704C162.324 120.054 147.611 113.134 142.77 110.456C141.669 109.848 140.331 109.848 139.231 110.456C134.389 113.135 119.676 120.054 95.9623 120.704C93.9515 120.759 92.3569 122.447 92.3569 124.48V150.604C92.3569 176.481 106.412 200.267 128.951 212.536L138.986 217.998C140.243 218.682 141.757 218.682 143.014 217.998Z" fill="#E8D7BA"/>
<path d="M184.833 127.556V149.725C184.833 174.403 171.493 196.991 150.022 208.68L142.903 212.552C142.312 212.874 141.655 213.038 141 213.038C140.343 213.038 139.687 212.874 139.096 212.552L131.977 208.68C110.506 196.991 97.1665 174.403 97.1665 149.725V127.556C97.1665 126.507 97.9966 125.648 99.0417 125.574C119.242 124.2 133.113 118.848 140.131 115.42C140.411 115.281 140.704 115.214 141 115.214C141.295 115.214 141.588 115.281 141.868 115.42C148.886 118.848 162.76 124.2 182.957 125.574C184.002 125.648 184.833 126.507 184.833 127.556Z" fill="#A3050D"/>
<path d="M184.833 127.556V149.725C184.833 174.403 171.493 196.991 150.022 208.68L142.903 212.552C142.312 212.874 141.655 213.038 141 213.038V115.213C141.295 115.213 141.588 115.28 141.868 115.419C148.886 118.847 162.76 124.2 182.957 125.573C184.002 125.647 184.833 126.506 184.833 127.555V127.556Z" fill="#80040B"/>
<path d="M144.216 173.927V176.583C144.216 178.359 142.775 179.8 141 179.8C139.224 179.8 137.783 178.359 137.783 176.583V173.927C136.416 172.937 135.531 171.324 135.531 169.507C135.531 166.487 137.978 164.039 140.999 164.039C144.019 164.039 146.467 166.488 146.467 169.507C146.467 171.325 145.582 172.937 144.215 173.927H144.216ZM157.668 155.354H124.331C122.346 155.354 120.735 156.965 120.735 158.95V185.532C120.735 187.517 122.346 189.128 124.331 189.128H157.668C159.653 189.128 161.264 187.517 161.264 185.532V158.95C161.264 156.965 159.653 155.354 157.668 155.354Z" fill="#FEFEFE"/>
<path d="M152.902 145.396V149.564C152.902 150.985 151.75 152.137 150.329 152.137C148.908 152.137 147.756 150.985 147.756 149.564V145.561C147.756 141.903 144.916 138.783 141.26 138.645C137.417 138.5 134.245 141.584 134.245 145.395V152.78H129.098V145.589C129.098 139.103 134.209 133.66 140.693 133.497C144.102 133.411 147.193 134.758 149.415 136.98C151.57 139.135 152.902 142.108 152.902 145.395L152.902 145.396Z" fill="#FEFEFE"/>
<path d="M108.973 281.638C108.916 281.065 108.673 280.62 108.242 280.303C107.811 279.985 107.226 279.827 106.487 279.827C105.985 279.827 105.562 279.898 105.216 280.04C104.87 280.177 104.605 280.369 104.421 280.615C104.241 280.861 104.151 281.141 104.151 281.453C104.141 281.714 104.196 281.941 104.314 282.135C104.437 282.329 104.605 282.497 104.818 282.639C105.031 282.777 105.278 282.897 105.557 283.001C105.836 283.101 106.135 283.186 106.452 283.257L107.759 283.57C108.393 283.712 108.976 283.901 109.506 284.138C110.036 284.375 110.495 284.666 110.884 285.011C111.272 285.357 111.573 285.764 111.786 286.233C112.003 286.702 112.115 287.239 112.119 287.845C112.115 288.735 111.887 289.507 111.438 290.161C110.993 290.809 110.349 291.313 109.506 291.673C108.668 292.028 107.657 292.206 106.473 292.206C105.299 292.206 104.276 292.026 103.405 291.666C102.539 291.306 101.861 290.774 101.374 290.068C100.891 289.358 100.637 288.48 100.614 287.433H103.59C103.623 287.921 103.762 288.328 104.009 288.655C104.26 288.977 104.593 289.221 105.01 289.386C105.432 289.547 105.907 289.628 106.438 289.628C106.959 289.628 107.411 289.552 107.794 289.401C108.182 289.249 108.483 289.038 108.696 288.768C108.909 288.499 109.016 288.188 109.016 287.838C109.016 287.511 108.919 287.237 108.725 287.014C108.535 286.792 108.256 286.602 107.887 286.446C107.522 286.29 107.075 286.148 106.544 286.02L104.96 285.622C103.734 285.324 102.766 284.857 102.056 284.223C101.345 283.589 100.993 282.734 100.997 281.659C100.993 280.778 101.227 280.009 101.7 279.351C102.179 278.693 102.834 278.179 103.668 277.81C104.501 277.44 105.448 277.256 106.509 277.256C107.588 277.256 108.53 277.44 109.335 277.81C110.145 278.179 110.775 278.693 111.225 279.351C111.674 280.009 111.906 280.771 111.921 281.638H108.973ZM119.103 292.213C117.981 292.213 117.015 291.986 116.205 291.531C115.4 291.072 114.78 290.423 114.344 289.585C113.909 288.742 113.691 287.746 113.691 286.595C113.691 285.473 113.909 284.488 114.344 283.641C114.78 282.793 115.393 282.133 116.184 281.659C116.979 281.186 117.912 280.949 118.982 280.949C119.702 280.949 120.372 281.065 120.992 281.297C121.617 281.524 122.162 281.867 122.626 282.327C123.094 282.786 123.459 283.364 123.719 284.06C123.98 284.751 124.11 285.561 124.11 286.489V287.32H114.898V285.445H121.262C121.262 285.009 121.167 284.623 120.978 284.287C120.788 283.951 120.526 283.688 120.189 283.499C119.858 283.304 119.472 283.207 119.032 283.207C118.573 283.207 118.165 283.314 117.81 283.527C117.46 283.735 117.185 284.017 116.986 284.372C116.787 284.723 116.686 285.113 116.681 285.544V287.327C116.681 287.866 116.78 288.333 116.979 288.726C117.183 289.119 117.469 289.422 117.839 289.635C118.208 289.848 118.646 289.955 119.153 289.955C119.489 289.955 119.796 289.907 120.076 289.812C120.355 289.718 120.594 289.576 120.793 289.386C120.992 289.197 121.144 288.965 121.248 288.69L124.046 288.875C123.904 289.547 123.613 290.134 123.172 290.636C122.737 291.134 122.173 291.522 121.482 291.801C120.796 292.076 120.002 292.213 119.103 292.213ZM131.013 292.213C129.896 292.213 128.935 291.976 128.13 291.503C127.33 291.025 126.714 290.362 126.283 289.514C125.857 288.667 125.644 287.691 125.644 286.588C125.644 285.471 125.859 284.491 126.29 283.648C126.726 282.8 127.344 282.14 128.144 281.666C128.944 281.188 129.896 280.949 130.999 280.949C131.951 280.949 132.784 281.122 133.499 281.467C134.214 281.813 134.78 282.298 135.197 282.923C135.613 283.548 135.843 284.282 135.885 285.125H133.03C132.95 284.58 132.737 284.143 132.391 283.811C132.05 283.475 131.603 283.307 131.049 283.307C130.58 283.307 130.171 283.435 129.82 283.69C129.474 283.941 129.205 284.308 129.01 284.791C128.816 285.274 128.719 285.859 128.719 286.545C128.719 287.241 128.814 287.833 129.003 288.321C129.198 288.809 129.47 289.18 129.82 289.436C130.171 289.692 130.58 289.82 131.049 289.82C131.394 289.82 131.705 289.749 131.979 289.607C132.259 289.464 132.488 289.259 132.668 288.989C132.853 288.714 132.974 288.385 133.03 288.001H135.885C135.838 288.835 135.611 289.569 135.204 290.203C134.801 290.833 134.245 291.325 133.535 291.68C132.824 292.036 131.984 292.213 131.013 292.213ZM144.818 287.355V281.091H147.844V292H144.939V290.018H144.825C144.579 290.658 144.17 291.171 143.597 291.56C143.029 291.948 142.335 292.142 141.516 292.142C140.787 292.142 140.145 291.976 139.591 291.645C139.037 291.313 138.604 290.842 138.291 290.232C137.984 289.621 137.827 288.889 137.823 288.037V281.091H140.848V287.497C140.853 288.141 141.026 288.65 141.367 289.024C141.708 289.398 142.164 289.585 142.737 289.585C143.102 289.585 143.443 289.502 143.76 289.337C144.077 289.166 144.333 288.915 144.527 288.584C144.726 288.252 144.823 287.843 144.818 287.355ZM150.264 292V281.091H153.197V282.994H153.311C153.51 282.317 153.844 281.806 154.312 281.46C154.781 281.11 155.321 280.935 155.932 280.935C156.083 280.935 156.247 280.944 156.422 280.963C156.597 280.982 156.751 281.008 156.883 281.041V283.726C156.741 283.683 156.545 283.645 156.294 283.612C156.043 283.579 155.813 283.562 155.605 283.562C155.16 283.562 154.762 283.66 154.412 283.854C154.066 284.043 153.791 284.308 153.588 284.649C153.389 284.99 153.29 285.383 153.29 285.828V292H150.264ZM158.448 292V281.091H161.473V292H158.448ZM159.968 279.685C159.518 279.685 159.132 279.536 158.81 279.237C158.493 278.934 158.334 278.572 158.334 278.151C158.334 277.734 158.493 277.376 158.81 277.078C159.132 276.775 159.518 276.624 159.968 276.624C160.417 276.624 160.801 276.775 161.118 277.078C161.44 277.376 161.601 277.734 161.601 278.151C161.601 278.572 161.44 278.934 161.118 279.237C160.801 279.536 160.417 279.685 159.968 279.685ZM169.699 281.091V283.364H163.13V281.091H169.699ZM164.621 278.477H167.647V288.648C167.647 288.927 167.689 289.145 167.775 289.301C167.86 289.453 167.978 289.559 168.13 289.621C168.286 289.682 168.466 289.713 168.67 289.713C168.812 289.713 168.954 289.701 169.096 289.678C169.238 289.649 169.347 289.628 169.422 289.614L169.898 291.865C169.747 291.912 169.534 291.967 169.259 292.028C168.984 292.095 168.651 292.135 168.258 292.149C167.528 292.178 166.889 292.08 166.34 291.858C165.796 291.635 165.372 291.29 165.069 290.821C164.766 290.352 164.617 289.76 164.621 289.045V278.477ZM173.538 296.091C173.155 296.091 172.795 296.06 172.459 295.999C172.127 295.942 171.853 295.868 171.635 295.778L172.317 293.52C172.672 293.629 172.991 293.688 173.275 293.697C173.564 293.707 173.813 293.641 174.021 293.499C174.234 293.357 174.407 293.115 174.54 292.774L174.717 292.312L170.804 281.091H173.986L176.244 289.102H176.358L178.638 281.091H181.841L177.601 293.179C177.397 293.766 177.12 294.277 176.77 294.713C176.424 295.153 175.986 295.492 175.456 295.729C174.925 295.97 174.286 296.091 173.538 296.091Z" fill="#80040B"/>
<path d="M43.8921 316L41.6733 308H42.9429L44.5015 314.195H44.5757L46.1968 308H47.4546L49.0757 314.199H49.1499L50.7046 308H51.978L49.7554 316H48.5405L46.8569 310.008H46.7944L45.1108 316H43.8921ZM52.9849 316V310H54.1528V316H52.9849ZM53.5747 309.074C53.3716 309.074 53.1971 309.007 53.0513 308.871C52.908 308.733 52.8364 308.569 52.8364 308.379C52.8364 308.186 52.908 308.022 53.0513 307.887C53.1971 307.749 53.3716 307.68 53.5747 307.68C53.7778 307.68 53.951 307.749 54.0942 307.887C54.2401 308.022 54.313 308.186 54.313 308.379C54.313 308.569 54.2401 308.733 54.0942 308.871C53.951 309.007 53.7778 309.074 53.5747 309.074ZM58.5249 310V310.937H55.2476V310H58.5249ZM56.1265 308.562H57.2944V314.238C57.2944 314.465 57.3283 314.635 57.396 314.75C57.4637 314.862 57.5509 314.939 57.6577 314.98C57.7671 315.02 57.8856 315.039 58.0132 315.039C58.1069 315.039 58.189 315.033 58.2593 315.02C58.3296 315.007 58.3843 314.996 58.4233 314.988L58.6343 315.953C58.5666 315.979 58.4702 316.005 58.3452 316.031C58.2202 316.06 58.064 316.076 57.8765 316.078C57.5692 316.083 57.2827 316.029 57.0171 315.914C56.7515 315.799 56.5366 315.622 56.3726 315.383C56.2085 315.143 56.1265 314.842 56.1265 314.48V308.562ZM61.1138 312.437V316H59.9458V308H61.0981V310.977H61.1724C61.313 310.654 61.5278 310.397 61.8169 310.207C62.106 310.017 62.4836 309.922 62.9497 309.922C63.3612 309.922 63.7205 310.007 64.0278 310.176C64.3377 310.345 64.5773 310.598 64.7466 310.934C64.9185 311.267 65.0044 311.684 65.0044 312.184V316H63.8364V312.324C63.8364 311.884 63.7231 311.543 63.4966 311.301C63.27 311.056 62.9549 310.934 62.5513 310.934C62.2752 310.934 62.0278 310.992 61.8091 311.109C61.5929 311.227 61.4224 311.398 61.2974 311.625C61.175 311.849 61.1138 312.12 61.1138 312.437ZM72.2749 310V310.937H68.9976V310H72.2749ZM69.8765 308.562H71.0444V314.238C71.0444 314.465 71.0783 314.635 71.146 314.75C71.2137 314.862 71.3009 314.939 71.4077 314.98C71.5171 315.02 71.6356 315.039 71.7632 315.039C71.8569 315.039 71.939 315.033 72.0093 315.02C72.0796 315.007 72.1343 314.996 72.1733 314.988L72.3843 315.953C72.3166 315.979 72.2202 316.005 72.0952 316.031C71.9702 316.06 71.814 316.076 71.6265 316.078C71.3192 316.083 71.0327 316.029 70.7671 315.914C70.5015 315.799 70.2866 315.622 70.1226 315.383C69.9585 315.143 69.8765 314.842 69.8765 314.48V308.562ZM76.0298 316.121C75.4673 316.121 74.9764 315.992 74.5571 315.734C74.1379 315.477 73.8123 315.116 73.5806 314.652C73.3488 314.189 73.2329 313.647 73.2329 313.027C73.2329 312.405 73.3488 311.861 73.5806 311.395C73.8123 310.928 74.1379 310.566 74.5571 310.309C74.9764 310.051 75.4673 309.922 76.0298 309.922C76.5923 309.922 77.0832 310.051 77.5024 310.309C77.9217 310.566 78.2472 310.928 78.479 311.395C78.7108 311.861 78.8267 312.405 78.8267 313.027C78.8267 313.647 78.7108 314.189 78.479 314.652C78.2472 315.116 77.9217 315.477 77.5024 315.734C77.0832 315.992 76.5923 316.121 76.0298 316.121ZM76.0337 315.141C76.3983 315.141 76.7004 315.044 76.9399 314.852C77.1795 314.659 77.3566 314.402 77.4712 314.082C77.5884 313.762 77.647 313.409 77.647 313.023C77.647 312.641 77.5884 312.289 77.4712 311.969C77.3566 311.646 77.1795 311.387 76.9399 311.191C76.7004 310.996 76.3983 310.898 76.0337 310.898C75.6665 310.898 75.3618 310.996 75.1196 311.191C74.88 311.387 74.7017 311.646 74.5845 311.969C74.4699 312.289 74.4126 312.641 74.4126 313.023C74.4126 313.409 74.4699 313.762 74.5845 314.082C74.7017 314.402 74.88 314.659 75.1196 314.852C75.3618 315.044 75.6665 315.141 76.0337 315.141ZM80.1304 318.25V310H81.271V310.973H81.3687C81.4364 310.848 81.534 310.703 81.6616 310.539C81.7892 310.375 81.9663 310.232 82.1929 310.109C82.4194 309.984 82.7189 309.922 83.0913 309.922C83.5757 309.922 84.008 310.044 84.3882 310.289C84.7684 310.534 85.0666 310.887 85.2827 311.348C85.5015 311.809 85.6108 312.363 85.6108 313.012C85.6108 313.66 85.5028 314.216 85.2866 314.68C85.0705 315.141 84.7736 315.496 84.396 315.746C84.0184 315.993 83.5874 316.117 83.103 316.117C82.7384 316.117 82.4403 316.056 82.2085 315.934C81.9793 315.811 81.7996 315.668 81.6694 315.504C81.5392 315.34 81.439 315.194 81.3687 315.066H81.2983V318.25H80.1304ZM81.2749 313C81.2749 313.422 81.3361 313.792 81.4585 314.109C81.5809 314.427 81.758 314.676 81.9897 314.855C82.2215 315.033 82.5054 315.121 82.8413 315.121C83.1903 315.121 83.4819 315.029 83.7163 314.844C83.9507 314.656 84.1278 314.402 84.2476 314.082C84.37 313.762 84.4312 313.401 84.4312 313C84.4312 312.604 84.3713 312.249 84.2515 311.934C84.1343 311.618 83.9572 311.37 83.7202 311.188C83.4858 311.005 83.1929 310.914 82.8413 310.914C82.5028 310.914 82.2163 311.001 81.9819 311.176C81.7502 311.35 81.5744 311.594 81.4546 311.906C81.3348 312.219 81.2749 312.583 81.2749 313ZM90.4546 312.113V313.125H86.9077V312.113H90.4546ZM93.1792 312.437V316H92.0112V310H93.1323V310.977H93.2065C93.3446 310.659 93.5607 310.404 93.855 310.211C94.1519 310.018 94.5256 309.922 94.9761 309.922C95.3849 309.922 95.743 310.008 96.0503 310.18C96.3576 310.349 96.5959 310.602 96.7651 310.937C96.9344 311.273 97.019 311.689 97.019 312.184V316H95.8511V312.324C95.8511 311.889 95.7378 311.549 95.5112 311.305C95.2847 311.057 94.9735 310.934 94.5776 310.934C94.3068 310.934 94.0659 310.992 93.855 311.109C93.6466 311.227 93.4813 311.398 93.3589 311.625C93.2391 311.849 93.1792 312.12 93.1792 312.437ZM101.113 316.121C100.55 316.121 100.059 315.992 99.6401 315.734C99.2209 315.477 98.8953 315.116 98.6636 314.652C98.4318 314.189 98.3159 313.647 98.3159 313.027C98.3159 312.405 98.4318 311.861 98.6636 311.395C98.8953 310.928 99.2209 310.566 99.6401 310.309C100.059 310.051 100.55 309.922 101.113 309.922C101.675 309.922 102.166 310.051 102.585 310.309C103.005 310.566 103.33 310.928 103.562 311.395C103.794 311.861 103.91 312.405 103.91 313.027C103.91 313.647 103.794 314.189 103.562 314.652C103.33 315.116 103.005 315.477 102.585 315.734C102.166 315.992 101.675 316.121 101.113 316.121ZM101.117 315.141C101.481 315.141 101.783 315.044 102.023 314.852C102.263 314.659 102.44 314.402 102.554 314.082C102.671 313.762 102.73 313.409 102.73 313.023C102.73 312.641 102.671 312.289 102.554 311.969C102.44 311.646 102.263 311.387 102.023 311.191C101.783 310.996 101.481 310.898 101.117 310.898C100.75 310.898 100.445 310.996 100.203 311.191C99.9631 311.387 99.7847 311.646 99.6675 311.969C99.5529 312.289 99.4956 312.641 99.4956 313.023C99.4956 313.409 99.5529 313.762 99.6675 314.082C99.7847 314.402 99.9631 314.659 100.203 314.852C100.445 315.044 100.75 315.141 101.117 315.141ZM108.014 310V310.937H104.737V310H108.014ZM105.616 308.562H106.784V314.238C106.784 314.465 106.818 314.635 106.885 314.75C106.953 314.862 107.04 314.939 107.147 314.98C107.256 315.02 107.375 315.039 107.502 315.039C107.596 315.039 107.678 315.033 107.749 315.02C107.819 315.007 107.874 314.996 107.913 314.988L108.124 315.953C108.056 315.979 107.959 316.005 107.834 316.031C107.709 316.06 107.553 316.076 107.366 316.078C107.058 316.083 106.772 316.029 106.506 315.914C106.241 315.799 106.026 315.622 105.862 315.383C105.698 315.143 105.616 314.842 105.616 314.48V308.562ZM111.769 316.121C111.188 316.121 110.688 315.99 110.269 315.727C109.852 315.461 109.532 315.095 109.308 314.629C109.084 314.163 108.972 313.629 108.972 313.027C108.972 312.418 109.087 311.88 109.316 311.414C109.545 310.945 109.868 310.579 110.285 310.316C110.701 310.053 111.192 309.922 111.757 309.922C112.213 309.922 112.619 310.007 112.976 310.176C113.333 310.342 113.621 310.577 113.839 310.879C114.061 311.181 114.192 311.534 114.234 311.937H113.097C113.035 311.656 112.891 311.414 112.667 311.211C112.446 311.008 112.149 310.906 111.777 310.906C111.451 310.906 111.166 310.992 110.921 311.164C110.679 311.333 110.49 311.576 110.355 311.891C110.22 312.203 110.152 312.573 110.152 313C110.152 313.437 110.218 313.815 110.351 314.133C110.484 314.451 110.671 314.697 110.914 314.871C111.158 315.046 111.446 315.133 111.777 315.133C111.998 315.133 112.199 315.092 112.378 315.012C112.561 314.928 112.713 314.81 112.835 314.656C112.96 314.503 113.048 314.318 113.097 314.102H114.234C114.192 314.49 114.066 314.836 113.855 315.141C113.644 315.445 113.361 315.685 113.007 315.859C112.656 316.034 112.243 316.121 111.769 316.121ZM116.651 312.437V316H115.483V308H116.635V310.977H116.709C116.85 310.654 117.065 310.397 117.354 310.207C117.643 310.017 118.021 309.922 118.487 309.922C118.898 309.922 119.258 310.007 119.565 310.176C119.875 310.345 120.114 310.598 120.284 310.934C120.456 311.267 120.542 311.684 120.542 312.184V316H119.374V312.324C119.374 311.884 119.26 311.543 119.034 311.301C118.807 311.056 118.492 310.934 118.088 310.934C117.812 310.934 117.565 310.992 117.346 311.109C117.13 311.227 116.959 311.398 116.834 311.625C116.712 311.849 116.651 312.12 116.651 312.437ZM127.597 316.121C127.006 316.121 126.497 315.995 126.07 315.742C125.645 315.487 125.317 315.129 125.085 314.668C124.856 314.204 124.742 313.661 124.742 313.039C124.742 312.424 124.856 311.883 125.085 311.414C125.317 310.945 125.64 310.579 126.054 310.316C126.471 310.053 126.958 309.922 127.515 309.922C127.854 309.922 128.182 309.978 128.5 310.09C128.817 310.202 129.102 310.378 129.355 310.617C129.608 310.857 129.807 311.168 129.953 311.551C130.098 311.931 130.171 312.393 130.171 312.937V313.352H125.402V312.477H129.027C129.027 312.169 128.964 311.897 128.839 311.66C128.714 311.421 128.539 311.232 128.312 311.094C128.088 310.956 127.825 310.887 127.523 310.887C127.195 310.887 126.908 310.967 126.664 311.129C126.421 311.288 126.234 311.496 126.101 311.754C125.971 312.009 125.906 312.286 125.906 312.586V313.27C125.906 313.671 125.976 314.012 126.117 314.293C126.26 314.574 126.459 314.789 126.714 314.937C126.97 315.083 127.268 315.156 127.609 315.156C127.83 315.156 128.032 315.125 128.214 315.062C128.397 314.997 128.554 314.901 128.687 314.773C128.82 314.646 128.921 314.488 128.992 314.301L130.097 314.5C130.009 314.826 129.85 315.111 129.621 315.355C129.394 315.598 129.109 315.786 128.765 315.922C128.424 316.055 128.035 316.121 127.597 316.121ZM132.635 312.437V316H131.467V310H132.588V310.977H132.663C132.801 310.659 133.017 310.404 133.311 310.211C133.608 310.018 133.982 309.922 134.432 309.922C134.841 309.922 135.199 310.008 135.506 310.18C135.814 310.349 136.052 310.602 136.221 310.937C136.39 311.273 136.475 311.689 136.475 312.184V316H135.307V312.324C135.307 311.889 135.194 311.549 134.967 311.305C134.741 311.057 134.43 310.934 134.034 310.934C133.763 310.934 133.522 310.992 133.311 311.109C133.103 311.227 132.937 311.398 132.815 311.625C132.695 311.849 132.635 312.12 132.635 312.437ZM140.569 316.121C139.988 316.121 139.488 315.99 139.069 315.727C138.652 315.461 138.332 315.095 138.108 314.629C137.884 314.163 137.772 313.629 137.772 313.027C137.772 312.418 137.887 311.88 138.116 311.414C138.345 310.945 138.668 310.579 139.084 310.316C139.501 310.053 139.992 309.922 140.557 309.922C141.013 309.922 141.419 310.007 141.776 310.176C142.133 310.342 142.42 310.577 142.639 310.879C142.861 311.181 142.992 311.534 143.034 311.937H141.897C141.834 311.656 141.691 311.414 141.467 311.211C141.246 311.008 140.949 310.906 140.577 310.906C140.251 310.906 139.966 310.992 139.721 311.164C139.479 311.333 139.29 311.576 139.155 311.891C139.019 312.203 138.952 312.573 138.952 313C138.952 313.437 139.018 313.815 139.151 314.133C139.284 314.451 139.471 314.697 139.713 314.871C139.958 315.046 140.246 315.133 140.577 315.133C140.798 315.133 140.999 315.092 141.178 315.012C141.361 314.928 141.513 314.81 141.635 314.656C141.76 314.503 141.847 314.318 141.897 314.102H143.034C142.992 314.49 142.866 314.836 142.655 315.141C142.444 315.445 142.161 315.685 141.807 315.859C141.456 316.034 141.043 316.121 140.569 316.121ZM144.283 316V310H145.412V310.953H145.474C145.583 310.63 145.776 310.376 146.052 310.191C146.331 310.004 146.646 309.91 146.998 309.91C147.07 309.91 147.156 309.913 147.255 309.918C147.357 309.923 147.436 309.93 147.494 309.937V311.055C147.447 311.042 147.363 311.027 147.244 311.012C147.124 310.993 147.004 310.984 146.884 310.984C146.608 310.984 146.362 311.043 146.146 311.16C145.932 311.275 145.763 311.435 145.638 311.641C145.513 311.844 145.451 312.076 145.451 312.336V316H144.283ZM149.425 318.25C149.251 318.25 149.092 318.236 148.949 318.207C148.806 318.181 148.699 318.152 148.628 318.121L148.91 317.164C149.123 317.221 149.313 317.246 149.48 317.238C149.647 317.23 149.794 317.168 149.921 317.051C150.052 316.934 150.166 316.742 150.265 316.477L150.41 316.078L148.214 310H149.464L150.984 314.656H151.046L152.566 310H153.82L151.347 316.801C151.233 317.113 151.087 317.378 150.91 317.594C150.733 317.813 150.522 317.977 150.277 318.086C150.032 318.195 149.748 318.25 149.425 318.25ZM154.917 318.25V310H156.058V310.973H156.156C156.223 310.848 156.321 310.703 156.449 310.539C156.576 310.375 156.753 310.232 156.98 310.109C157.207 309.984 157.506 309.922 157.878 309.922C158.363 309.922 158.795 310.044 159.175 310.289C159.556 310.534 159.854 310.887 160.07 311.348C160.289 311.809 160.398 312.363 160.398 313.012C160.398 313.66 160.29 314.216 160.074 314.68C159.858 315.141 159.561 315.496 159.183 315.746C158.806 315.993 158.375 316.117 157.89 316.117C157.526 316.117 157.227 316.056 156.996 315.934C156.766 315.811 156.587 315.668 156.457 315.504C156.326 315.34 156.226 315.194 156.156 315.066H156.085V318.25H154.917ZM156.062 313C156.062 313.422 156.123 313.792 156.246 314.109C156.368 314.427 156.545 314.676 156.777 314.855C157.009 315.033 157.292 315.121 157.628 315.121C157.977 315.121 158.269 315.029 158.503 314.844C158.738 314.656 158.915 314.402 159.035 314.082C159.157 313.762 159.218 313.401 159.218 313C159.218 312.604 159.158 312.249 159.039 311.934C158.921 311.618 158.744 311.37 158.507 311.188C158.273 311.005 157.98 310.914 157.628 310.914C157.29 310.914 157.003 311.001 156.769 311.176C156.537 311.35 156.361 311.594 156.242 311.906C156.122 312.219 156.062 312.583 156.062 313ZM164.507 310V310.937H161.23V310H164.507ZM162.109 308.562H163.277V314.238C163.277 314.465 163.311 314.635 163.378 314.75C163.446 314.862 163.533 314.939 163.64 314.98C163.75 315.02 163.868 315.039 163.996 315.039C164.089 315.039 164.171 315.033 164.242 315.02C164.312 315.007 164.367 314.996 164.406 314.988L164.617 315.953C164.549 315.979 164.453 316.005 164.328 316.031C164.203 316.06 164.046 316.076 163.859 316.078C163.552 316.083 163.265 316.029 163 315.914C162.734 315.799 162.519 315.622 162.355 315.383C162.191 315.143 162.109 314.842 162.109 314.48V308.562ZM165.799 316V310H166.967V316H165.799ZM166.389 309.074C166.186 309.074 166.012 309.007 165.866 308.871C165.722 308.733 165.651 308.569 165.651 308.379C165.651 308.186 165.722 308.022 165.866 307.887C166.012 307.749 166.186 307.68 166.389 307.68C166.592 307.68 166.765 307.749 166.909 307.887C167.055 308.022 167.127 308.186 167.127 308.379C167.127 308.569 167.055 308.733 166.909 308.871C166.765 309.007 166.592 309.074 166.389 309.074ZM171.066 316.121C170.503 316.121 170.013 315.992 169.593 315.734C169.174 315.477 168.848 315.116 168.617 314.652C168.385 314.189 168.269 313.647 168.269 313.027C168.269 312.405 168.385 311.861 168.617 311.395C168.848 310.928 169.174 310.566 169.593 310.309C170.013 310.051 170.503 309.922 171.066 309.922C171.628 309.922 172.119 310.051 172.539 310.309C172.958 310.566 173.283 310.928 173.515 311.395C173.747 311.861 173.863 312.405 173.863 313.027C173.863 313.647 173.747 314.189 173.515 314.652C173.283 315.116 172.958 315.477 172.539 315.734C172.119 315.992 171.628 316.121 171.066 316.121ZM171.07 315.141C171.434 315.141 171.736 315.044 171.976 314.852C172.216 314.659 172.393 314.402 172.507 314.082C172.625 313.762 172.683 313.409 172.683 313.023C172.683 312.641 172.625 312.289 172.507 311.969C172.393 311.646 172.216 311.387 171.976 311.191C171.736 310.996 171.434 310.898 171.07 310.898C170.703 310.898 170.398 310.996 170.156 311.191C169.916 311.387 169.738 311.646 169.621 311.969C169.506 312.289 169.449 312.641 169.449 313.023C169.449 313.409 169.506 313.762 169.621 314.082C169.738 314.402 169.916 314.659 170.156 314.852C170.398 315.044 170.703 315.141 171.07 315.141ZM176.334 312.437V316H175.167V310H176.288V310.977H176.362C176.5 310.659 176.716 310.404 177.01 310.211C177.307 310.018 177.681 309.922 178.131 309.922C178.54 309.922 178.898 310.008 179.206 310.18C179.513 310.349 179.751 310.602 179.92 310.937C180.09 311.273 180.174 311.689 180.174 312.184V316H179.006V312.324C179.006 311.889 178.893 311.549 178.667 311.305C178.44 311.057 178.129 310.934 177.733 310.934C177.462 310.934 177.221 310.992 177.01 311.109C176.802 311.227 176.637 311.398 176.514 311.625C176.394 311.849 176.334 312.12 176.334 312.437ZM186.398 316.133C186.018 316.133 185.674 316.063 185.367 315.922C185.059 315.779 184.816 315.572 184.636 315.301C184.459 315.03 184.371 314.698 184.371 314.305C184.371 313.966 184.436 313.687 184.566 313.469C184.696 313.25 184.872 313.077 185.093 312.949C185.315 312.822 185.562 312.725 185.835 312.66C186.109 312.595 186.388 312.546 186.671 312.512C187.031 312.47 187.322 312.436 187.546 312.41C187.77 312.382 187.933 312.336 188.035 312.273C188.136 312.211 188.187 312.109 188.187 311.969V311.941C188.187 311.6 188.091 311.336 187.898 311.148C187.708 310.961 187.424 310.867 187.046 310.867C186.653 310.867 186.343 310.954 186.117 311.129C185.893 311.301 185.738 311.492 185.652 311.703L184.554 311.453C184.684 311.089 184.875 310.794 185.125 310.57C185.377 310.344 185.667 310.18 185.996 310.078C186.324 309.974 186.669 309.922 187.031 309.922C187.27 309.922 187.524 309.951 187.792 310.008C188.063 310.062 188.316 310.164 188.55 310.312C188.787 310.461 188.981 310.673 189.132 310.949C189.283 311.223 189.359 311.578 189.359 312.016V316H188.218V315.18H188.171C188.096 315.331 187.983 315.479 187.832 315.625C187.681 315.771 187.486 315.892 187.25 315.988C187.013 316.085 186.729 316.133 186.398 316.133ZM186.652 315.195C186.975 315.195 187.251 315.132 187.48 315.004C187.712 314.876 187.888 314.71 188.007 314.504C188.13 314.296 188.191 314.073 188.191 313.836V313.062C188.149 313.104 188.069 313.143 187.949 313.18C187.832 313.214 187.697 313.243 187.546 313.27C187.395 313.293 187.248 313.315 187.105 313.336C186.962 313.354 186.842 313.37 186.746 313.383C186.519 313.411 186.312 313.46 186.125 313.527C185.94 313.595 185.791 313.693 185.679 313.82C185.57 313.945 185.515 314.112 185.515 314.32C185.515 314.609 185.622 314.828 185.835 314.977C186.049 315.122 186.321 315.195 186.652 315.195ZM192.083 312.437V316H190.915V310H192.036V310.977H192.11C192.248 310.659 192.464 310.404 192.758 310.211C193.055 310.018 193.429 309.922 193.879 309.922C194.288 309.922 194.646 310.008 194.954 310.18C195.261 310.349 195.499 310.602 195.668 310.937C195.838 311.273 195.922 311.689 195.922 312.184V316H194.754V312.324C194.754 311.889 194.641 311.549 194.415 311.305C194.188 311.057 193.877 310.934 193.481 310.934C193.21 310.934 192.969 310.992 192.758 311.109C192.55 311.227 192.385 311.398 192.262 311.625C192.142 311.849 192.083 312.12 192.083 312.437ZM199.735 316.117C199.25 316.117 198.818 315.993 198.438 315.746C198.06 315.496 197.764 315.141 197.547 314.68C197.334 314.216 197.227 313.66 197.227 313.012C197.227 312.363 197.335 311.809 197.551 311.348C197.77 310.887 198.069 310.534 198.45 310.289C198.83 310.044 199.261 309.922 199.743 309.922C200.115 309.922 200.415 309.984 200.641 310.109C200.87 310.232 201.047 310.375 201.172 310.539C201.3 310.703 201.399 310.848 201.469 310.973H201.54V308H202.708V316H201.567V315.066H201.469C201.399 315.194 201.297 315.34 201.165 315.504C201.034 315.668 200.855 315.811 200.625 315.934C200.396 316.056 200.099 316.117 199.735 316.117ZM199.993 315.121C200.329 315.121 200.612 315.033 200.844 314.855C201.079 314.676 201.256 314.427 201.375 314.109C201.498 313.792 201.559 313.422 201.559 313C201.559 312.583 201.499 312.219 201.379 311.906C201.26 311.594 201.084 311.35 200.852 311.176C200.62 311.001 200.334 310.914 199.993 310.914C199.641 310.914 199.348 311.005 199.114 311.188C198.879 311.37 198.702 311.618 198.583 311.934C198.465 312.249 198.407 312.604 198.407 313C198.407 313.401 198.467 313.762 198.586 314.082C198.706 314.402 198.883 314.656 199.118 314.844C199.355 315.029 199.646 315.121 199.993 315.121ZM207.286 316V310H208.415V310.953H208.477C208.586 310.63 208.779 310.376 209.055 310.191C209.334 310.004 209.649 309.91 210 309.91C210.073 309.91 210.159 309.913 210.258 309.918C210.36 309.923 210.439 309.93 210.497 309.937V311.055C210.45 311.042 210.366 311.027 210.247 311.012C210.127 310.993 210.007 310.984 209.887 310.984C209.611 310.984 209.365 311.043 209.149 311.16C208.935 311.275 208.766 311.435 208.641 311.641C208.516 311.844 208.454 312.076 208.454 312.336V316H207.286ZM213.82 316.121C213.257 316.121 212.766 315.992 212.347 315.734C211.928 315.477 211.602 315.116 211.371 314.652C211.139 314.189 211.023 313.647 211.023 313.027C211.023 312.405 211.139 311.861 211.371 311.395C211.602 310.928 211.928 310.566 212.347 310.309C212.766 310.051 213.257 309.922 213.82 309.922C214.382 309.922 214.873 310.051 215.292 310.309C215.712 310.566 216.037 310.928 216.269 311.395C216.501 311.861 216.617 312.405 216.617 313.027C216.617 313.647 216.501 314.189 216.269 314.652C216.037 315.116 215.712 315.477 215.292 315.734C214.873 315.992 214.382 316.121 213.82 316.121ZM213.824 315.141C214.188 315.141 214.49 315.044 214.73 314.852C214.97 314.659 215.147 314.402 215.261 314.082C215.378 313.762 215.437 313.409 215.437 313.023C215.437 312.641 215.378 312.289 215.261 311.969C215.147 311.646 214.97 311.387 214.73 311.191C214.49 310.996 214.188 310.898 213.824 310.898C213.457 310.898 213.152 310.996 212.91 311.191C212.67 311.387 212.492 311.646 212.375 311.969C212.26 312.289 212.203 312.641 212.203 313.023C212.203 313.409 212.26 313.762 212.375 314.082C212.492 314.402 212.67 314.659 212.91 314.852C213.152 315.044 213.457 315.141 213.824 315.141ZM218.014 316V308H219.182V310.973H219.252C219.32 310.848 219.418 310.703 219.545 310.539C219.673 310.375 219.85 310.232 220.077 310.109C220.303 309.984 220.603 309.922 220.975 309.922C221.459 309.922 221.892 310.044 222.272 310.289C222.652 310.534 222.95 310.887 223.167 311.348C223.385 311.809 223.495 312.363 223.495 313.012C223.495 313.66 223.387 314.216 223.17 314.68C222.954 315.141 222.657 315.496 222.28 315.746C221.902 315.993 221.471 316.117 220.987 316.117C220.622 316.117 220.324 316.056 220.092 315.934C219.863 315.811 219.683 315.668 219.553 315.504C219.423 315.34 219.323 315.194 219.252 315.066H219.155V316H218.014ZM219.159 313C219.159 313.422 219.22 313.792 219.342 314.109C219.465 314.427 219.642 314.676 219.874 314.855C220.105 315.033 220.389 315.121 220.725 315.121C221.074 315.121 221.366 315.029 221.6 314.844C221.834 314.656 222.012 314.402 222.131 314.082C222.254 313.762 222.315 313.401 222.315 313C222.315 312.604 222.255 312.249 222.135 311.934C222.018 311.618 221.841 311.37 221.604 311.188C221.37 311.005 221.077 310.914 220.725 310.914C220.387 310.914 220.1 311.001 219.866 311.176C219.634 311.35 219.458 311.594 219.338 311.906C219.219 312.219 219.159 312.583 219.159 313ZM228.607 313.512V310H229.779V316H228.63V314.961H228.568C228.43 315.281 228.208 315.548 227.904 315.762C227.602 315.973 227.225 316.078 226.775 316.078C226.389 316.078 226.048 315.993 225.751 315.824C225.457 315.652 225.225 315.398 225.056 315.062C224.889 314.727 224.806 314.311 224.806 313.816V310H225.974V313.676C225.974 314.085 226.087 314.41 226.314 314.652C226.541 314.895 226.835 315.016 227.197 315.016C227.416 315.016 227.633 314.961 227.849 314.852C228.068 314.742 228.249 314.577 228.392 314.355C228.538 314.134 228.61 313.853 228.607 313.512ZM235.844 311.465L234.786 311.652C234.741 311.517 234.671 311.388 234.575 311.266C234.481 311.143 234.353 311.043 234.192 310.965C234.03 310.887 233.829 310.848 233.586 310.848C233.256 310.848 232.98 310.922 232.758 311.07C232.537 311.216 232.426 311.405 232.426 311.637C232.426 311.837 232.5 311.999 232.649 312.121C232.797 312.243 233.037 312.344 233.368 312.422L234.321 312.641C234.873 312.768 235.284 312.965 235.555 313.23C235.826 313.496 235.961 313.841 235.961 314.266C235.961 314.625 235.857 314.945 235.649 315.227C235.443 315.505 235.155 315.724 234.786 315.883C234.418 316.042 233.993 316.121 233.508 316.121C232.836 316.121 232.288 315.978 231.864 315.691C231.439 315.402 231.179 314.992 231.083 314.461L232.211 314.289C232.282 314.583 232.426 314.806 232.645 314.957C232.864 315.105 233.149 315.18 233.5 315.18C233.883 315.18 234.189 315.1 234.418 314.941C234.648 314.78 234.762 314.583 234.762 314.352C234.762 314.164 234.692 314.007 234.551 313.879C234.413 313.751 234.201 313.655 233.915 313.59L232.899 313.367C232.339 313.24 231.925 313.036 231.657 312.758C231.391 312.479 231.258 312.126 231.258 311.699C231.258 311.345 231.357 311.035 231.555 310.77C231.753 310.504 232.027 310.297 232.375 310.148C232.724 309.997 233.124 309.922 233.575 309.922C234.223 309.922 234.734 310.062 235.106 310.344C235.478 310.622 235.724 310.996 235.844 311.465ZM240.046 310V310.937H236.769V310H240.046ZM237.648 308.562H238.816V314.238C238.816 314.465 238.85 314.635 238.917 314.75C238.985 314.862 239.072 314.939 239.179 314.98C239.289 315.02 239.407 315.039 239.535 315.039C239.628 315.039 239.71 315.033 239.781 315.02C239.851 315.007 239.906 314.996 239.945 314.988L240.156 315.953C240.088 315.979 239.992 316.005 239.867 316.031C239.742 316.06 239.585 316.076 239.398 316.078C239.091 316.083 238.804 316.029 238.539 315.914C238.273 315.799 238.058 315.622 237.894 315.383C237.73 315.143 237.648 314.842 237.648 314.48V308.562ZM29.084 324.465L28.0254 324.652C27.9811 324.517 27.9108 324.388 27.8145 324.266C27.7207 324.143 27.5931 324.043 27.4316 323.965C27.2702 323.887 27.0684 323.848 26.8262 323.848C26.4954 323.848 26.2194 323.922 25.998 324.07C25.7767 324.216 25.666 324.405 25.666 324.637C25.666 324.837 25.7402 324.999 25.8887 325.121C26.0371 325.243 26.2767 325.344 26.6074 325.422L27.5605 325.641C28.1126 325.768 28.5241 325.965 28.7949 326.23C29.0658 326.496 29.2012 326.841 29.2012 327.266C29.2012 327.625 29.097 327.945 28.8887 328.227C28.6829 328.505 28.3952 328.724 28.0254 328.883C27.6582 329.042 27.2324 329.121 26.748 329.121C26.0762 329.121 25.528 328.978 25.1035 328.691C24.679 328.402 24.4186 327.992 24.3223 327.461L25.4512 327.289C25.5215 327.583 25.666 327.806 25.8848 327.957C26.1035 328.105 26.3887 328.18 26.7402 328.18C27.123 328.18 27.429 328.1 27.6582 327.941C27.8874 327.78 28.002 327.583 28.002 327.352C28.002 327.164 27.9316 327.007 27.791 326.879C27.653 326.751 27.4408 326.655 27.1543 326.59L26.1387 326.367C25.5788 326.24 25.1647 326.036 24.8965 325.758C24.6309 325.479 24.498 325.126 24.498 324.699C24.498 324.345 24.597 324.035 24.7949 323.77C24.9928 323.504 25.2663 323.297 25.6152 323.148C25.9642 322.997 26.3639 322.922 26.8145 322.922C27.4629 322.922 27.9733 323.062 28.3457 323.344C28.7181 323.622 28.9642 323.996 29.084 324.465ZM32.2314 329.133C31.8512 329.133 31.5075 329.063 31.2002 328.922C30.8929 328.779 30.6494 328.572 30.4697 328.301C30.2926 328.03 30.2041 327.698 30.2041 327.305C30.2041 326.966 30.2692 326.687 30.3994 326.469C30.5296 326.25 30.7054 326.077 30.9268 325.949C31.1481 325.822 31.3955 325.725 31.6689 325.66C31.9424 325.595 32.221 325.546 32.5049 325.512C32.8643 325.47 33.1559 325.436 33.3799 325.41C33.6038 325.382 33.7666 325.336 33.8682 325.273C33.9697 325.211 34.0205 325.109 34.0205 324.969V324.941C34.0205 324.6 33.9242 324.336 33.7314 324.148C33.5413 323.961 33.2575 323.867 32.8799 323.867C32.4867 323.867 32.1768 323.954 31.9502 324.129C31.7262 324.301 31.5713 324.492 31.4854 324.703L30.3877 324.453C30.5179 324.089 30.708 323.794 30.958 323.57C31.2106 323.344 31.501 323.18 31.8291 323.078C32.1572 322.974 32.5023 322.922 32.8643 322.922C33.1038 322.922 33.3577 322.951 33.626 323.008C33.8968 323.062 34.1494 323.164 34.3838 323.312C34.6208 323.461 34.8148 323.673 34.9658 323.949C35.1169 324.223 35.1924 324.578 35.1924 325.016V329H34.0518V328.18H34.0049C33.9294 328.331 33.8161 328.479 33.665 328.625C33.514 328.771 33.32 328.892 33.083 328.988C32.846 329.085 32.5622 329.133 32.2314 329.133ZM32.4854 328.195C32.8083 328.195 33.0843 328.132 33.3135 328.004C33.5452 327.876 33.721 327.71 33.8408 327.504C33.9632 327.296 34.0244 327.073 34.0244 326.836V326.062C33.9827 326.104 33.902 326.143 33.7822 326.18C33.665 326.214 33.5309 326.243 33.3799 326.27C33.2288 326.293 33.0817 326.315 32.9385 326.336C32.7952 326.354 32.6755 326.37 32.5791 326.383C32.3525 326.411 32.1455 326.46 31.958 326.527C31.7731 326.595 31.6247 326.693 31.5127 326.82C31.4033 326.945 31.3486 327.112 31.3486 327.32C31.3486 327.609 31.4554 327.828 31.6689 327.977C31.8825 328.122 32.1546 328.195 32.4854 328.195ZM39.6035 323V323.937H36.2129V323H39.6035ZM37.1426 329V322.305C37.1426 321.93 37.2246 321.618 37.3887 321.371C37.5527 321.121 37.7702 320.935 38.041 320.812C38.3118 320.687 38.6061 320.625 38.9238 320.625C39.1582 320.625 39.3587 320.645 39.5254 320.684C39.6921 320.72 39.8158 320.754 39.8965 320.785L39.623 321.73C39.5684 321.715 39.498 321.697 39.4121 321.676C39.3262 321.652 39.222 321.641 39.0996 321.641C38.8158 321.641 38.6126 321.711 38.4902 321.852C38.3704 321.992 38.3105 322.195 38.3105 322.461V329H37.1426ZM43.1582 329.121C42.5671 329.121 42.0579 328.995 41.6309 328.742C41.2064 328.487 40.8783 328.129 40.6465 327.668C40.4173 327.204 40.3027 326.661 40.3027 326.039C40.3027 325.424 40.4173 324.883 40.6465 324.414C40.8783 323.945 41.2012 323.579 41.6152 323.316C42.0319 323.053 42.5189 322.922 43.0762 322.922C43.4147 322.922 43.7428 322.978 44.0605 323.09C44.3783 323.202 44.6634 323.378 44.916 323.617C45.1686 323.857 45.3678 324.168 45.5137 324.551C45.6595 324.931 45.7324 325.393 45.7324 325.937V326.352H40.9629V325.477H44.5879C44.5879 325.169 44.5254 324.897 44.4004 324.66C44.2754 324.421 44.0996 324.232 43.873 324.094C43.6491 323.956 43.3861 323.887 43.084 323.887C42.7559 323.887 42.4694 323.967 42.2246 324.129C41.9824 324.288 41.7949 324.496 41.6621 324.754C41.5319 325.009 41.4668 325.286 41.4668 325.586V326.27C41.4668 326.671 41.5371 327.012 41.6777 327.293C41.821 327.574 42.0202 327.789 42.2754 327.937C42.5306 328.083 42.8288 328.156 43.1699 328.156C43.3913 328.156 43.5931 328.125 43.7754 328.062C43.9577 327.997 44.1152 327.901 44.248 327.773C44.3809 327.646 44.4824 327.488 44.5527 327.301L45.6582 327.5C45.5697 327.826 45.4108 328.111 45.1816 328.355C44.9551 328.598 44.6699 328.786 44.3262 328.922C43.985 329.055 43.5957 329.121 43.1582 329.121ZM49.5439 331.375C49.0674 331.375 48.6572 331.313 48.3135 331.188C47.9723 331.063 47.6937 330.897 47.4775 330.691C47.2614 330.486 47.0999 330.26 46.9932 330.016L47.9971 329.602C48.0674 329.716 48.1611 329.837 48.2783 329.965C48.3981 330.095 48.5596 330.206 48.7627 330.297C48.9684 330.388 49.2327 330.434 49.5557 330.434C49.9984 330.434 50.3643 330.326 50.6533 330.109C50.9424 329.896 51.0869 329.555 51.0869 329.086V327.906H51.0127C50.9424 328.034 50.8408 328.176 50.708 328.332C50.5778 328.488 50.3981 328.624 50.1689 328.738C49.9398 328.853 49.6416 328.91 49.2744 328.91C48.8005 328.91 48.3734 328.799 47.9932 328.578C47.6156 328.354 47.3161 328.025 47.0947 327.59C46.876 327.152 46.7666 326.615 46.7666 325.977C46.7666 325.339 46.8747 324.792 47.0908 324.336C47.3096 323.88 47.609 323.531 47.9893 323.289C48.3695 323.044 48.8005 322.922 49.2822 322.922C49.6546 322.922 49.9554 322.984 50.1846 323.109C50.4137 323.232 50.5921 323.375 50.7197 323.539C50.8499 323.703 50.9502 323.848 51.0205 323.973H51.1064V323H52.251V329.133C52.251 329.648 52.1312 330.072 51.8916 330.402C51.652 330.733 51.3278 330.978 50.9189 331.137C50.5127 331.296 50.0544 331.375 49.5439 331.375ZM49.5322 327.941C49.8682 327.941 50.152 327.863 50.3838 327.707C50.6182 327.548 50.7952 327.322 50.915 327.027C51.0374 326.73 51.0986 326.375 51.0986 325.961C51.0986 325.557 51.0387 325.202 50.9189 324.895C50.7992 324.587 50.6234 324.348 50.3916 324.176C50.1598 324.001 49.8734 323.914 49.5322 323.914C49.1807 323.914 48.8877 324.005 48.6533 324.188C48.4189 324.367 48.2419 324.612 48.1221 324.922C48.0049 325.232 47.9463 325.578 47.9463 325.961C47.9463 326.354 48.0062 326.699 48.126 326.996C48.2458 327.293 48.4229 327.525 48.6572 327.691C48.8942 327.858 49.1859 327.941 49.5322 327.941ZM57.6182 326.512V323H58.79V329H57.6416V327.961H57.5791C57.4411 328.281 57.2197 328.548 56.915 328.762C56.613 328.973 56.2367 329.078 55.7861 329.078C55.4007 329.078 55.0596 328.993 54.7627 328.824C54.4684 328.652 54.2367 328.398 54.0674 328.062C53.9007 327.727 53.8174 327.311 53.8174 326.816V323H54.9854V326.676C54.9854 327.085 55.0986 327.41 55.3252 327.652C55.5518 327.895 55.846 328.016 56.208 328.016C56.4268 328.016 56.6442 327.961 56.8604 327.852C57.0791 327.742 57.2601 327.577 57.4033 327.355C57.5492 327.134 57.6208 326.853 57.6182 326.512ZM62.1055 329.133C61.7253 329.133 61.3815 329.063 61.0742 328.922C60.7669 328.779 60.5234 328.572 60.3438 328.301C60.1667 328.03 60.0781 327.698 60.0781 327.305C60.0781 326.966 60.1432 326.687 60.2734 326.469C60.4036 326.25 60.5794 326.077 60.8008 325.949C61.0221 325.822 61.2695 325.725 61.543 325.66C61.8164 325.595 62.0951 325.546 62.3789 325.512C62.7383 325.47 63.0299 325.436 63.2539 325.41C63.4779 325.382 63.6406 325.336 63.7422 325.273C63.8438 325.211 63.8945 325.109 63.8945 324.969V324.941C63.8945 324.6 63.7982 324.336 63.6055 324.148C63.4154 323.961 63.1315 323.867 62.7539 323.867C62.3607 323.867 62.0508 323.954 61.8242 324.129C61.6003 324.301 61.4453 324.492 61.3594 324.703L60.2617 324.453C60.3919 324.089 60.582 323.794 60.832 323.57C61.0846 323.344 61.375 323.18 61.7031 323.078C62.0313 322.974 62.3763 322.922 62.7383 322.922C62.9779 322.922 63.2318 322.951 63.5 323.008C63.7708 323.062 64.0234 323.164 64.2578 323.312C64.4948 323.461 64.6888 323.673 64.8398 323.949C64.9909 324.223 65.0664 324.578 65.0664 325.016V329H63.9258V328.18H63.8789C63.8034 328.331 63.6901 328.479 63.5391 328.625C63.388 328.771 63.194 328.892 62.957 328.988C62.7201 329.085 62.4362 329.133 62.1055 329.133ZM62.3594 328.195C62.6823 328.195 62.9583 328.132 63.1875 328.004C63.4193 327.876 63.5951 327.71 63.7148 327.504C63.8372 327.296 63.8984 327.073 63.8984 326.836V326.062C63.8568 326.104 63.776 326.143 63.6562 326.18C63.5391 326.214 63.4049 326.243 63.2539 326.27C63.1029 326.293 62.9557 326.315 62.8125 326.336C62.6693 326.354 62.5495 326.37 62.4531 326.383C62.2266 326.411 62.0195 326.46 61.832 326.527C61.6471 326.595 61.4987 326.693 61.3867 326.82C61.2773 326.945 61.2227 327.112 61.2227 327.32C61.2227 327.609 61.3294 327.828 61.543 327.977C61.7565 328.122 62.0286 328.195 62.3594 328.195ZM66.6221 329V323H67.751V323.953H67.8135C67.9229 323.63 68.1156 323.376 68.3916 323.191C68.6702 323.004 68.9854 322.91 69.3369 322.91C69.4098 322.91 69.4958 322.913 69.5947 322.918C69.6963 322.923 69.7757 322.93 69.833 322.937V324.055C69.7861 324.042 69.7028 324.027 69.583 324.012C69.4632 323.993 69.3434 323.984 69.2236 323.984C68.9476 323.984 68.7015 324.043 68.4854 324.16C68.2718 324.275 68.1025 324.435 67.9775 324.641C67.8525 324.844 67.79 325.076 67.79 325.336V329H66.6221ZM72.875 329.117C72.3906 329.117 71.9583 328.993 71.5781 328.746C71.2005 328.496 70.9036 328.141 70.6875 327.68C70.474 327.216 70.3672 326.66 70.3672 326.012C70.3672 325.363 70.4753 324.809 70.6914 324.348C70.9102 323.887 71.2096 323.534 71.5898 323.289C71.9701 323.044 72.401 322.922 72.8828 322.922C73.2552 322.922 73.5547 322.984 73.7813 323.109C74.0104 323.232 74.1875 323.375 74.3125 323.539C74.4401 323.703 74.5391 323.848 74.6094 323.973H74.6797V321H75.8477V329H74.707V328.066H74.6094C74.5391 328.194 74.4375 328.34 74.3047 328.504C74.1745 328.668 73.9948 328.811 73.7656 328.934C73.5365 329.056 73.2396 329.117 72.875 329.117ZM73.1328 328.121C73.4688 328.121 73.7526 328.033 73.9844 327.855C74.2188 327.676 74.3958 327.427 74.5156 327.109C74.638 326.792 74.6992 326.422 74.6992 326C74.6992 325.583 74.6393 325.219 74.5195 324.906C74.3997 324.594 74.224 324.35 73.9922 324.176C73.7604 324.001 73.474 323.914 73.1328 323.914C72.7813 323.914 72.4883 324.005 72.2539 324.188C72.0195 324.37 71.8424 324.618 71.7227 324.934C71.6055 325.249 71.5469 325.604 71.5469 326C71.5469 326.401 71.6068 326.762 71.7266 327.082C71.8464 327.402 72.0234 327.656 72.2578 327.844C72.4948 328.029 72.7865 328.121 73.1328 328.121ZM82.0107 324.465L80.9521 324.652C80.9079 324.517 80.8376 324.388 80.7412 324.266C80.6475 324.143 80.5199 324.043 80.3584 323.965C80.1969 323.887 79.9951 323.848 79.7529 323.848C79.4222 323.848 79.1462 323.922 78.9248 324.07C78.7035 324.216 78.5928 324.405 78.5928 324.637C78.5928 324.837 78.667 324.999 78.8154 325.121C78.9639 325.243 79.2035 325.344 79.5342 325.422L80.4873 325.641C81.0394 325.768 81.4508 325.965 81.7217 326.23C81.9925 326.496 82.1279 326.841 82.1279 327.266C82.1279 327.625 82.0238 327.945 81.8154 328.227C81.6097 328.505 81.3219 328.724 80.9521 328.883C80.585 329.042 80.1592 329.121 79.6748 329.121C79.0029 329.121 78.4548 328.978 78.0303 328.691C77.6058 328.402 77.3454 327.992 77.249 327.461L78.3779 327.289C78.4482 327.583 78.5928 327.806 78.8115 327.957C79.0303 328.105 79.3154 328.18 79.667 328.18C80.0498 328.18 80.3558 328.1 80.585 327.941C80.8141 327.78 80.9287 327.583 80.9287 327.352C80.9287 327.164 80.8584 327.007 80.7178 326.879C80.5798 326.751 80.3675 326.655 80.0811 326.59L79.0654 326.367C78.5055 326.24 78.0915 326.036 77.8232 325.758C77.5576 325.479 77.4248 325.126 77.4248 324.699C77.4248 324.345 77.5238 324.035 77.7217 323.77C77.9196 323.504 78.193 323.297 78.542 323.148C78.891 322.997 79.2907 322.922 79.7412 322.922C80.3896 322.922 80.9001 323.062 81.2725 323.344C81.6449 323.622 81.891 323.996 82.0107 324.465ZM84.9316 327.906L84.873 328.332C84.834 328.645 84.7676 328.97 84.6738 329.309C84.5827 329.65 84.4876 329.966 84.3887 330.258C84.2923 330.549 84.2129 330.781 84.1504 330.953H83.3223C83.3561 330.792 83.403 330.573 83.4629 330.297C83.5228 330.023 83.5814 329.717 83.6387 329.379C83.696 329.04 83.7389 328.695 83.7676 328.344L83.8066 327.906H84.9316ZM90.1016 331.25C89.9271 331.25 89.7682 331.236 89.625 331.207C89.4818 331.181 89.375 331.152 89.3047 331.121L89.5859 330.164C89.7995 330.221 89.9896 330.246 90.1562 330.238C90.3229 330.23 90.4701 330.168 90.5977 330.051C90.7279 329.934 90.8424 329.742 90.9414 329.477L91.0859 329.078L88.8906 323H90.1406L91.6602 327.656H91.7227L93.2422 323H94.4961L92.0234 329.801C91.9089 330.113 91.763 330.378 91.5859 330.594C91.4089 330.813 91.1979 330.977 90.9531 331.086C90.7083 331.195 90.4245 331.25 90.1016 331.25ZM97.917 329.121C97.3545 329.121 96.8636 328.992 96.4443 328.734C96.0251 328.477 95.6995 328.116 95.4678 327.652C95.236 327.189 95.1201 326.647 95.1201 326.027C95.1201 325.405 95.236 324.861 95.4678 324.395C95.6995 323.928 96.0251 323.566 96.4443 323.309C96.8636 323.051 97.3545 322.922 97.917 322.922C98.4795 322.922 98.9704 323.051 99.3896 323.309C99.8089 323.566 100.134 323.928 100.366 324.395C100.598 324.861 100.714 325.405 100.714 326.027C100.714 326.647 100.598 327.189 100.366 327.652C100.134 328.116 99.8089 328.477 99.3896 328.734C98.9704 328.992 98.4795 329.121 97.917 329.121ZM97.9209 328.141C98.2855 328.141 98.5876 328.044 98.8271 327.852C99.0667 327.659 99.2438 327.402 99.3584 327.082C99.4756 326.762 99.5342 326.409 99.5342 326.023C99.5342 325.641 99.4756 325.289 99.3584 324.969C99.2438 324.646 99.0667 324.387 98.8271 324.191C98.5876 323.996 98.2855 323.898 97.9209 323.898C97.5537 323.898 97.249 323.996 97.0068 324.191C96.7673 324.387 96.5889 324.646 96.4717 324.969C96.3571 325.289 96.2998 325.641 96.2998 326.023C96.2998 326.409 96.3571 326.762 96.4717 327.082C96.5889 327.402 96.7673 327.659 97.0068 327.852C97.249 328.044 97.5537 328.141 97.9209 328.141ZM105.818 326.512V323H106.99V329H105.842V327.961H105.779C105.641 328.281 105.42 328.548 105.115 328.762C104.813 328.973 104.437 329.078 103.986 329.078C103.601 329.078 103.26 328.993 102.963 328.824C102.669 328.652 102.437 328.398 102.268 328.062C102.101 327.727 102.018 327.311 102.018 326.816V323H103.186V326.676C103.186 327.085 103.299 327.41 103.525 327.652C103.752 327.895 104.046 328.016 104.408 328.016C104.627 328.016 104.844 327.961 105.061 327.852C105.279 327.742 105.46 327.577 105.604 327.355C105.749 327.134 105.821 326.853 105.818 326.512ZM108.56 329V323H109.688V323.953H109.751C109.86 323.63 110.053 323.376 110.329 323.191C110.608 323.004 110.923 322.91 111.274 322.91C111.347 322.91 111.433 322.913 111.532 322.918C111.634 322.923 111.713 322.93 111.771 322.937V324.055C111.724 324.042 111.64 324.027 111.521 324.012C111.401 323.993 111.281 323.984 111.161 323.984C110.885 323.984 110.639 324.043 110.423 324.16C110.209 324.275 110.04 324.435 109.915 324.641C109.79 324.844 109.728 325.076 109.728 325.336V329H108.56ZM115.692 329V323H116.813V323.977H116.888C117.013 323.646 117.217 323.388 117.501 323.203C117.785 323.016 118.125 322.922 118.521 322.922C118.922 322.922 119.257 323.016 119.528 323.203C119.802 323.391 120.004 323.648 120.134 323.977H120.196C120.34 323.656 120.567 323.401 120.88 323.211C121.192 323.018 121.565 322.922 121.997 322.922C122.541 322.922 122.985 323.092 123.329 323.434C123.675 323.775 123.849 324.289 123.849 324.977V329H122.681V325.086C122.681 324.68 122.57 324.385 122.349 324.203C122.127 324.021 121.863 323.93 121.556 323.93C121.175 323.93 120.88 324.047 120.669 324.281C120.458 324.513 120.353 324.811 120.353 325.176V329H119.188V325.012C119.188 324.686 119.087 324.424 118.884 324.227C118.681 324.029 118.416 323.93 118.091 323.93C117.869 323.93 117.665 323.988 117.478 324.105C117.293 324.22 117.143 324.38 117.028 324.586C116.916 324.792 116.86 325.03 116.86 325.301V329H115.692ZM127.941 329.121C127.379 329.121 126.888 328.992 126.469 328.734C126.049 328.477 125.724 328.116 125.492 327.652C125.26 327.189 125.145 326.647 125.145 326.027C125.145 325.405 125.26 324.861 125.492 324.395C125.724 323.928 126.049 323.566 126.469 323.309C126.888 323.051 127.379 322.922 127.941 322.922C128.504 322.922 128.995 323.051 129.414 323.309C129.833 323.566 130.159 323.928 130.391 324.395C130.622 324.861 130.738 325.405 130.738 326.027C130.738 326.647 130.622 327.189 130.391 327.652C130.159 328.116 129.833 328.477 129.414 328.734C128.995 328.992 128.504 329.121 127.941 329.121ZM127.945 328.141C128.31 328.141 128.612 328.044 128.852 327.852C129.091 327.659 129.268 327.402 129.383 327.082C129.5 326.762 129.559 326.409 129.559 326.023C129.559 325.641 129.5 325.289 129.383 324.969C129.268 324.646 129.091 324.387 128.852 324.191C128.612 323.996 128.31 323.898 127.945 323.898C127.578 323.898 127.273 323.996 127.031 324.191C126.792 324.387 126.613 324.646 126.496 324.969C126.382 325.289 126.324 325.641 126.324 326.023C126.324 326.409 126.382 326.762 126.496 327.082C126.613 327.402 126.792 327.659 127.031 327.852C127.273 328.044 127.578 328.141 127.945 328.141ZM133.21 325.437V329H132.042V323H133.163V323.977H133.237C133.375 323.659 133.591 323.404 133.886 323.211C134.183 323.018 134.556 322.922 135.007 322.922C135.416 322.922 135.774 323.008 136.081 323.18C136.388 323.349 136.627 323.602 136.796 323.937C136.965 324.273 137.05 324.689 137.05 325.184V329H135.882V325.324C135.882 324.889 135.769 324.549 135.542 324.305C135.315 324.057 135.004 323.934 134.608 323.934C134.338 323.934 134.097 323.992 133.886 324.109C133.677 324.227 133.512 324.398 133.39 324.625C133.27 324.849 133.21 325.12 133.21 325.437ZM141.202 329.121C140.611 329.121 140.102 328.995 139.675 328.742C139.25 328.487 138.922 328.129 138.69 327.668C138.461 327.204 138.347 326.661 138.347 326.039C138.347 325.424 138.461 324.883 138.69 324.414C138.922 323.945 139.245 323.579 139.659 323.316C140.076 323.053 140.563 322.922 141.12 322.922C141.459 322.922 141.787 322.978 142.104 323.09C142.422 323.202 142.707 323.378 142.96 323.617C143.213 323.857 143.412 324.168 143.558 324.551C143.703 324.931 143.776 325.393 143.776 325.937V326.352H139.007V325.477H142.632C142.632 325.169 142.569 324.897 142.444 324.66C142.319 324.421 142.144 324.232 141.917 324.094C141.693 323.956 141.43 323.887 141.128 323.887C140.8 323.887 140.513 323.967 140.269 324.129C140.026 324.288 139.839 324.496 139.706 324.754C139.576 325.009 139.511 325.286 139.511 325.586V326.27C139.511 326.671 139.581 327.012 139.722 327.293C139.865 327.574 140.064 327.789 140.319 327.937C140.575 328.083 140.873 328.156 141.214 328.156C141.435 328.156 141.637 328.125 141.819 328.062C142.002 327.997 142.159 327.901 142.292 327.773C142.425 327.646 142.526 327.488 142.597 327.301L143.702 327.5C143.614 327.826 143.455 328.111 143.226 328.355C142.999 328.598 142.714 328.786 142.37 328.922C142.029 329.055 141.64 329.121 141.202 329.121ZM145.639 331.25C145.464 331.25 145.305 331.236 145.162 331.207C145.019 331.181 144.912 331.152 144.842 331.121L145.123 330.164C145.337 330.221 145.527 330.246 145.693 330.238C145.86 330.23 146.007 330.168 146.135 330.051C146.265 329.934 146.38 329.742 146.479 329.477L146.623 329.078L144.428 323H145.678L147.197 327.656H147.26L148.779 323H150.033L147.561 329.801C147.446 330.113 147.3 330.378 147.123 330.594C146.946 330.813 146.735 330.977 146.49 331.086C146.245 331.195 145.962 331.25 145.639 331.25ZM155.788 329.133C155.408 329.133 155.064 329.063 154.757 328.922C154.45 328.779 154.206 328.572 154.026 328.301C153.849 328.03 153.761 327.698 153.761 327.305C153.761 326.966 153.826 326.687 153.956 326.469C154.086 326.25 154.262 326.077 154.483 325.949C154.705 325.822 154.952 325.725 155.226 325.66C155.499 325.595 155.778 325.546 156.062 325.512C156.421 325.47 156.713 325.436 156.937 325.41C157.16 325.382 157.323 325.336 157.425 325.273C157.526 325.211 157.577 325.109 157.577 324.969V324.941C157.577 324.6 157.481 324.336 157.288 324.148C157.098 323.961 156.814 323.867 156.437 323.867C156.043 323.867 155.733 323.954 155.507 324.129C155.283 324.301 155.128 324.492 155.042 324.703L153.944 324.453C154.075 324.089 154.265 323.794 154.515 323.57C154.767 323.344 155.058 323.18 155.386 323.078C155.714 322.974 156.059 322.922 156.421 322.922C156.66 322.922 156.914 322.951 157.183 323.008C157.453 323.062 157.706 323.164 157.94 323.312C158.177 323.461 158.371 323.673 158.522 323.949C158.674 324.223 158.749 324.578 158.749 325.016V329H157.608V328.18H157.562C157.486 328.331 157.373 328.479 157.222 328.625C157.071 328.771 156.877 328.892 156.64 328.988C156.403 329.085 156.119 329.133 155.788 329.133ZM156.042 328.195C156.365 328.195 156.641 328.132 156.87 328.004C157.102 327.876 157.278 327.71 157.397 327.504C157.52 327.296 157.581 327.073 157.581 326.836V326.062C157.539 326.104 157.459 326.143 157.339 326.18C157.222 326.214 157.088 326.243 156.937 326.27C156.785 326.293 156.638 326.315 156.495 326.336C156.352 326.354 156.232 326.37 156.136 326.383C155.909 326.411 155.702 326.46 155.515 326.527C155.33 326.595 155.181 326.693 155.069 326.82C154.96 326.945 154.905 327.112 154.905 327.32C154.905 327.609 155.012 327.828 155.226 327.977C155.439 328.122 155.711 328.195 156.042 328.195ZM161.473 325.437V329H160.305V323H161.426V323.977H161.5C161.638 323.659 161.854 323.404 162.148 323.211C162.445 323.018 162.819 322.922 163.27 322.922C163.678 322.922 164.036 323.008 164.344 323.18C164.651 323.349 164.889 323.602 165.059 323.937C165.228 324.273 165.313 324.689 165.313 325.184V329H164.145V325.324C164.145 324.889 164.031 324.549 163.805 324.305C163.578 324.057 163.267 323.934 162.871 323.934C162.6 323.934 162.359 323.992 162.148 324.109C161.94 324.227 161.775 324.398 161.652 324.625C161.533 324.849 161.473 325.12 161.473 325.437ZM169.125 329.117C168.641 329.117 168.208 328.993 167.828 328.746C167.451 328.496 167.154 328.141 166.938 327.68C166.724 327.216 166.617 326.66 166.617 326.012C166.617 325.363 166.725 324.809 166.941 324.348C167.16 323.887 167.46 323.534 167.84 323.289C168.22 323.044 168.651 322.922 169.133 322.922C169.505 322.922 169.805 322.984 170.031 323.109C170.26 323.232 170.438 323.375 170.562 323.539C170.69 323.703 170.789 323.848 170.859 323.973H170.93V321H172.098V329H170.957V328.066H170.859C170.789 328.194 170.688 328.34 170.555 328.504C170.424 328.668 170.245 328.811 170.016 328.934C169.786 329.056 169.49 329.117 169.125 329.117ZM169.383 328.121C169.719 328.121 170.003 328.033 170.234 327.855C170.469 327.676 170.646 327.427 170.766 327.109C170.888 326.792 170.949 326.422 170.949 326C170.949 325.583 170.889 325.219 170.77 324.906C170.65 324.594 170.474 324.35 170.242 324.176C170.01 324.001 169.724 323.914 169.383 323.914C169.031 323.914 168.738 324.005 168.504 324.188C168.27 324.37 168.092 324.618 167.973 324.934C167.855 325.249 167.797 325.604 167.797 326C167.797 326.401 167.857 326.762 167.977 327.082C168.096 327.402 168.273 327.656 168.508 327.844C168.745 328.029 169.036 328.121 169.383 328.121ZM178.922 329.117C178.438 329.117 178.005 328.993 177.625 328.746C177.247 328.496 176.951 328.141 176.734 327.68C176.521 327.216 176.414 326.66 176.414 326.012C176.414 325.363 176.522 324.809 176.738 324.348C176.957 323.887 177.257 323.534 177.637 323.289C178.017 323.044 178.448 322.922 178.93 322.922C179.302 322.922 179.602 322.984 179.828 323.109C180.057 323.232 180.234 323.375 180.359 323.539C180.487 323.703 180.586 323.848 180.656 323.973H180.727V321H181.895V329H180.754V328.066H180.656C180.586 328.194 180.484 328.34 180.352 328.504C180.221 328.668 180.042 328.811 179.813 328.934C179.583 329.056 179.286 329.117 178.922 329.117ZM179.18 328.121C179.516 328.121 179.799 328.033 180.031 327.855C180.266 327.676 180.443 327.427 180.563 327.109C180.685 326.792 180.746 326.422 180.746 326C180.746 325.583 180.686 325.219 180.566 324.906C180.447 324.594 180.271 324.35 180.039 324.176C179.807 324.001 179.521 323.914 179.18 323.914C178.828 323.914 178.535 324.005 178.301 324.188C178.066 324.37 177.889 324.618 177.77 324.934C177.652 325.249 177.594 325.604 177.594 326C177.594 326.401 177.654 326.762 177.773 327.082C177.893 327.402 178.07 327.656 178.305 327.844C178.542 328.029 178.833 328.121 179.18 328.121ZM185.308 329.133C184.927 329.133 184.584 329.063 184.276 328.922C183.969 328.779 183.726 328.572 183.546 328.301C183.369 328.03 183.28 327.698 183.28 327.305C183.28 326.966 183.345 326.687 183.476 326.469C183.606 326.25 183.782 326.077 184.003 325.949C184.224 325.822 184.472 325.725 184.745 325.66C185.019 325.595 185.297 325.546 185.581 325.512C185.94 325.47 186.232 325.436 186.456 325.41C186.68 325.382 186.843 325.336 186.944 325.273C187.046 325.211 187.097 325.109 187.097 324.969V324.941C187.097 324.6 187 324.336 186.808 324.148C186.618 323.961 186.334 323.867 185.956 323.867C185.563 323.867 185.253 323.954 185.026 324.129C184.802 324.301 184.647 324.492 184.562 324.703L183.464 324.453C183.594 324.089 183.784 323.794 184.034 323.57C184.287 323.344 184.577 323.18 184.905 323.078C185.233 322.974 185.578 322.922 185.94 322.922C186.18 322.922 186.434 322.951 186.702 323.008C186.973 323.062 187.226 323.164 187.46 323.312C187.697 323.461 187.891 323.673 188.042 323.949C188.193 324.223 188.269 324.578 188.269 325.016V329H187.128V328.18H187.081C187.006 328.331 186.892 328.479 186.741 328.625C186.59 328.771 186.396 328.892 186.159 328.988C185.922 329.085 185.638 329.133 185.308 329.133ZM185.562 328.195C185.884 328.195 186.16 328.132 186.39 328.004C186.621 327.876 186.797 327.71 186.917 327.504C187.039 327.296 187.101 327.073 187.101 326.836V326.062C187.059 326.104 186.978 326.143 186.858 326.18C186.741 326.214 186.607 326.243 186.456 326.27C186.305 326.293 186.158 326.315 186.015 326.336C185.871 326.354 185.752 326.37 185.655 326.383C185.429 326.411 185.222 326.46 185.034 326.527C184.849 326.595 184.701 326.693 184.589 326.82C184.479 326.945 184.425 327.112 184.425 327.32C184.425 327.609 184.532 327.828 184.745 327.977C184.959 328.122 185.231 328.195 185.562 328.195ZM192.625 323V323.937H189.348V323H192.625ZM190.227 321.562H191.395V327.238C191.395 327.465 191.428 327.635 191.496 327.75C191.564 327.862 191.651 327.939 191.758 327.98C191.867 328.02 191.986 328.039 192.113 328.039C192.207 328.039 192.289 328.033 192.359 328.02C192.43 328.007 192.484 327.996 192.523 327.988L192.734 328.953C192.667 328.979 192.57 329.005 192.445 329.031C192.32 329.06 192.164 329.076 191.977 329.078C191.669 329.083 191.383 329.029 191.117 328.914C190.852 328.799 190.637 328.622 190.473 328.383C190.309 328.143 190.227 327.842 190.227 327.48V321.562ZM195.663 329.133C195.283 329.133 194.939 329.063 194.632 328.922C194.325 328.779 194.081 328.572 193.901 328.301C193.724 328.03 193.636 327.698 193.636 327.305C193.636 326.966 193.701 326.687 193.831 326.469C193.961 326.25 194.137 326.077 194.358 325.949C194.58 325.822 194.827 325.725 195.101 325.66C195.374 325.595 195.653 325.546 195.937 325.512C196.296 325.47 196.588 325.436 196.812 325.41C197.035 325.382 197.198 325.336 197.3 325.273C197.401 325.211 197.452 325.109 197.452 324.969V324.941C197.452 324.6 197.356 324.336 197.163 324.148C196.973 323.961 196.689 323.867 196.312 323.867C195.918 323.867 195.608 323.954 195.382 324.129C195.158 324.301 195.003 324.492 194.917 324.703L193.819 324.453C193.95 324.089 194.14 323.794 194.39 323.57C194.642 323.344 194.933 323.18 195.261 323.078C195.589 322.974 195.934 322.922 196.296 322.922C196.535 322.922 196.789 322.951 197.058 323.008C197.328 323.062 197.581 323.164 197.815 323.312C198.052 323.461 198.246 323.673 198.397 323.949C198.549 324.223 198.624 324.578 198.624 325.016V329H197.483V328.18H197.437C197.361 328.331 197.248 328.479 197.097 328.625C196.946 328.771 196.752 328.892 196.515 328.988C196.278 329.085 195.994 329.133 195.663 329.133ZM195.917 328.195C196.24 328.195 196.516 328.132 196.745 328.004C196.977 327.876 197.153 327.71 197.272 327.504C197.395 327.296 197.456 327.073 197.456 326.836V326.062C197.414 326.104 197.334 326.143 197.214 326.18C197.097 326.214 196.963 326.243 196.812 326.27C196.66 326.293 196.513 326.315 196.37 326.336C196.227 326.354 196.107 326.37 196.011 326.383C195.784 326.411 195.577 326.46 195.39 326.527C195.205 326.595 195.056 326.693 194.944 326.82C194.835 326.945 194.78 327.112 194.78 327.32C194.78 327.609 194.887 327.828 195.101 327.977C195.314 328.122 195.586 328.195 195.917 328.195ZM204.837 329.133C204.457 329.133 204.113 329.063 203.806 328.922C203.498 328.779 203.255 328.572 203.075 328.301C202.898 328.03 202.81 327.698 202.81 327.305C202.81 326.966 202.875 326.687 203.005 326.469C203.135 326.25 203.311 326.077 203.532 325.949C203.754 325.822 204.001 325.725 204.274 325.66C204.548 325.595 204.826 325.546 205.11 325.512C205.47 325.47 205.761 325.436 205.985 325.41C206.209 325.382 206.372 325.336 206.474 325.273C206.575 325.211 206.626 325.109 206.626 324.969V324.941C206.626 324.6 206.53 324.336 206.337 324.148C206.147 323.961 205.863 323.867 205.485 323.867C205.092 323.867 204.782 323.954 204.556 324.129C204.332 324.301 204.177 324.492 204.091 324.703L202.993 324.453C203.123 324.089 203.313 323.794 203.563 323.57C203.816 323.344 204.106 323.18 204.435 323.078C204.763 322.974 205.108 322.922 205.47 322.922C205.709 322.922 205.963 322.951 206.231 323.008C206.502 323.062 206.755 323.164 206.989 323.312C207.226 323.461 207.42 323.673 207.571 323.949C207.722 324.223 207.798 324.578 207.798 325.016V329H206.657V328.18H206.61C206.535 328.331 206.422 328.479 206.271 328.625C206.119 328.771 205.925 328.892 205.688 328.988C205.451 329.085 205.168 329.133 204.837 329.133ZM205.091 328.195C205.414 328.195 205.69 328.132 205.919 328.004C206.151 327.876 206.326 327.71 206.446 327.504C206.569 327.296 206.63 327.073 206.63 326.836V326.062C206.588 326.104 206.507 326.143 206.388 326.18C206.271 326.214 206.136 326.243 205.985 326.27C205.834 326.293 205.687 326.315 205.544 326.336C205.401 326.354 205.281 326.37 205.185 326.383C204.958 326.411 204.751 326.46 204.563 326.527C204.379 326.595 204.23 326.693 204.118 326.82C204.009 326.945 203.954 327.112 203.954 327.32C203.954 327.609 204.061 327.828 204.274 327.977C204.488 328.122 204.76 328.195 205.091 328.195ZM209.354 329V323H210.482V323.953H210.545C210.654 323.63 210.847 323.376 211.123 323.191C211.402 323.004 211.717 322.91 212.068 322.91C212.141 322.91 212.227 322.913 212.326 322.918C212.428 322.923 212.507 322.93 212.564 322.937V324.055C212.518 324.042 212.434 324.027 212.314 324.012C212.195 323.993 212.075 323.984 211.955 323.984C211.679 323.984 211.433 324.043 211.217 324.16C211.003 324.275 210.834 324.435 210.709 324.641C210.584 324.844 210.521 325.076 210.521 325.336V329H209.354ZM215.946 329.121C215.355 329.121 214.846 328.995 214.419 328.742C213.994 328.487 213.666 328.129 213.435 327.668C213.205 327.204 213.091 326.661 213.091 326.039C213.091 325.424 213.205 324.883 213.435 324.414C213.666 323.945 213.989 323.579 214.403 323.316C214.82 323.053 215.307 322.922 215.864 322.922C216.203 322.922 216.531 322.978 216.849 323.09C217.166 323.202 217.451 323.378 217.704 323.617C217.957 323.857 218.156 324.168 218.302 324.551C218.448 324.931 218.521 325.393 218.521 325.937V326.352H213.751V325.477H217.376C217.376 325.169 217.313 324.897 217.188 324.66C217.063 324.421 216.888 324.232 216.661 324.094C216.437 323.956 216.174 323.887 215.872 323.887C215.544 323.887 215.257 323.967 215.013 324.129C214.771 324.288 214.583 324.496 214.45 324.754C214.32 325.009 214.255 325.286 214.255 325.586V326.27C214.255 326.671 214.325 327.012 214.466 327.293C214.609 327.574 214.808 327.789 215.063 327.937C215.319 328.083 215.617 328.156 215.958 328.156C216.179 328.156 216.381 328.125 216.563 328.062C216.746 327.997 216.903 327.901 217.036 327.773C217.169 327.646 217.271 327.488 217.341 327.301L218.446 327.5C218.358 327.826 218.199 328.111 217.97 328.355C217.743 328.598 217.458 328.786 217.114 328.922C216.773 329.055 216.384 329.121 215.946 329.121ZM224.474 329.133C224.093 329.133 223.75 329.063 223.442 328.922C223.135 328.779 222.892 328.572 222.712 328.301C222.535 328.03 222.446 327.698 222.446 327.305C222.446 326.966 222.511 326.687 222.642 326.469C222.772 326.25 222.948 326.077 223.169 325.949C223.39 325.822 223.638 325.725 223.911 325.66C224.185 325.595 224.463 325.546 224.747 325.512C225.106 325.47 225.398 325.436 225.622 325.41C225.846 325.382 226.009 325.336 226.11 325.273C226.212 325.211 226.263 325.109 226.263 324.969V324.941C226.263 324.6 226.166 324.336 225.974 324.148C225.784 323.961 225.5 323.867 225.122 323.867C224.729 323.867 224.419 323.954 224.192 324.129C223.968 324.301 223.813 324.492 223.728 324.703L222.63 324.453C222.76 324.089 222.95 323.794 223.2 323.57C223.453 323.344 223.743 323.18 224.071 323.078C224.399 322.974 224.744 322.922 225.106 322.922C225.346 322.922 225.6 322.951 225.868 323.008C226.139 323.062 226.392 323.164 226.626 323.312C226.863 323.461 227.057 323.673 227.208 323.949C227.359 324.223 227.435 324.578 227.435 325.016V329H226.294V328.18H226.247C226.172 328.331 226.058 328.479 225.907 328.625C225.756 328.771 225.562 328.892 225.325 328.988C225.088 329.085 224.804 329.133 224.474 329.133ZM224.728 328.195C225.05 328.195 225.326 328.132 225.556 328.004C225.787 327.876 225.963 327.71 226.083 327.504C226.205 327.296 226.267 327.073 226.267 326.836V326.062C226.225 326.104 226.144 326.143 226.024 326.18C225.907 326.214 225.773 326.243 225.622 326.27C225.471 326.293 225.324 326.315 225.181 326.336C225.037 326.354 224.918 326.37 224.821 326.383C224.595 326.411 224.388 326.46 224.2 326.527C224.015 326.595 223.867 326.693 223.755 326.82C223.646 326.945 223.591 327.112 223.591 327.32C223.591 327.609 223.698 327.828 223.911 327.977C224.125 328.122 224.397 328.195 224.728 328.195ZM230.158 321V329H228.99V321H230.158ZM233.03 329L231.265 323H232.472L233.647 327.406H233.706L234.886 323H236.093L237.265 327.387H237.323L238.491 323H239.698L237.937 329H236.745L235.526 324.668H235.437L234.218 329H233.03ZM242.553 329.133C242.173 329.133 241.829 329.063 241.521 328.922C241.214 328.779 240.971 328.572 240.791 328.301C240.614 328.03 240.525 327.698 240.525 327.305C240.525 326.966 240.59 326.687 240.721 326.469C240.851 326.25 241.027 326.077 241.248 325.949C241.469 325.822 241.717 325.725 241.99 325.66C242.264 325.595 242.542 325.546 242.826 325.512C243.186 325.47 243.477 325.436 243.701 325.41C243.925 325.382 244.088 325.336 244.189 325.273C244.291 325.211 244.342 325.109 244.342 324.969V324.941C244.342 324.6 244.245 324.336 244.053 324.148C243.863 323.961 243.579 323.867 243.201 323.867C242.808 323.867 242.498 323.954 242.271 324.129C242.048 324.301 241.893 324.492 241.807 324.703L240.709 324.453C240.839 324.089 241.029 323.794 241.279 323.57C241.532 323.344 241.822 323.18 242.15 323.078C242.479 322.974 242.824 322.922 243.186 322.922C243.425 322.922 243.679 322.951 243.947 323.008C244.218 323.062 244.471 323.164 244.705 323.312C244.942 323.461 245.136 323.673 245.287 323.949C245.438 324.223 245.514 324.578 245.514 325.016V329H244.373V328.18H244.326C244.251 328.331 244.137 328.479 243.986 328.625C243.835 328.771 243.641 328.892 243.404 328.988C243.167 329.085 242.883 329.133 242.553 329.133ZM242.807 328.195C243.13 328.195 243.406 328.132 243.635 328.004C243.867 327.876 244.042 327.71 244.162 327.504C244.285 327.296 244.346 327.073 244.346 326.836V326.062C244.304 326.104 244.223 326.143 244.104 326.18C243.986 326.214 243.852 326.243 243.701 326.27C243.55 326.293 243.403 326.315 243.26 326.336C243.117 326.354 242.997 326.37 242.9 326.383C242.674 326.411 242.467 326.46 242.279 326.527C242.094 326.595 241.946 326.693 241.834 326.82C241.725 326.945 241.67 327.112 241.67 327.32C241.67 327.609 241.777 327.828 241.99 327.977C242.204 328.122 242.476 328.195 242.807 328.195ZM247.593 331.25C247.418 331.25 247.259 331.236 247.116 331.207C246.973 331.181 246.866 331.152 246.796 331.121L247.077 330.164C247.291 330.221 247.481 330.246 247.647 330.238C247.814 330.23 247.961 330.168 248.089 330.051C248.219 329.934 248.334 329.742 248.433 329.477L248.577 329.078L246.382 323H247.632L249.151 327.656H249.214L250.733 323H251.987L249.515 329.801C249.4 330.113 249.254 330.378 249.077 330.594C248.9 330.813 248.689 330.977 248.444 331.086C248.2 331.195 247.916 331.25 247.593 331.25ZM257.581 324.465L256.522 324.652C256.478 324.517 256.408 324.388 256.312 324.266C256.218 324.143 256.09 324.043 255.929 323.965C255.767 323.887 255.565 323.848 255.323 323.848C254.993 323.848 254.716 323.922 254.495 324.07C254.274 324.216 254.163 324.405 254.163 324.637C254.163 324.837 254.237 324.999 254.386 325.121C254.534 325.243 254.774 325.344 255.104 325.422L256.058 325.641C256.61 325.768 257.021 325.965 257.292 326.23C257.563 326.496 257.698 326.841 257.698 327.266C257.698 327.625 257.594 327.945 257.386 328.227C257.18 328.505 256.892 328.724 256.522 328.883C256.155 329.042 255.729 329.121 255.245 329.121C254.573 329.121 254.025 328.978 253.601 328.691C253.176 328.402 252.916 327.992 252.819 327.461L253.948 327.289C254.019 327.583 254.163 327.806 254.382 327.957C254.601 328.105 254.886 328.18 255.237 328.18C255.62 328.18 255.926 328.1 256.155 327.941C256.384 327.78 256.499 327.583 256.499 327.352C256.499 327.164 256.429 327.007 256.288 326.879C256.15 326.751 255.938 326.655 255.651 326.59L254.636 326.367C254.076 326.24 253.662 326.036 253.394 325.758C253.128 325.479 252.995 325.126 252.995 324.699C252.995 324.345 253.094 324.035 253.292 323.77C253.49 323.504 253.763 323.297 254.112 323.148C254.461 322.997 254.861 322.922 255.312 322.922C255.96 322.922 256.47 323.062 256.843 323.344C257.215 323.622 257.461 323.996 257.581 324.465ZM114.468 344.25V336H115.608V336.973H115.706C115.774 336.848 115.871 336.703 115.999 336.539C116.127 336.375 116.304 336.232 116.53 336.109C116.757 335.984 117.056 335.922 117.429 335.922C117.913 335.922 118.345 336.044 118.726 336.289C119.106 336.534 119.404 336.887 119.62 337.348C119.839 337.809 119.948 338.363 119.948 339.012C119.948 339.66 119.84 340.216 119.624 340.68C119.408 341.141 119.111 341.496 118.733 341.746C118.356 341.993 117.925 342.117 117.44 342.117C117.076 342.117 116.778 342.056 116.546 341.934C116.317 341.811 116.137 341.668 116.007 341.504C115.877 341.34 115.776 341.194 115.706 341.066H115.636V344.25H114.468ZM115.612 339C115.612 339.422 115.674 339.792 115.796 340.109C115.918 340.427 116.095 340.676 116.327 340.855C116.559 341.033 116.843 341.121 117.179 341.121C117.528 341.121 117.819 341.029 118.054 340.844C118.288 340.656 118.465 340.402 118.585 340.082C118.707 339.762 118.769 339.401 118.769 339C118.769 338.604 118.709 338.249 118.589 337.934C118.472 337.618 118.295 337.37 118.058 337.188C117.823 337.005 117.53 336.914 117.179 336.914C116.84 336.914 116.554 337.001 116.319 337.176C116.088 337.35 115.912 337.594 115.792 337.906C115.672 338.219 115.612 338.583 115.612 339ZM121.257 342V336H122.386V336.953H122.448C122.558 336.63 122.75 336.376 123.026 336.191C123.305 336.004 123.62 335.91 123.972 335.91C124.045 335.91 124.131 335.913 124.229 335.918C124.331 335.923 124.41 335.93 124.468 335.937V337.055C124.421 337.042 124.338 337.027 124.218 337.012C124.098 336.993 123.978 336.984 123.858 336.984C123.582 336.984 123.336 337.043 123.12 337.16C122.907 337.275 122.737 337.435 122.612 337.641C122.487 337.844 122.425 338.076 122.425 338.336V342H121.257ZM127.791 342.121C127.229 342.121 126.738 341.992 126.318 341.734C125.899 341.477 125.574 341.116 125.342 340.652C125.11 340.189 124.994 339.647 124.994 339.027C124.994 338.405 125.11 337.861 125.342 337.395C125.574 336.928 125.899 336.566 126.318 336.309C126.738 336.051 127.229 335.922 127.791 335.922C128.354 335.922 128.844 336.051 129.264 336.309C129.683 336.566 130.008 336.928 130.24 337.395C130.472 337.861 130.588 338.405 130.588 339.027C130.588 339.647 130.472 340.189 130.24 340.652C130.008 341.116 129.683 341.477 129.264 341.734C128.844 341.992 128.354 342.121 127.791 342.121ZM127.795 341.141C128.16 341.141 128.462 341.044 128.701 340.852C128.941 340.659 129.118 340.402 129.232 340.082C129.35 339.762 129.408 339.409 129.408 339.023C129.408 338.641 129.35 338.289 129.232 337.969C129.118 337.646 128.941 337.387 128.701 337.191C128.462 336.996 128.16 336.898 127.795 336.898C127.428 336.898 127.123 336.996 126.881 337.191C126.641 337.387 126.463 337.646 126.346 337.969C126.231 338.289 126.174 338.641 126.174 339.023C126.174 339.409 126.231 339.762 126.346 340.082C126.463 340.402 126.641 340.659 126.881 340.852C127.123 341.044 127.428 341.141 127.795 341.141ZM134.692 336V336.937H131.415V336H134.692ZM132.294 334.562H133.462V340.238C133.462 340.465 133.496 340.635 133.563 340.75C133.631 340.862 133.718 340.939 133.825 340.98C133.935 341.02 134.053 341.039 134.181 341.039C134.274 341.039 134.356 341.033 134.427 341.02C134.497 341.007 134.552 340.996 134.591 340.988L134.802 341.953C134.734 341.979 134.638 342.005 134.513 342.031C134.388 342.06 134.231 342.076 134.044 342.078C133.737 342.083 133.45 342.029 133.185 341.914C132.919 341.799 132.704 341.622 132.54 341.383C132.376 341.143 132.294 340.842 132.294 340.48V334.562ZM138.506 342.121C137.915 342.121 137.406 341.995 136.979 341.742C136.554 341.487 136.226 341.129 135.994 340.668C135.765 340.204 135.65 339.661 135.65 339.039C135.65 338.424 135.765 337.883 135.994 337.414C136.226 336.945 136.549 336.579 136.963 336.316C137.38 336.053 137.867 335.922 138.424 335.922C138.762 335.922 139.09 335.978 139.408 336.09C139.726 336.202 140.011 336.378 140.264 336.617C140.516 336.857 140.715 337.168 140.861 337.551C141.007 337.931 141.08 338.393 141.08 338.937V339.352H136.311V338.477H139.936C139.936 338.169 139.873 337.897 139.748 337.66C139.623 337.421 139.447 337.232 139.221 337.094C138.997 336.956 138.734 336.887 138.432 336.887C138.104 336.887 137.817 336.967 137.572 337.129C137.33 337.288 137.143 337.496 137.01 337.754C136.88 338.009 136.814 338.286 136.814 338.586V339.27C136.814 339.671 136.885 340.012 137.025 340.293C137.169 340.574 137.368 340.789 137.623 340.937C137.878 341.083 138.176 341.156 138.518 341.156C138.739 341.156 138.941 341.125 139.123 341.062C139.305 340.997 139.463 340.901 139.596 340.773C139.729 340.646 139.83 340.488 139.9 340.301L141.006 340.5C140.917 340.826 140.758 341.111 140.529 341.355C140.303 341.598 140.018 341.786 139.674 341.922C139.333 342.055 138.943 342.121 138.506 342.121ZM144.903 342.121C144.323 342.121 143.823 341.99 143.403 341.727C142.987 341.461 142.666 341.095 142.442 340.629C142.218 340.163 142.106 339.629 142.106 339.027C142.106 338.418 142.221 337.88 142.45 337.414C142.679 336.945 143.002 336.579 143.419 336.316C143.836 336.053 144.326 335.922 144.892 335.922C145.347 335.922 145.754 336.007 146.11 336.176C146.467 336.342 146.755 336.577 146.974 336.879C147.195 337.181 147.326 337.534 147.368 337.937H146.231C146.169 337.656 146.026 337.414 145.802 337.211C145.58 337.008 145.284 336.906 144.911 336.906C144.586 336.906 144.3 336.992 144.056 337.164C143.813 337.333 143.625 337.576 143.489 337.891C143.354 338.203 143.286 338.573 143.286 339C143.286 339.437 143.353 339.815 143.485 340.133C143.618 340.451 143.806 340.697 144.048 340.871C144.293 341.046 144.58 341.133 144.911 341.133C145.132 341.133 145.333 341.092 145.513 341.012C145.695 340.928 145.847 340.81 145.97 340.656C146.095 340.503 146.182 340.318 146.231 340.102H147.368C147.326 340.49 147.2 340.836 146.989 341.141C146.778 341.445 146.496 341.685 146.142 341.859C145.79 342.034 145.377 342.121 144.903 342.121ZM151.418 336V336.937H148.141V336H151.418ZM149.02 334.562H150.188V340.238C150.188 340.465 150.221 340.635 150.289 340.75C150.357 340.862 150.444 340.939 150.551 340.98C150.66 341.02 150.779 341.039 150.906 341.039C151 341.039 151.082 341.033 151.152 341.02C151.223 341.007 151.277 340.996 151.316 340.988L151.527 341.953C151.46 341.979 151.363 342.005 151.238 342.031C151.113 342.06 150.957 342.076 150.77 342.078C150.462 342.083 150.176 342.029 149.91 341.914C149.645 341.799 149.43 341.622 149.266 341.383C149.102 341.143 149.02 340.842 149.02 340.48V334.562ZM155.231 342.121C154.64 342.121 154.131 341.995 153.704 341.742C153.28 341.487 152.951 341.129 152.72 340.668C152.491 340.204 152.376 339.661 152.376 339.039C152.376 338.424 152.491 337.883 152.72 337.414C152.951 336.945 153.274 336.579 153.688 336.316C154.105 336.053 154.592 335.922 155.149 335.922C155.488 335.922 155.816 335.978 156.134 336.09C156.451 336.202 156.737 336.378 156.989 336.617C157.242 336.857 157.441 337.168 157.587 337.551C157.733 337.931 157.806 338.393 157.806 338.937V339.352H153.036V338.477H156.661C156.661 338.169 156.599 337.897 156.474 337.66C156.349 337.421 156.173 337.232 155.946 337.094C155.722 336.956 155.459 336.887 155.157 336.887C154.829 336.887 154.543 336.967 154.298 337.129C154.056 337.288 153.868 337.496 153.735 337.754C153.605 338.009 153.54 338.286 153.54 338.586V339.27C153.54 339.671 153.61 340.012 153.751 340.293C153.894 340.574 154.093 340.789 154.349 340.937C154.604 341.083 154.902 341.156 155.243 341.156C155.465 341.156 155.666 341.125 155.849 341.062C156.031 340.997 156.188 340.901 156.321 340.773C156.454 340.646 156.556 340.488 156.626 340.301L157.731 340.5C157.643 340.826 157.484 341.111 157.255 341.355C157.028 341.598 156.743 341.786 156.399 341.922C156.058 342.055 155.669 342.121 155.231 342.121ZM161.348 342.117C160.863 342.117 160.431 341.993 160.051 341.746C159.673 341.496 159.376 341.141 159.16 340.68C158.947 340.216 158.84 339.66 158.84 339.012C158.84 338.363 158.948 337.809 159.164 337.348C159.383 336.887 159.682 336.534 160.063 336.289C160.443 336.044 160.874 335.922 161.355 335.922C161.728 335.922 162.027 335.984 162.254 336.109C162.483 336.232 162.66 336.375 162.785 336.539C162.913 336.703 163.012 336.848 163.082 336.973H163.152V334H164.32V342H163.18V341.066H163.082C163.012 341.194 162.91 341.34 162.777 341.504C162.647 341.668 162.467 341.811 162.238 341.934C162.009 342.056 161.712 342.117 161.348 342.117ZM161.605 341.121C161.941 341.121 162.225 341.033 162.457 340.855C162.691 340.676 162.868 340.427 162.988 340.109C163.111 339.792 163.172 339.422 163.172 339C163.172 338.583 163.112 338.219 162.992 337.906C162.872 337.594 162.697 337.35 162.465 337.176C162.233 337.001 161.947 336.914 161.605 336.914C161.254 336.914 160.961 337.005 160.727 337.188C160.492 337.37 160.315 337.618 160.195 337.934C160.078 338.249 160.02 338.604 160.02 339C160.02 339.401 160.079 339.762 160.199 340.082C160.319 340.402 160.496 340.656 160.73 340.844C160.967 341.029 161.259 341.121 161.605 341.121ZM166.757 342.074C166.543 342.074 166.36 341.999 166.206 341.848C166.052 341.694 165.976 341.509 165.976 341.293C165.976 341.079 166.052 340.897 166.206 340.746C166.36 340.592 166.543 340.516 166.757 340.516C166.97 340.516 167.154 340.592 167.308 340.746C167.461 340.897 167.538 341.079 167.538 341.293C167.538 341.436 167.502 341.568 167.429 341.687C167.358 341.805 167.265 341.898 167.147 341.969C167.03 342.039 166.9 342.074 166.757 342.074Z" fill="black"/>
</svg>
