<svg width="848" height="193" viewBox="0 0 848 193" fill="none" xmlns="http://www.w3.org/2000/svg">
<path fill-rule="evenodd" clip-rule="evenodd" d="M97.889 193H193.141C192.839 134.637 148.865 97.748 97.889 97.748V193Z" fill="#F44708"/>
<path fill-rule="evenodd" clip-rule="evenodd" d="M0 95.3023V193L194.481 0H95.3023L0 95.3023Z" fill="#80040B"/>
<path d="M222.362 97.8914V43.6246H233.835V67.5518H234.551L254.08 43.6246H267.832L247.694 67.9227L268.07 97.8914H254.344L239.479 75.5805L233.835 82.4698V97.8914H222.362ZM288.997 98.6863C284.881 98.6863 281.321 97.8119 278.318 96.063C275.333 94.2965 273.027 91.8411 271.402 88.6967C269.777 85.5347 268.964 81.8692 268.964 77.7003C268.964 73.496 269.777 69.8217 271.402 66.6774C273.027 63.5153 275.333 61.0599 278.318 59.3111C281.321 57.5446 284.881 56.6613 288.997 56.6613C293.112 56.6613 296.663 57.5446 299.648 59.3111C302.652 61.0599 304.966 63.5153 306.591 66.6774C308.216 69.8217 309.029 73.496 309.029 77.7003C309.029 81.8692 308.216 85.5347 306.591 88.6967C304.966 91.8411 302.652 94.2965 299.648 96.063C296.663 97.8119 293.112 98.6863 288.997 98.6863ZM289.05 89.9421C290.922 89.9421 292.485 89.4122 293.74 88.3523C294.994 87.2747 295.939 85.8085 296.575 83.9537C297.228 82.0989 297.555 79.9879 297.555 77.6208C297.555 75.2537 297.228 73.1427 296.575 71.2879C295.939 69.4331 294.994 67.9669 293.74 66.8893C292.485 65.8118 290.922 65.273 289.05 65.273C287.159 65.273 285.57 65.8118 284.28 66.8893C283.008 67.9669 282.045 69.4331 281.392 71.2879C280.756 73.1427 280.438 75.2537 280.438 77.6208C280.438 79.9879 280.756 82.0989 281.392 83.9537C282.045 85.8085 283.008 87.2747 284.28 88.3523C285.57 89.4122 287.159 89.9421 289.05 89.9421ZM316.368 97.8914V57.1913H327.656V97.8914H316.368ZM322.039 51.9448C320.361 51.9448 318.921 51.3883 317.72 50.2754C316.536 49.1449 315.944 47.7935 315.944 46.2213C315.944 44.6668 316.536 43.3331 317.72 42.2202C318.921 41.0897 320.361 40.5244 322.039 40.5244C323.717 40.5244 325.148 41.0897 326.331 42.2202C327.533 43.3331 328.133 44.6668 328.133 46.2213C328.133 47.7935 327.533 49.1449 326.331 50.2754C325.148 51.3883 323.717 51.9448 322.039 51.9448ZM347.986 74.3616V97.8914H336.699V57.1913H347.457V64.3721H347.933C348.834 62.005 350.345 60.1325 352.465 58.7546C354.584 57.3591 357.155 56.6613 360.175 56.6613C363.002 56.6613 365.466 57.2796 367.568 58.5161C369.67 59.7527 371.304 61.5192 372.47 63.8156C373.636 66.0944 374.219 68.8148 374.219 71.9768V97.8914H362.931V73.9907C362.949 71.4999 362.313 69.5567 361.023 68.1612C359.734 66.748 357.958 66.0414 355.697 66.0414C354.178 66.0414 352.835 66.3682 351.67 67.0218C350.521 67.6754 349.62 68.6293 348.967 69.8836C348.331 71.1201 348.004 72.6128 347.986 74.3616ZM412.766 59.2316C412.554 57.0941 411.644 55.4336 410.037 54.2501C408.429 53.0665 406.248 52.4747 403.492 52.4747C401.62 52.4747 400.039 52.7397 398.749 53.2696C397.459 53.7819 396.47 54.4974 395.781 55.4159C395.11 56.3345 394.774 57.3768 394.774 58.5426C394.739 59.5142 394.942 60.3621 395.384 61.0864C395.843 61.8107 396.47 62.4378 397.265 62.9677C398.06 63.48 398.979 63.9305 400.021 64.3191C401.063 64.6901 402.176 65.008 403.36 65.273L408.235 66.4389C410.602 66.9688 412.775 67.6754 414.753 68.5587C416.732 69.4419 418.445 70.5283 419.894 71.8179C421.342 73.1074 422.464 74.6266 423.259 76.3754C424.072 78.1243 424.487 80.1292 424.504 82.3903C424.487 85.7114 423.639 88.5908 421.961 91.0285C420.3 93.4486 417.898 95.3299 414.753 96.6725C411.627 97.9973 407.855 98.6598 403.439 98.6598C399.058 98.6598 395.242 97.9885 391.992 96.646C388.759 95.3034 386.233 93.3161 384.414 90.6841C382.612 88.0343 381.667 84.7575 381.579 80.8535H392.681C392.805 82.673 393.326 84.1922 394.244 85.4111C395.181 86.6123 396.426 87.522 397.981 88.1403C399.553 88.7409 401.328 89.0412 403.307 89.0412C405.25 89.0412 406.937 88.7586 408.368 88.1933C409.816 87.628 410.938 86.8419 411.733 85.835C412.528 84.8281 412.925 83.6711 412.925 82.3639C412.925 81.145 412.563 80.1204 411.839 79.2901C411.132 78.4599 410.09 77.7533 408.712 77.1704C407.352 76.5874 405.682 76.0575 403.704 75.5805L397.795 74.0966C393.22 72.9838 389.607 71.2438 386.958 68.8766C384.308 66.5095 382.992 63.321 383.009 59.3111C382.992 56.0254 383.866 53.1548 385.633 50.6994C387.417 48.244 389.863 46.3273 392.973 44.9494C396.082 43.5716 399.615 42.8826 403.572 42.8826C407.599 42.8826 411.114 43.5716 414.117 44.9494C417.138 46.3273 419.488 48.244 421.166 50.6994C422.844 53.1548 423.71 55.9989 423.763 59.2316H412.766ZM453.658 57.1913V65.6705H429.148V57.1913H453.658ZM434.713 47.4402H446.001V85.3846C446.001 86.4268 446.16 87.2394 446.477 87.8223C446.795 88.3876 447.237 88.7851 447.802 89.0147C448.385 89.2444 449.057 89.3592 449.816 89.3592C450.346 89.3592 450.876 89.315 451.406 89.2267C451.936 89.1207 452.342 89.0412 452.625 88.9882L454.4 97.3879C453.835 97.5646 453.04 97.7677 452.015 97.9973C450.991 98.2447 449.746 98.3948 448.279 98.4478C445.559 98.5538 443.174 98.1917 441.125 97.3614C439.094 96.5312 437.513 95.2416 436.382 93.4928C435.251 91.7439 434.695 89.5358 434.713 86.8684V47.4402ZM472.617 98.6598C470.02 98.6598 467.706 98.2093 465.675 97.3084C463.643 96.3898 462.036 95.0385 460.852 93.2543C459.686 91.4525 459.104 89.209 459.104 86.524C459.104 84.2628 459.519 82.3639 460.349 80.827C461.179 79.2901 462.31 78.0536 463.741 77.1174C465.171 76.1811 466.797 75.4745 468.616 74.9976C470.453 74.5206 472.379 74.185 474.393 73.9907C476.76 73.7433 478.667 73.5137 480.116 73.3017C481.565 73.0721 482.616 72.7364 483.269 72.2948C483.923 71.8532 484.25 71.1996 484.25 70.334V70.175C484.25 68.4969 483.72 67.1985 482.66 66.2799C481.618 65.3613 480.134 64.902 478.208 64.902C476.177 64.902 474.56 65.3525 473.359 66.2534C472.158 67.1366 471.363 68.2495 470.974 69.5921L460.534 68.7442C461.064 66.2711 462.107 64.1336 463.661 62.3318C465.216 60.5123 467.221 59.1168 469.676 58.1452C472.149 57.1559 475.011 56.6613 478.261 56.6613C480.522 56.6613 482.686 56.9263 484.753 57.4562C486.838 57.9862 488.684 58.8076 490.291 59.9205C491.916 61.0334 493.197 62.4643 494.133 64.2131C495.069 65.9443 495.538 68.0199 495.538 70.44V97.8914H484.833V92.2474H484.515C483.861 93.5193 482.987 94.641 481.891 95.6126C480.796 96.5665 479.48 97.3172 477.943 97.8649C476.406 98.3948 474.631 98.6598 472.617 98.6598ZM475.85 90.8695C477.51 90.8695 478.977 90.5427 480.248 89.8891C481.52 89.2179 482.518 88.3169 483.243 87.1864C483.967 86.0558 484.329 84.7751 484.329 83.3443V79.0252C483.976 79.2548 483.49 79.4668 482.872 79.6611C482.271 79.8378 481.591 80.0056 480.831 80.1646C480.072 80.3059 479.312 80.4384 478.553 80.562C477.793 80.668 477.104 80.7652 476.486 80.8535C475.161 81.0478 474.004 81.3569 473.015 81.7809C472.025 82.2049 471.257 82.779 470.709 83.5032C470.162 84.2098 469.888 85.0931 469.888 86.153C469.888 87.6898 470.444 88.8646 471.557 89.6771C472.688 90.4721 474.119 90.8695 475.85 90.8695ZM522.684 98.6863C518.515 98.6863 514.929 97.803 511.926 96.0365C508.941 94.2524 506.644 91.7793 505.037 88.6172C503.447 85.4552 502.652 81.8162 502.652 77.7003C502.652 73.5314 503.456 69.8747 505.063 66.7304C506.689 63.5683 508.994 61.1041 511.979 59.3376C514.965 57.5534 518.515 56.6613 522.631 56.6613C526.182 56.6613 529.291 57.3061 531.958 58.5956C534.626 59.8852 536.737 61.6958 538.291 64.0276C539.846 66.3594 540.702 69.0975 540.861 72.2418H530.209C529.909 70.2104 529.114 68.5763 527.825 67.3398C526.553 66.0856 524.883 65.4585 522.817 65.4585C521.068 65.4585 519.54 65.9354 518.233 66.8893C516.943 67.8256 515.936 69.1946 515.212 70.9964C514.488 72.7983 514.125 74.9799 514.125 77.5413C514.125 80.1381 514.479 82.3462 515.185 84.1657C515.91 85.9852 516.925 87.3719 518.233 88.3258C519.54 89.2797 521.068 89.7566 522.817 89.7566C524.106 89.7566 525.263 89.4917 526.288 88.9617C527.33 88.4318 528.187 87.6633 528.858 86.6564C529.547 85.6319 529.997 84.4042 530.209 82.9733H540.861C540.685 86.0823 539.837 88.8204 538.318 91.1875C536.816 93.5369 534.741 95.3741 532.091 96.699C529.441 98.0238 526.305 98.6863 522.684 98.6863ZM558.317 86.1795L558.343 72.6393H559.986L573.023 57.1913H585.98L568.465 77.6473H565.789L558.317 86.1795ZM548.089 97.8914V43.6246H559.376V97.8914H548.089ZM573.526 97.8914L561.549 80.1646L569.075 72.1888L586.748 97.8914H573.526Z" fill="#80040B"/>
<path d="M220.626 158.109V130.976H237.452V134.5H224.72V142.767H236.247V146.278H224.72V158.109H220.626ZM242.169 158.109V137.759H246.13V158.109H242.169ZM244.169 134.619C243.481 134.619 242.889 134.39 242.394 133.93C241.908 133.462 241.665 132.906 241.665 132.261C241.665 131.608 241.908 131.051 242.394 130.592C242.889 130.124 243.481 129.89 244.169 129.89C244.858 129.89 245.446 130.124 245.932 130.592C246.426 131.051 246.673 131.608 246.673 132.261C246.673 132.906 246.426 133.462 245.932 133.93C245.446 134.39 244.858 134.619 244.169 134.619ZM255.421 146.027V158.109H251.46V137.759H255.262V141.072H255.514C255.982 139.994 256.715 139.128 257.713 138.475C258.72 137.821 259.987 137.494 261.515 137.494C262.902 137.494 264.117 137.786 265.159 138.369C266.201 138.943 267.009 139.8 267.583 140.939C268.157 142.078 268.444 143.487 268.444 145.165V158.109H264.483V145.642C264.483 144.167 264.099 143.015 263.33 142.184C262.562 141.345 261.507 140.926 260.164 140.926C259.245 140.926 258.428 141.125 257.713 141.522C257.006 141.919 256.446 142.502 256.03 143.271C255.624 144.03 255.421 144.949 255.421 146.027ZM279.679 158.56C278.39 158.56 277.224 158.321 276.182 157.844C275.139 157.359 274.314 156.656 273.704 155.738C273.104 154.819 272.803 153.693 272.803 152.359C272.803 151.211 273.024 150.266 273.466 149.524C273.907 148.782 274.504 148.195 275.254 147.762C276.005 147.329 276.844 147.003 277.772 146.782C278.699 146.561 279.644 146.393 280.607 146.278C281.826 146.137 282.815 146.022 283.574 145.934C284.334 145.837 284.886 145.682 285.231 145.47C285.575 145.258 285.747 144.914 285.747 144.437V144.344C285.747 143.187 285.42 142.29 284.767 141.654C284.122 141.019 283.159 140.701 281.879 140.701C280.545 140.701 279.494 140.996 278.725 141.588C277.966 142.171 277.44 142.82 277.149 143.536L273.426 142.688C273.868 141.451 274.512 140.453 275.36 139.694C276.217 138.925 277.202 138.369 278.315 138.024C279.428 137.671 280.598 137.494 281.826 137.494C282.638 137.494 283.499 137.592 284.409 137.786C285.328 137.971 286.184 138.316 286.979 138.819C287.783 139.323 288.441 140.043 288.953 140.979C289.466 141.906 289.722 143.112 289.722 144.596V158.109H285.853V155.327H285.694C285.438 155.839 285.054 156.343 284.542 156.837C284.029 157.332 283.371 157.743 282.568 158.07C281.764 158.396 280.801 158.56 279.679 158.56ZM280.541 155.38C281.636 155.38 282.572 155.164 283.349 154.731C284.135 154.298 284.732 153.733 285.138 153.035C285.553 152.329 285.761 151.573 285.761 150.77V148.146C285.619 148.288 285.345 148.42 284.939 148.544C284.542 148.659 284.087 148.76 283.574 148.849C283.062 148.928 282.563 149.003 282.077 149.074C281.592 149.136 281.185 149.189 280.858 149.233C280.09 149.33 279.388 149.493 278.752 149.723C278.125 149.953 277.621 150.284 277.242 150.717C276.871 151.141 276.685 151.706 276.685 152.412C276.685 153.393 277.047 154.135 277.772 154.638C278.496 155.133 279.419 155.38 280.541 155.38ZM298.96 146.027V158.109H294.998V137.759H298.801V141.072H299.052C299.52 139.994 300.254 139.128 301.252 138.475C302.258 137.821 303.526 137.494 305.054 137.494C306.441 137.494 307.655 137.786 308.697 138.369C309.74 138.943 310.548 139.8 311.122 140.939C311.696 142.078 311.983 143.487 311.983 145.165V158.109H308.022V145.642C308.022 144.167 307.637 143.015 306.869 142.184C306.101 141.345 305.045 140.926 303.703 140.926C302.784 140.926 301.967 141.125 301.252 141.522C300.545 141.919 299.984 142.502 299.569 143.271C299.163 144.03 298.96 144.949 298.96 146.027ZM325.868 158.52C323.898 158.52 322.202 158.074 320.78 157.182C319.367 156.281 318.281 155.04 317.521 153.459C316.761 151.878 316.382 150.067 316.382 148.027C316.382 145.96 316.77 144.136 317.548 142.555C318.325 140.966 319.42 139.725 320.833 138.832C322.246 137.94 323.911 137.494 325.828 137.494C327.374 137.494 328.752 137.781 329.962 138.356C331.172 138.921 332.148 139.716 332.89 140.74C333.64 141.765 334.086 142.962 334.228 144.331H330.372C330.16 143.377 329.675 142.555 328.915 141.866C328.164 141.178 327.157 140.833 325.894 140.833C324.79 140.833 323.823 141.125 322.993 141.707C322.171 142.282 321.531 143.103 321.072 144.172C320.612 145.232 320.383 146.486 320.383 147.934C320.383 149.418 320.608 150.699 321.058 151.776C321.509 152.854 322.145 153.689 322.966 154.28C323.797 154.872 324.772 155.168 325.894 155.168C326.645 155.168 327.325 155.031 327.935 154.757C328.553 154.475 329.069 154.073 329.485 153.552C329.909 153.031 330.204 152.404 330.372 151.67H334.228C334.086 152.987 333.658 154.161 332.943 155.195C332.227 156.228 331.269 157.041 330.068 157.632C328.875 158.224 327.475 158.52 325.868 158.52ZM347.235 158.52C345.23 158.52 343.503 158.092 342.054 157.235C340.615 156.369 339.502 155.155 338.716 153.592C337.938 152.019 337.55 150.178 337.55 148.067C337.55 145.982 337.938 144.145 338.716 142.555C339.502 140.966 340.597 139.725 342.001 138.832C343.415 137.94 345.066 137.494 346.956 137.494C348.105 137.494 349.217 137.684 350.295 138.064C351.373 138.444 352.34 139.04 353.197 139.853C354.053 140.665 354.729 141.721 355.224 143.019C355.718 144.309 355.966 145.876 355.966 147.722V149.127H339.789V146.159H352.084C352.084 145.117 351.872 144.194 351.448 143.39C351.024 142.577 350.428 141.937 349.659 141.469C348.9 141.001 348.007 140.767 346.983 140.767C345.87 140.767 344.898 141.041 344.068 141.588C343.247 142.127 342.611 142.834 342.16 143.708C341.719 144.574 341.498 145.514 341.498 146.53V148.849C341.498 150.209 341.736 151.366 342.213 152.32C342.699 153.274 343.375 154.002 344.24 154.506C345.106 155 346.117 155.248 347.274 155.248C348.025 155.248 348.71 155.142 349.328 154.93C349.946 154.709 350.481 154.382 350.931 153.949C351.381 153.516 351.726 152.982 351.964 152.346L355.714 153.022C355.413 154.126 354.875 155.093 354.097 155.923C353.329 156.745 352.362 157.385 351.196 157.844C350.039 158.295 348.718 158.52 347.235 158.52ZM365.515 154.4L365.316 155.844C365.183 156.904 364.958 158.008 364.64 159.156C364.331 160.313 364.009 161.386 363.673 162.375C363.346 163.365 363.077 164.151 362.865 164.734H360.056C360.171 164.186 360.33 163.444 360.533 162.508C360.736 161.581 360.935 160.543 361.129 159.395C361.324 158.246 361.469 157.076 361.566 155.884L361.699 154.4H365.515ZM395.794 142.728L392.204 143.364C392.054 142.904 391.815 142.467 391.489 142.052C391.171 141.637 390.738 141.297 390.19 141.032C389.643 140.767 388.958 140.634 388.137 140.634C387.015 140.634 386.079 140.886 385.328 141.389C384.577 141.884 384.202 142.524 384.202 143.311C384.202 143.991 384.454 144.538 384.957 144.953C385.46 145.369 386.273 145.709 387.395 145.974L390.627 146.715C392.5 147.148 393.896 147.815 394.814 148.716C395.733 149.617 396.192 150.787 396.192 152.227C396.192 153.446 395.839 154.532 395.132 155.486C394.434 156.431 393.458 157.173 392.204 157.712C390.959 158.251 389.515 158.52 387.872 158.52C385.593 158.52 383.734 158.034 382.294 157.063C380.854 156.082 379.971 154.691 379.644 152.889L383.473 152.306C383.712 153.305 384.202 154.06 384.944 154.572C385.686 155.075 386.653 155.327 387.845 155.327C389.144 155.327 390.181 155.058 390.959 154.519C391.736 153.971 392.125 153.305 392.125 152.518C392.125 151.882 391.886 151.348 391.409 150.915C390.941 150.483 390.221 150.156 389.25 149.935L385.805 149.18C383.906 148.747 382.502 148.058 381.592 147.113C380.691 146.168 380.24 144.971 380.24 143.523C380.24 142.321 380.576 141.27 381.247 140.369C381.919 139.468 382.846 138.766 384.03 138.263C385.213 137.751 386.569 137.494 388.097 137.494C390.296 137.494 392.027 137.971 393.29 138.925C394.554 139.87 395.388 141.138 395.794 142.728ZM400.547 158.109V137.759H404.509V158.109H400.547ZM402.548 134.619C401.859 134.619 401.267 134.39 400.773 133.93C400.287 133.462 400.044 132.906 400.044 132.261C400.044 131.608 400.287 131.051 400.773 130.592C401.267 130.124 401.859 129.89 402.548 129.89C403.237 129.89 403.824 130.124 404.31 130.592C404.805 131.051 405.052 131.608 405.052 132.261C405.052 132.906 404.805 133.462 404.31 133.93C403.824 134.39 403.237 134.619 402.548 134.619ZM409.838 158.109V137.759H413.641V141.072H413.892C414.316 139.95 415.01 139.075 415.972 138.448C416.935 137.812 418.088 137.494 419.43 137.494C420.79 137.494 421.93 137.812 422.848 138.448C423.776 139.084 424.46 139.959 424.902 141.072H425.114C425.6 139.985 426.373 139.12 427.432 138.475C428.492 137.821 429.755 137.494 431.222 137.494C433.068 137.494 434.574 138.073 435.739 139.23C436.914 140.387 437.501 142.131 437.501 144.463V158.109H433.54V144.834C433.54 143.456 433.165 142.458 432.414 141.84C431.663 141.222 430.767 140.913 429.724 140.913C428.435 140.913 427.432 141.31 426.717 142.105C426.002 142.891 425.644 143.902 425.644 145.139V158.109H421.696V144.582C421.696 143.478 421.351 142.591 420.662 141.919C419.973 141.248 419.077 140.913 417.973 140.913C417.222 140.913 416.529 141.111 415.893 141.509C415.266 141.897 414.758 142.441 414.369 143.138C413.989 143.836 413.8 144.644 413.8 145.563V158.109H409.838ZM442.811 165.741V137.759H446.68V141.058H447.011C447.24 140.634 447.572 140.144 448.004 139.588C448.437 139.031 449.038 138.545 449.806 138.13C450.575 137.706 451.59 137.494 452.853 137.494C454.496 137.494 455.962 137.909 457.252 138.74C458.542 139.57 459.553 140.767 460.286 142.33C461.028 143.893 461.399 145.775 461.399 147.974C461.399 150.173 461.032 152.059 460.299 153.631C459.566 155.195 458.559 156.4 457.279 157.248C455.998 158.087 454.536 158.507 452.893 158.507C451.657 158.507 450.645 158.299 449.859 157.884C449.082 157.469 448.473 156.983 448.031 156.427C447.589 155.87 447.249 155.376 447.011 154.943H446.772V165.741H442.811ZM446.693 147.934C446.693 149.365 446.9 150.619 447.315 151.697C447.731 152.775 448.331 153.618 449.117 154.227C449.903 154.828 450.866 155.128 452.006 155.128C453.189 155.128 454.178 154.815 454.973 154.188C455.768 153.552 456.369 152.691 456.775 151.604C457.19 150.518 457.398 149.295 457.398 147.934C457.398 146.592 457.195 145.386 456.788 144.317C456.391 143.249 455.79 142.405 454.986 141.787C454.192 141.169 453.198 140.86 452.006 140.86C450.857 140.86 449.886 141.155 449.091 141.747C448.305 142.339 447.709 143.165 447.302 144.225C446.896 145.285 446.693 146.521 446.693 147.934ZM469.799 130.976V158.109H465.837V130.976H469.799ZM475.128 158.109V137.759H479.089V158.109H475.128ZM477.128 134.619C476.439 134.619 475.848 134.39 475.353 133.93C474.867 133.462 474.624 132.906 474.624 132.261C474.624 131.608 474.867 131.051 475.353 130.592C475.848 130.124 476.439 129.89 477.128 129.89C477.817 129.89 478.405 130.124 478.891 130.592C479.385 131.051 479.632 131.608 479.632 132.261C479.632 132.906 479.385 133.462 478.891 133.93C478.405 134.39 477.817 134.619 477.128 134.619ZM494.103 137.759V140.939H482.603V137.759H494.103ZM485.757 158.109V135.401C485.757 134.129 486.035 133.074 486.591 132.235C487.148 131.387 487.885 130.755 488.804 130.34C489.722 129.916 490.721 129.704 491.798 129.704C492.593 129.704 493.273 129.77 493.838 129.903C494.404 130.026 494.823 130.141 495.097 130.247L494.17 133.453C493.984 133.401 493.746 133.339 493.454 133.268C493.163 133.189 492.809 133.149 492.394 133.149C491.432 133.149 490.743 133.387 490.327 133.864C489.921 134.341 489.718 135.03 489.718 135.931V158.109H485.757ZM498.191 158.109V137.759H502.152V158.109H498.191ZM500.191 134.619C499.502 134.619 498.91 134.39 498.416 133.93C497.93 133.462 497.687 132.906 497.687 132.261C497.687 131.608 497.93 131.051 498.416 130.592C498.91 130.124 499.502 129.89 500.191 129.89C500.88 129.89 501.467 130.124 501.953 130.592C502.448 131.051 502.695 131.608 502.695 132.261C502.695 132.906 502.448 133.462 501.953 133.93C501.467 134.39 500.88 134.619 500.191 134.619ZM516.252 158.52C514.247 158.52 512.52 158.092 511.072 157.235C509.632 156.369 508.519 155.155 507.733 153.592C506.956 152.019 506.567 150.178 506.567 148.067C506.567 145.982 506.956 144.145 507.733 142.555C508.519 140.966 509.614 139.725 511.019 138.832C512.432 137.94 514.084 137.494 515.974 137.494C517.122 137.494 518.235 137.684 519.312 138.064C520.39 138.444 521.357 139.04 522.214 139.853C523.071 140.665 523.746 141.721 524.241 143.019C524.736 144.309 524.983 145.876 524.983 147.722V149.127H508.806V146.159H521.101C521.101 145.117 520.889 144.194 520.465 143.39C520.041 142.577 519.445 141.937 518.676 141.469C517.917 141.001 517.025 140.767 516 140.767C514.887 140.767 513.916 141.041 513.085 141.588C512.264 142.127 511.628 142.834 511.178 143.708C510.736 144.574 510.515 145.514 510.515 146.53V148.849C510.515 150.209 510.754 151.366 511.231 152.32C511.716 153.274 512.392 154.002 513.258 154.506C514.123 155 515.135 155.248 516.292 155.248C517.042 155.248 517.727 155.142 518.345 154.93C518.963 154.709 519.498 154.382 519.948 153.949C520.399 153.516 520.743 152.982 520.982 152.346L524.731 153.022C524.431 154.126 523.892 155.093 523.115 155.923C522.346 156.745 521.379 157.385 520.213 157.844C519.056 158.295 517.736 158.52 516.252 158.52ZM536.996 158.507C535.353 158.507 533.887 158.087 532.598 157.248C531.317 156.4 530.31 155.195 529.577 153.631C528.853 152.059 528.49 150.173 528.49 147.974C528.49 145.775 528.857 143.893 529.59 142.33C530.332 140.767 531.348 139.57 532.637 138.74C533.927 137.909 535.389 137.494 537.023 137.494C538.286 137.494 539.301 137.706 540.07 138.13C540.847 138.545 541.448 139.031 541.872 139.588C542.304 140.144 542.64 140.634 542.879 141.058H543.117V130.976H547.078V158.109H543.21V154.943H542.879C542.64 155.376 542.296 155.87 541.845 156.427C541.404 156.983 540.794 157.469 540.017 157.884C539.24 158.299 538.233 158.507 536.996 158.507ZM537.871 155.128C539.01 155.128 539.973 154.828 540.759 154.227C541.554 153.618 542.154 152.775 542.561 151.697C542.976 150.619 543.183 149.365 543.183 147.934C543.183 146.521 542.98 145.285 542.574 144.225C542.168 143.165 541.571 142.339 540.785 141.747C539.999 141.155 539.028 140.86 537.871 140.86C536.678 140.86 535.684 141.169 534.89 141.787C534.095 142.405 533.494 143.249 533.088 144.317C532.69 145.386 532.492 146.592 532.492 147.934C532.492 149.295 532.695 150.518 533.101 151.604C533.507 152.691 534.108 153.552 534.903 154.188C535.707 154.815 536.696 155.128 537.871 155.128Z" fill="#80040B"/>
</svg>
