<svg width="412" height="917" viewBox="0 0 412 917" fill="none" xmlns="http://www.w3.org/2000/svg">
<rect width="412" height="917" fill="#550509"/>
<path fill-rule="evenodd" clip-rule="evenodd" d="M204.808 886H399.754C399.134 766.552 309.137 691.053 204.808 691.053V886Z" fill="#650308"/>
<path fill-rule="evenodd" clip-rule="evenodd" d="M4.46301 686.049V886L402.493 491H199.512L4.46301 686.049Z" fill="#650308"/>
<path fill-rule="evenodd" clip-rule="evenodd" d="M202.149 440H7.20201C7.82194 320.552 97.8192 245.053 202.149 245.053V440Z" fill="#650308"/>
<path fill-rule="evenodd" clip-rule="evenodd" d="M402.493 240.049V440L4.46296 45H207.445L402.493 240.049Z" fill="#650308"/>
<path fill-rule="evenodd" clip-rule="evenodd" d="M205.832 418.573H254.481C254.327 388.765 231.867 369.924 205.832 369.924V418.573Z" fill="#F44708"/>
<path fill-rule="evenodd" clip-rule="evenodd" d="M155.835 368.675V418.573L255.165 320H204.51L155.835 368.675Z" fill="white"/>
<path d="M148.839 458.573V441.119H152.001V449.139H152.214L159.023 441.119H162.884L156.134 448.951L162.944 458.573H159.143L153.935 451.09L152.001 453.375V458.573H148.839ZM169.694 458.829C168.415 458.829 167.308 458.548 166.37 457.985C165.433 457.423 164.705 456.636 164.188 455.625C163.677 454.613 163.421 453.431 163.421 452.079C163.421 450.727 163.677 449.542 164.188 448.525C164.705 447.508 165.433 446.718 166.37 446.156C167.308 445.593 168.415 445.312 169.694 445.312C170.972 445.312 172.08 445.593 173.018 446.156C173.955 446.718 174.68 447.508 175.191 448.525C175.708 449.542 175.967 450.727 175.967 452.079C175.967 453.431 175.708 454.613 175.191 455.625C174.68 456.636 173.955 457.423 173.018 457.985C172.08 458.548 170.972 458.829 169.694 458.829ZM169.711 456.357C170.404 456.357 170.984 456.167 171.45 455.786C171.915 455.4 172.262 454.883 172.489 454.235C172.722 453.588 172.839 452.866 172.839 452.071C172.839 451.269 172.722 450.545 172.489 449.897C172.262 449.244 171.915 448.724 171.45 448.338C170.984 447.951 170.404 447.758 169.711 447.758C169.001 447.758 168.41 447.951 167.938 448.338C167.472 448.724 167.123 449.244 166.89 449.897C166.663 450.545 166.549 451.269 166.549 452.071C166.549 452.866 166.663 453.588 166.89 454.235C167.123 454.883 167.472 455.4 167.938 455.786C168.41 456.167 169.001 456.357 169.711 456.357ZM178.585 458.573V445.482H181.67V458.573H178.585ZM180.136 443.625C179.648 443.625 179.227 443.463 178.875 443.139C178.523 442.809 178.347 442.414 178.347 441.954C178.347 441.488 178.523 441.093 178.875 440.769C179.227 440.44 179.648 440.275 180.136 440.275C180.631 440.275 181.051 440.44 181.398 440.769C181.75 441.093 181.926 441.488 181.926 441.954C181.926 442.414 181.75 442.809 181.398 443.139C181.051 443.463 180.631 443.625 180.136 443.625ZM187.928 450.903V458.573H184.843V445.482H187.792V447.707H187.945C188.246 446.974 188.727 446.392 189.386 445.96C190.05 445.528 190.871 445.312 191.849 445.312C192.752 445.312 193.539 445.505 194.21 445.892C194.886 446.278 195.408 446.838 195.778 447.571C196.153 448.303 196.337 449.193 196.332 450.238V458.573H193.246V450.715C193.246 449.84 193.019 449.156 192.565 448.661C192.116 448.167 191.494 447.92 190.698 447.92C190.158 447.92 189.678 448.039 189.258 448.278C188.843 448.511 188.516 448.849 188.278 449.292C188.045 449.735 187.928 450.272 187.928 450.903ZM209.09 445.917C209.011 445.173 208.675 444.593 208.085 444.178C207.499 443.764 206.738 443.556 205.8 443.556C205.141 443.556 204.576 443.656 204.104 443.855C203.633 444.053 203.272 444.323 203.022 444.664C202.772 445.005 202.644 445.394 202.638 445.832C202.638 446.196 202.721 446.511 202.886 446.778C203.056 447.045 203.286 447.272 203.576 447.46C203.866 447.642 204.187 447.795 204.539 447.92C204.891 448.045 205.246 448.15 205.604 448.235L207.241 448.644C207.9 448.798 208.533 449.005 209.141 449.267C209.755 449.528 210.303 449.857 210.786 450.255C211.275 450.653 211.661 451.133 211.945 451.696C212.229 452.258 212.371 452.917 212.371 453.673C212.371 454.696 212.11 455.596 211.587 456.375C211.065 457.147 210.309 457.752 209.32 458.19C208.337 458.622 207.147 458.838 205.749 458.838C204.391 458.838 203.212 458.627 202.212 458.207C201.218 457.786 200.44 457.173 199.877 456.366C199.32 455.559 199.019 454.576 198.974 453.417H202.085C202.13 454.025 202.317 454.531 202.647 454.934C202.977 455.338 203.406 455.639 203.934 455.838C204.468 456.036 205.065 456.136 205.724 456.136C206.411 456.136 207.013 456.034 207.531 455.829C208.053 455.619 208.462 455.329 208.758 454.96C209.053 454.585 209.204 454.147 209.21 453.647C209.204 453.193 209.07 452.818 208.809 452.522C208.548 452.221 208.181 451.971 207.71 451.772C207.244 451.568 206.698 451.386 206.073 451.227L204.087 450.715C202.65 450.346 201.513 449.786 200.678 449.036C199.849 448.281 199.434 447.278 199.434 446.028C199.434 444.999 199.712 444.099 200.269 443.326C200.832 442.553 201.596 441.954 202.562 441.528C203.528 441.096 204.621 440.88 205.843 440.88C207.082 440.88 208.167 441.096 209.099 441.528C210.036 441.954 210.772 442.548 211.306 443.309C211.84 444.065 212.116 444.934 212.133 445.917H209.09ZM221.591 445.482V447.869H214.065V445.482H221.591ZM215.923 442.346H219.009V454.636C219.009 455.051 219.071 455.369 219.196 455.59C219.327 455.806 219.497 455.954 219.707 456.034C219.918 456.113 220.151 456.153 220.406 456.153C220.599 456.153 220.776 456.139 220.935 456.11C221.099 456.082 221.224 456.056 221.31 456.034L221.83 458.446C221.665 458.502 221.429 458.565 221.122 458.633C220.821 458.701 220.452 458.741 220.014 458.752C219.241 458.775 218.545 458.659 217.926 458.403C217.307 458.142 216.815 457.738 216.452 457.193C216.094 456.647 215.918 455.965 215.923 455.147V442.346ZM227.938 458.838C227.109 458.838 226.362 458.69 225.697 458.394C225.038 458.093 224.515 457.65 224.129 457.065C223.748 456.48 223.558 455.758 223.558 454.9C223.558 454.161 223.694 453.551 223.967 453.068C224.239 452.585 224.612 452.198 225.083 451.909C225.555 451.619 226.086 451.4 226.677 451.252C227.273 451.099 227.89 450.988 228.526 450.92C229.293 450.84 229.915 450.769 230.393 450.707C230.87 450.639 231.217 450.536 231.433 450.4C231.654 450.258 231.765 450.039 231.765 449.744V449.693C231.765 449.051 231.575 448.553 231.194 448.201C230.813 447.849 230.265 447.673 229.549 447.673C228.793 447.673 228.194 447.838 227.751 448.167C227.313 448.497 227.018 448.886 226.864 449.335L223.984 448.926C224.211 448.13 224.586 447.465 225.109 446.931C225.631 446.392 226.271 445.988 227.026 445.721C227.782 445.448 228.617 445.312 229.532 445.312C230.163 445.312 230.79 445.386 231.415 445.534C232.04 445.681 232.612 445.926 233.129 446.267C233.646 446.602 234.06 447.059 234.373 447.639C234.691 448.218 234.85 448.943 234.85 449.812V458.573H231.884V456.775H231.782C231.594 457.139 231.33 457.48 230.989 457.798C230.654 458.11 230.231 458.363 229.719 458.556C229.214 458.744 228.62 458.838 227.938 458.838ZM228.739 456.571C229.359 456.571 229.896 456.448 230.35 456.204C230.805 455.954 231.154 455.625 231.398 455.215C231.648 454.806 231.773 454.36 231.773 453.877V452.335C231.677 452.414 231.512 452.488 231.279 452.556C231.052 452.625 230.796 452.684 230.512 452.735C230.228 452.786 229.947 452.832 229.668 452.872C229.39 452.911 229.148 452.946 228.944 452.974C228.484 453.036 228.072 453.139 227.708 453.281C227.344 453.423 227.058 453.622 226.847 453.877C226.637 454.127 226.532 454.451 226.532 454.849C226.532 455.417 226.739 455.846 227.154 456.136C227.569 456.426 228.097 456.571 228.739 456.571ZM243.663 458.829C242.356 458.829 241.234 458.542 240.296 457.968C239.364 457.394 238.646 456.602 238.14 455.59C237.64 454.573 237.39 453.403 237.39 452.079C237.39 450.75 237.646 449.576 238.157 448.559C238.668 447.536 239.39 446.741 240.322 446.173C241.259 445.599 242.367 445.312 243.646 445.312C244.708 445.312 245.648 445.508 246.467 445.9C247.29 446.286 247.947 446.835 248.435 447.545C248.924 448.25 249.202 449.073 249.271 450.017H246.322C246.202 449.386 245.918 448.86 245.469 448.44C245.026 448.014 244.433 447.801 243.688 447.801C243.058 447.801 242.504 447.971 242.026 448.312C241.549 448.647 241.177 449.13 240.91 449.761C240.648 450.392 240.518 451.147 240.518 452.028C240.518 452.92 240.648 453.687 240.91 454.329C241.171 454.965 241.538 455.457 242.009 455.803C242.487 456.144 243.046 456.315 243.688 456.315C244.143 456.315 244.549 456.23 244.907 456.059C245.271 455.883 245.575 455.63 245.819 455.301C246.063 454.971 246.231 454.571 246.322 454.099H249.271C249.197 455.025 248.924 455.846 248.452 456.562C247.981 457.272 247.339 457.829 246.526 458.232C245.714 458.63 244.759 458.829 243.663 458.829ZM254.616 454.465L254.608 450.741H255.102L259.807 445.482H263.412L257.625 451.926H256.986L254.616 454.465ZM251.804 458.573V441.119H254.889V458.573H251.804ZM260.02 458.573L255.759 452.616L257.838 450.443L263.71 458.573H260.02Z" fill="white"/>
<path d="M154.675 478.573V469.846H159.724V470.562H155.472V473.848H159.328V474.563H155.472V478.573H154.675ZM161.557 478.573V472.028H162.32V478.573H161.557ZM161.945 470.903C161.788 470.903 161.655 470.85 161.544 470.745C161.433 470.637 161.378 470.508 161.378 470.357C161.378 470.207 161.433 470.079 161.544 469.974C161.655 469.866 161.788 469.812 161.945 469.812C162.101 469.812 162.234 469.866 162.345 469.974C162.456 470.079 162.511 470.207 162.511 470.357C162.511 470.508 162.456 470.637 162.345 470.745C162.234 470.85 162.101 470.903 161.945 470.903ZM165.084 474.482V478.573H164.326V472.028H165.063V473.055H165.131C165.284 472.72 165.523 472.451 165.847 472.25C166.174 472.045 166.577 471.943 167.057 471.943C167.498 471.943 167.884 472.035 168.216 472.22C168.551 472.401 168.811 472.67 168.996 473.025C169.184 473.38 169.277 473.816 169.277 474.333V478.573H168.519V474.38C168.519 473.843 168.368 473.419 168.067 473.106C167.769 472.794 167.368 472.637 166.865 472.637C166.522 472.637 166.216 472.711 165.949 472.859C165.682 473.007 165.471 473.22 165.314 473.498C165.161 473.774 165.084 474.102 165.084 474.482ZM173.103 478.723C172.708 478.723 172.347 478.646 172.021 478.492C171.694 478.336 171.434 478.112 171.241 477.819C171.048 477.524 170.951 477.166 170.951 476.745C170.951 476.421 171.012 476.149 171.134 475.927C171.256 475.705 171.43 475.524 171.654 475.382C171.879 475.24 172.144 475.127 172.451 475.045C172.758 474.963 173.096 474.899 173.465 474.853C173.832 474.808 174.141 474.768 174.394 474.734C174.65 474.7 174.844 474.646 174.978 474.572C175.112 474.498 175.178 474.379 175.178 474.214V474.061C175.178 473.615 175.045 473.264 174.778 473.008C174.513 472.75 174.133 472.62 173.636 472.62C173.164 472.62 172.779 472.724 172.481 472.931C172.185 473.139 171.978 473.383 171.859 473.664L171.138 473.404C171.286 473.046 171.491 472.761 171.752 472.548C172.013 472.332 172.306 472.177 172.63 472.083C172.954 471.987 173.282 471.938 173.614 471.938C173.864 471.938 174.124 471.971 174.394 472.036C174.667 472.102 174.92 472.215 175.153 472.377C175.386 472.536 175.575 472.759 175.719 473.046C175.864 473.33 175.937 473.691 175.937 474.129V478.573H175.178V477.538H175.131C175.04 477.731 174.906 477.919 174.727 478.1C174.548 478.282 174.323 478.431 174.053 478.548C173.783 478.664 173.467 478.723 173.103 478.723ZM173.205 478.028C173.609 478.028 173.958 477.938 174.254 477.759C174.549 477.58 174.776 477.343 174.935 477.048C175.097 476.75 175.178 476.421 175.178 476.063V475.117C175.121 475.171 175.026 475.22 174.893 475.262C174.762 475.305 174.61 475.343 174.437 475.377C174.266 475.409 174.096 475.436 173.925 475.458C173.755 475.481 173.602 475.501 173.465 475.518C173.096 475.563 172.781 475.634 172.519 475.731C172.258 475.828 172.058 475.961 171.918 476.132C171.779 476.299 171.71 476.515 171.71 476.779C171.71 477.177 171.852 477.485 172.136 477.704C172.42 477.92 172.776 478.028 173.205 478.028ZM178.713 474.482V478.573H177.955V472.028H178.692V473.055H178.76C178.913 472.72 179.152 472.451 179.476 472.25C179.803 472.045 180.206 471.943 180.686 471.943C181.126 471.943 181.513 472.035 181.845 472.22C182.18 472.401 182.44 472.67 182.625 473.025C182.812 473.38 182.906 473.816 182.906 474.333V478.573H182.148V474.38C182.148 473.843 181.997 473.419 181.696 473.106C181.398 472.794 180.997 472.637 180.494 472.637C180.151 472.637 179.845 472.711 179.578 472.859C179.311 473.007 179.099 473.22 178.943 473.498C178.79 473.774 178.713 474.102 178.713 474.482ZM187.461 478.71C186.875 478.71 186.365 478.563 185.931 478.271C185.499 477.978 185.164 477.578 184.925 477.069C184.686 476.561 184.567 475.981 184.567 475.33C184.567 474.674 184.688 474.09 184.929 473.579C185.174 473.068 185.512 472.667 185.944 472.377C186.375 472.085 186.877 471.938 187.448 471.938C187.885 471.938 188.282 472.024 188.637 472.194C188.992 472.362 189.284 472.599 189.515 472.906C189.748 473.21 189.894 473.565 189.953 473.971H189.186C189.107 473.602 188.915 473.286 188.611 473.025C188.31 472.761 187.926 472.629 187.461 472.629C187.043 472.629 186.674 472.742 186.353 472.97C186.032 473.194 185.78 473.508 185.598 473.911C185.419 474.312 185.33 474.776 185.33 475.305C185.33 475.836 185.418 476.306 185.594 476.715C185.77 477.122 186.017 477.44 186.336 477.67C186.657 477.9 187.032 478.015 187.461 478.015C187.75 478.015 188.015 477.961 188.253 477.853C188.495 477.742 188.696 477.586 188.858 477.384C189.023 477.183 189.134 476.943 189.191 476.664H189.958C189.901 477.059 189.76 477.411 189.536 477.721C189.314 478.028 189.026 478.269 188.671 478.446C188.319 478.622 187.915 478.71 187.461 478.71ZM194.23 478.71C193.619 478.71 193.091 478.568 192.645 478.284C192.199 477.997 191.853 477.6 191.609 477.095C191.368 476.586 191.247 476.001 191.247 475.339C191.247 474.68 191.368 474.095 191.609 473.583C191.853 473.069 192.19 472.667 192.619 472.377C193.051 472.085 193.549 471.938 194.115 471.938C194.47 471.938 194.812 472.004 195.142 472.134C195.471 472.262 195.767 472.46 196.028 472.727C196.292 472.991 196.501 473.325 196.654 473.728C196.808 474.129 196.885 474.603 196.885 475.151V475.526H191.771V474.857H196.109C196.109 474.437 196.024 474.059 195.853 473.724C195.686 473.386 195.451 473.119 195.15 472.923C194.852 472.727 194.507 472.629 194.115 472.629C193.7 472.629 193.335 472.74 193.02 472.961C192.704 473.183 192.457 473.475 192.278 473.839C192.102 474.203 192.012 474.6 192.01 475.032V475.433C192.01 475.953 192.099 476.407 192.278 476.796C192.46 477.183 192.717 477.482 193.049 477.696C193.382 477.909 193.775 478.015 194.23 478.015C194.539 478.015 194.811 477.967 195.044 477.87C195.279 477.774 195.477 477.644 195.636 477.482C195.798 477.318 195.92 477.137 196.002 476.941L196.723 477.176C196.623 477.451 196.46 477.705 196.233 477.938C196.008 478.171 195.727 478.359 195.389 478.501C195.054 478.64 194.667 478.71 194.23 478.71ZM199.817 477.38L199.741 477.836C199.692 478.143 199.624 478.481 199.536 478.85C199.448 479.22 199.357 479.571 199.263 479.903C199.17 480.235 199.089 480.502 199.021 480.704H198.437C198.474 480.511 198.521 480.265 198.577 479.967C198.637 479.669 198.698 479.338 198.761 478.974C198.823 478.613 198.88 478.241 198.931 477.857L198.991 477.38H199.817ZM209.598 473.464L208.904 473.66C208.836 473.464 208.739 473.286 208.614 473.127C208.489 472.968 208.326 472.842 208.124 472.748C207.925 472.654 207.678 472.607 207.382 472.607C206.939 472.607 206.576 472.713 206.292 472.923C206.007 473.133 205.865 473.404 205.865 473.737C205.865 474.018 205.962 474.247 206.155 474.423C206.351 474.596 206.652 474.734 207.059 474.836L208.047 475.079C208.596 475.213 209.006 475.424 209.279 475.714C209.554 476.004 209.692 476.367 209.692 476.805C209.692 477.174 209.59 477.502 209.385 477.789C209.181 478.076 208.895 478.302 208.529 478.467C208.165 478.629 207.743 478.71 207.263 478.71C206.624 478.71 206.097 478.566 205.682 478.279C205.267 477.99 205.002 477.572 204.885 477.026L205.614 476.848C205.708 477.237 205.891 477.531 206.164 477.73C206.439 477.928 206.801 478.028 207.25 478.028C207.753 478.028 208.155 477.916 208.456 477.691C208.757 477.464 208.908 477.18 208.908 476.839C208.908 476.575 208.82 476.353 208.644 476.174C208.468 475.992 208.201 475.859 207.843 475.774L206.773 475.518C206.205 475.382 205.784 475.166 205.512 474.87C205.239 474.575 205.103 474.208 205.103 473.771C205.103 473.41 205.201 473.093 205.397 472.821C205.593 472.545 205.863 472.329 206.206 472.173C206.55 472.017 206.942 471.938 207.382 471.938C207.982 471.938 208.461 472.075 208.819 472.348C209.179 472.617 209.439 472.99 209.598 473.464ZM211.362 478.573V472.028H212.124V478.573H211.362ZM211.749 470.903C211.593 470.903 211.46 470.85 211.349 470.745C211.238 470.637 211.183 470.508 211.183 470.357C211.183 470.207 211.238 470.079 211.349 469.974C211.46 469.866 211.593 469.812 211.749 469.812C211.906 469.812 212.039 469.866 212.15 469.974C212.261 470.079 212.316 470.207 212.316 470.357C212.316 470.508 212.261 470.637 212.15 470.745C212.039 470.85 211.906 470.903 211.749 470.903ZM214.13 478.573V472.028H214.868V473.034H214.936C215.066 472.696 215.284 472.43 215.588 472.237C215.895 472.041 216.262 471.943 216.691 471.943C217.143 471.943 217.514 472.049 217.804 472.262C218.096 472.473 218.315 472.762 218.46 473.132H218.515C218.663 472.768 218.903 472.48 219.235 472.267C219.571 472.051 219.977 471.943 220.454 471.943C221.062 471.943 221.542 472.134 221.895 472.518C222.247 472.899 222.423 473.455 222.423 474.188V478.573H221.664V474.188C221.664 473.671 221.532 473.284 221.268 473.025C221.004 472.767 220.656 472.637 220.224 472.637C219.724 472.637 219.339 472.791 219.069 473.098C218.799 473.404 218.664 473.794 218.664 474.265V478.573H217.889V474.12C217.889 473.677 217.765 473.319 217.518 473.046C217.271 472.774 216.923 472.637 216.474 472.637C216.173 472.637 215.902 472.711 215.66 472.859C215.422 473.007 215.233 473.213 215.093 473.477C214.957 473.738 214.889 474.039 214.889 474.38V478.573H214.13ZM224.431 481.028V472.028H225.168V473.276H225.258C225.349 473.08 225.474 472.88 225.633 472.676C225.792 472.468 226.002 472.294 226.263 472.151C226.528 472.009 226.86 471.938 227.261 471.938C227.8 471.938 228.272 472.08 228.675 472.365C229.082 472.646 229.397 473.041 229.621 473.549C229.849 474.055 229.962 474.644 229.962 475.318C229.962 475.994 229.849 476.586 229.621 477.095C229.397 477.603 229.082 478 228.675 478.284C228.272 478.568 227.803 478.71 227.269 478.71C226.874 478.71 226.543 478.639 226.276 478.497C226.012 478.355 225.798 478.18 225.633 477.973C225.471 477.762 225.346 477.558 225.258 477.359H225.19V481.028H224.431ZM225.181 475.305C225.181 475.833 225.259 476.302 225.415 476.711C225.575 477.117 225.802 477.437 226.097 477.67C226.396 477.9 226.756 478.015 227.18 478.015C227.614 478.015 227.981 477.896 228.279 477.657C228.58 477.416 228.809 477.09 228.965 476.681C229.124 476.272 229.204 475.813 229.204 475.305C229.204 474.802 229.126 474.349 228.969 473.946C228.816 473.542 228.589 473.223 228.288 472.987C227.987 472.748 227.617 472.629 227.18 472.629C226.754 472.629 226.391 472.744 226.093 472.974C225.795 473.201 225.567 473.517 225.411 473.92C225.258 474.321 225.181 474.782 225.181 475.305ZM232.385 469.846V478.573H231.626V469.846H232.385ZM234.401 478.573V472.028H235.163V478.573H234.401ZM234.788 470.903C234.632 470.903 234.499 470.85 234.388 470.745C234.277 470.637 234.222 470.508 234.222 470.357C234.222 470.207 234.277 470.079 234.388 469.974C234.499 469.866 234.632 469.812 234.788 469.812C234.945 469.812 235.078 469.866 235.189 469.974C235.3 470.079 235.355 470.207 235.355 470.357C235.355 470.508 235.3 470.637 235.189 470.745C235.078 470.85 234.945 470.903 234.788 470.903ZM239.863 472.028V472.688H236.645V472.028H239.863ZM237.651 478.573V471.069C237.651 470.717 237.732 470.42 237.894 470.178C238.059 469.937 238.273 469.754 238.537 469.629C238.801 469.504 239.081 469.441 239.377 469.441C239.576 469.441 239.74 469.458 239.871 469.492C240.005 469.524 240.11 469.555 240.186 469.586L239.965 470.251C239.908 470.234 239.838 470.214 239.756 470.191C239.674 470.169 239.57 470.157 239.445 470.157C239.115 470.157 238.861 470.25 238.682 470.434C238.503 470.619 238.414 470.883 238.414 471.227L238.409 478.573H237.651ZM241.385 478.573V472.028H242.148V478.573H241.385ZM241.773 470.903C241.616 470.903 241.483 470.85 241.372 470.745C241.261 470.637 241.206 470.508 241.206 470.357C241.206 470.207 241.261 470.079 241.372 469.974C241.483 469.866 241.616 469.812 241.773 469.812C241.929 469.812 242.063 469.866 242.173 469.974C242.284 470.079 242.339 470.207 242.339 470.357C242.339 470.508 242.284 470.637 242.173 470.745C242.063 470.85 241.929 470.903 241.773 470.903ZM246.8 478.71C246.189 478.71 245.661 478.568 245.215 478.284C244.769 477.997 244.424 477.6 244.179 477.095C243.938 476.586 243.817 476.001 243.817 475.339C243.817 474.68 243.938 474.095 244.179 473.583C244.424 473.069 244.76 472.667 245.189 472.377C245.621 472.085 246.12 471.938 246.685 471.938C247.04 471.938 247.382 472.004 247.712 472.134C248.042 472.262 248.337 472.46 248.598 472.727C248.863 472.991 249.071 473.325 249.225 473.728C249.378 474.129 249.455 474.603 249.455 475.151V475.526H244.341V474.857H248.679C248.679 474.437 248.594 474.059 248.424 473.724C248.256 473.386 248.022 473.119 247.721 472.923C247.422 472.727 247.077 472.629 246.685 472.629C246.27 472.629 245.905 472.74 245.59 472.961C245.275 473.183 245.027 473.475 244.848 473.839C244.672 474.203 244.583 474.6 244.58 475.032V475.433C244.58 475.953 244.669 476.407 244.848 476.796C245.03 477.183 245.287 477.482 245.62 477.696C245.952 477.909 246.346 478.015 246.8 478.015C247.11 478.015 247.381 477.967 247.614 477.87C247.85 477.774 248.047 477.644 248.206 477.482C248.368 477.318 248.49 477.137 248.573 476.941L249.293 477.176C249.194 477.451 249.03 477.705 248.803 477.938C248.578 478.171 248.297 478.359 247.959 478.501C247.624 478.64 247.238 478.71 246.8 478.71ZM253.483 478.71C252.946 478.71 252.476 478.568 252.072 478.284C251.669 478 251.354 477.603 251.126 477.095C250.902 476.586 250.79 475.994 250.79 475.318C250.79 474.644 250.902 474.055 251.126 473.549C251.354 473.041 251.67 472.646 252.077 472.365C252.483 472.08 252.956 471.938 253.496 471.938C253.893 471.938 254.224 472.009 254.489 472.151C254.753 472.291 254.964 472.464 255.124 472.671C255.283 472.879 255.406 473.08 255.494 473.276H255.562V469.846H256.325V478.573H255.584V477.359H255.494C255.406 477.558 255.281 477.762 255.119 477.973C254.957 478.18 254.743 478.355 254.476 478.497C254.212 478.639 253.881 478.71 253.483 478.71ZM253.572 478.015C253.996 478.015 254.357 477.9 254.655 477.67C254.953 477.437 255.18 477.117 255.337 476.711C255.496 476.302 255.575 475.833 255.575 475.305C255.575 474.782 255.497 474.321 255.341 473.92C255.185 473.517 254.957 473.201 254.659 472.974C254.361 472.744 253.999 472.629 253.572 472.629C253.135 472.629 252.766 472.748 252.464 472.987C252.166 473.223 251.939 473.542 251.783 473.946C251.629 474.349 251.553 474.802 251.553 475.305C251.553 475.813 251.631 476.272 251.787 476.681C251.943 477.09 252.17 477.416 252.469 477.657C252.77 477.896 253.138 478.015 253.572 478.015Z" fill="white"/>
</svg>
